<?xml version="1.0" encoding="UTF-8" standalone="no"?>
<svg xmlns:rdf="http://www.w3.org/1999/02/22-rdf-syntax-ns#" xmlns="http://www.w3.org/2000/svg" xml:space="preserve" version="1.1" y="0px" x="0px" height="512" width="512" xmlns:cc="http://creativecommons.org/ns#" xmlns:dc="http://purl.org/dc/elements/1.1/" viewBox="0 0 512 512"><metadata><rdf:RDF><cc:Work rdf:about=""><dc:format>image/svg+xml</dc:format><dc:type rdf:resource="http://purl.org/dc/dcmitype/StillImage"/><dc:title/></cc:Work></rdf:RDF></metadata>
		<path d="m261.61,288.79c-13.825,0-25.029,11.088-25.029,24.76,0,13.682,11.204,24.771,25.029,24.771,13.815,0,25.027-11.088,25.027-24.771,0-13.67-11.216-24.756-25.029-24.756z"/>
		<path d="m258.23,259.55c-17.721,1.1452-28.885,15.291-29.355,15.902-2.4508,3.1569-1.8424,7.695,1.3473,10.121,1.3246,1.0062,2.8908,1.4896,4.4442,1.4896,2.1934,0,4.3453-0.96664,5.7914-2.8215,0.0694-0.0979,7.7056-9.5677,18.728-10.279,7.4867-0.48331,15.29,3.2054,23.145,10.989,2.85,2.8215,7.4754,2.8215,10.326,0,2.85-2.8207,2.85-7.3887,0-10.22-10.967-10.839-22.553-15.971-34.433-15.179z"/>
		<path d="m258.14,232.57c-26.284,0.8486-44.225,20.213-44.983,21.032-2.6908,2.9589-2.453,7.5067,0.51778,10.18,2.9708,2.6736,7.5848,2.4569,10.307-0.48331,0.13888-0.15837,14.73-15.704,34.766-16.297,12.549-0.30627,24.918,5.2283,36.759,16.622,1.4258,1.3715,3.2493,2.0416,5.0933,2.0416,1.9051,0,3.7973-0.72908,5.2336-2.1895,2.8108-2.861,2.7406-7.4283-0.14944-10.209-14.831-14.277-30.848-21.212-47.544-20.7z"/>
		<path d="m199.53,230.56c-2.7912,2.87-2.7112,7.4372,0.17888,10.22,2.9112,2.7714,7.5259,2.6825,10.326-0.1875,1.9051-1.9534,47.256-47.252,102.57,0.43327,1.385,1.184,3.0908,1.7764,4.7944,1.7764,2.044,0,4.0675-0.8389,5.5114-2.4861,2.6417-2.9992,2.333-7.5665-0.71553-10.18-65.643-56.594-122.09-0.14865-122.66,0.42431z"/>
		<path d="m415.75,361.27c4.8751-2.7669,8.1743-7.7831,8.1743-13.564v-154.84c0-8.7356-7.4648-15.843-16.635-15.843h-292.4c-9.1683,0-16.626,7.1071-16.626,15.843v154.85c0,6.0859,3.6592,11.32,8.96,13.974-82.318,105.08-11.152,109.76-11.152,109.76l167.33-0.15762,167.35,0.15762s62.79-15.403-14.99-110.18zm-300.87-167.79,292.42-0.61105,0.23926,154.18s-0.0694,0.0553-0.24832,0.0553l-292.41,0.61104v-154.23zm211.81,260.6h-131.19c-2.3111,0-4.1664-1.8347-4.1664-4.1138,0-2.2694,1.8553-4.1138,4.1664-4.1138h131.19c2.2908,0,4.1558,1.8444,4.1558,4.1138,0,2.2858-1.8643,4.116-4.1588,4.116z"/>
</svg>
