<?xml version="1.0" encoding="UTF-8" standalone="no"?>
<svg xmlns:rdf="http://www.w3.org/1999/02/22-rdf-syntax-ns#" xmlns="http://www.w3.org/2000/svg" xml:space="preserve" height="512" width="512" version="1.1" y="0px" x="0px" xmlns:cc="http://creativecommons.org/ns#" xmlns:dc="http://purl.org/dc/elements/1.1/" viewBox="0 0 512.00001 512.00001"><metadata><rdf:RDF><cc:Work rdf:about=""><dc:format>image/svg+xml</dc:format><dc:type rdf:resource="http://purl.org/dc/dcmitype/StillImage"/><dc:title/></cc:Work></rdf:RDF></metadata>
			<polygon points="323.87,128.19,300.29,135.32,307.42,158.93,331.04,151.78" transform="matrix(0.66224849,0,0,0.66143932,93.340702,158.99893)"/>
			<polygon points="305.14,163.98,289.65,168.66,294.23,184.2,309.84,179.53" transform="matrix(0.66224849,0,0,0.66143932,93.340702,158.99893)"/>
			<polygon points="291.67,187.47,269.18,194.27,275.94,216.74,298.43,209.96" transform="matrix(0.66224849,0,0,0.66143932,93.340702,158.99893)"/>
			<polygon points="376.33,155.32,356.04,169.27,369.96,189.62,390.3,175.63" transform="matrix(0.66224849,0,0,0.66143932,93.340702,158.99893)"/>
			<polygon points="369.27,195.17,355.94,204.29,365.12,217.69,378.57,208.45" transform="matrix(0.66224849,0,0,0.66143932,93.340702,158.99893)"/>
			<polygon points="363.6,221.58,344.26,234.87,357.48,254.24,376.88,240.98" transform="matrix(0.66224849,0,0,0.66143932,93.340702,158.99893)"/>
			<polygon points="275.09,119.53,280.97,95.584,257.04,89.697,251.12,113.64" transform="matrix(0.66224849,0,0,0.66143932,93.340702,158.99893)"/>
			<polygon points="230.82,112.97,226.94,128.7,242.65,132.55,246.65,116.82" transform="matrix(0.66224849,0,0,0.66143932,93.340702,158.99893)"/>
			<polygon points="200.21,124.55,194.57,147.35,217.35,152.92,223.04,130.16" transform="matrix(0.66224849,0,0,0.66143932,93.340702,158.99893)"/>
			<path d="m417.54,159h-60.639c-6.9444,0-12.712,4.9734-13.974,11.548-26.222,0.89824-63.346,19.706-69.178,31.01-6.6298,12.502,16.236,26.421,44.563,42.011,20.204,12.34,38.2,22.61,49.391,22.605,4.1357,0,7.3536-1.4029,9.4026-4.6254,6.8152-10.502,4.9596-50.689-6.694-74.101h47.13c7.8622,0,14.241-6.367,14.241-14.225,0-7.8639-6.3841-14.23-14.245-14.23z"/>
			<path d="m187.8,458.71c-36.987,0-67.053-30.042-67.053-66.971,0-21.017,9.7264-39.799,24.932-52.086l0.0649-32.177c-30.908,15.524-52.401,47.412-52.401,84.261,0,52.022,42.373,94.341,94.457,94.341,48.289,0,88.218-35.747,93.768-82.521l-27.714-0.2077c-5.5165,31.412-33.04,55.362-66.053,55.362z"/>
			<path d="m364.86,418.21c-3.4768-4.4667-9.9298-5.2578-14.418-1.7852l-18.85,14.65-50.477-83.401c-1.549-2.5465-4.0146-4.1664-6.7132-4.7273v-0.22226h-94.597v-21.467h48.696c7.5662,0,13.696-6.1216,13.696-13.683,0-7.5616-6.1298-13.683-13.696-13.683h-48.696v-41.368c14.946-4.7835,25.869-18.637,25.869-35.135,0-20.434-16.634-37.052-37.098-37.052-20.454,0-37.098,16.619-37.098,37.052,0,16.369,10.746,30.121,25.489,35.019v113.12h0.90927v0.01h110.05l50.672,83.718c0.34304,1.2594,0.94634,2.4678,1.7894,3.5612,1.4748,1.9083,3.5139,3.1346,5.6834,3.673,0.96491,0.27845,1.9569,0.4253,2.9576,0.4253,1.808,0,3.6444-0.4769,5.304-1.475,1.2523-0.7514,2.2728-1.7277,3.0596-2.8521l25.684-19.962c4.49-3.4792,5.2914-9.9216,1.8013-14.4z"/>
</svg>
