<?xml version="1.0" encoding="UTF-8" standalone="no"?>
<svg xmlns:rdf="http://www.w3.org/1999/02/22-rdf-syntax-ns#" xmlns="http://www.w3.org/2000/svg" xml:space="preserve" height="512" width="512" version="1.1" y="0px" x="0px" xmlns:cc="http://creativecommons.org/ns#" xmlns:dc="http://purl.org/dc/elements/1.1/" viewBox="0 0 512 512"><metadata><rdf:RDF><cc:Work rdf:about=""><dc:format>image/svg+xml</dc:format><dc:type rdf:resource="http://purl.org/dc/dcmitype/StillImage"/><dc:title/></cc:Work></rdf:RDF></metadata>
		<path d="m352.67,410.34c0.29589,2.0688,0.58367,4.0777,0.8728,6.0612l-0.87145-6.0605z"/>
		<path d="m398.88,353.28c-2.3502-7.796-10.819-14.09-22.65-16.834-6.3075-1.4614-12.736-1.6623-18.194-1.6623-3.2412,0-6.7169,0.0806-10.515,0.17402-3.3473,0.0793-7.0587,0.14648-10.978,0.18679v-70.046s-0.0878,0.0403-0.12159,0.0538c0.027-0.57447-0.007-1.1751-0.20199-1.7953-1.093-3.5174-5.28-4.6193-6.852-5.0265-27.776-5.5928-57.994-8.4565-92.076-8.8038,5.9927-7.9223,6.9452-19.496,5.9123-24.862-1.2882-6.6282-8.6172-7.4023-8.6172-7.4023,5.7576,6.26-2.1138,8.9705-2.744,14.236-0.41545,3.4105,1.9733,7.4218,1.1606,10.846-0.58367,2.4363-1.247,4.8054-1.9388,7.1221-0.21483,0-0.41545-0.007-0.62352-0.007-30.374,0-63.968,1.9559-103.3,6.0941-2.6968,0.77939-9.0049,2.6069-8.9779,7.2363,0.007,0.4468,0.0871,0.86136,0.20807,1.2551v157.12s5.7245,10.245,14.884,11.954c12.797,3.551,40.574,9.6182,75.478,11.287-2.5232,11.626-1.6774,20.517,2.5907,26.477,3.7378,5.2193,9.9588,7.6153,16.871,6.4878,12.321-2.0231,34.929-13.363,42.064-19.15,5.7975-4.706,10.294-10.052,12.401-12.734,0.22091-0.0202,0.44182-0.0343,0.66406-0.0343,0.3425-0.006,0.56341,0.0343,0.61069-0.0135,5.811,6.641,25.165,27.273,46.599,34.134,4.389,1.4083,8.3747,2.1151,11.858,2.1151,7.127,0,11.227-2.9772,13.407-5.48,5.3955-6.1868,4.316-14.931,4.1748-15.939-0.006-0.006-2.7042-18.069-6.4284-43.892l-1.6571-8.1293c-0.0743-0.13438-0.75187-1.3357-0.2486-2.9839,0.46883-1.5353,2.3212-4.5991,9.4488-7.9425,17.145-8.0493,33.217-27.947,33.6-28.454,4.364-4.5689,5.8502-10.112,4.2019-15.615zm-271.29-90.31c-0.20131-0.0538-0.40938-0.12026-0.63096-0.20022,0.42357-0.15991,0.91941-0.33326,1.4963-0.514,37.821-3.9313,70.662-5.8603,100.39-5.9268-3.148,9.0377-6.2548,15.632-6.2548,15.632l4.7639,0.30705c1.7794-2.3429,0.74647-8.7172,4.8997-15.933,35.332,0.0941,66.404,2.8771,94.657,8.4907-8.9725,3.4771-18.274,6.4005-27.863,8.7629-0.6573,0.16058-1.2552,0.2271-1.8314,0.25397-1.7382-1.3021-3.8256-2.2824-6.5169-3.0302-1.0133-0.28086-2.0462-0.42061-3.073-0.42061-4.4295,0-8.1402,2.5297-11.396,6.6276-0.97211,0.45421-1.9996,0.9541-3.0859,1.5091-12.361,1.6952-25.131,2.5431-38.252,2.5431h-0.0129c-59.578-0.0202-106.5-17.832-107.28-18.114zm259.33,99.192c-0.15335,0.18679-15.274,18.889-30.24,25.904-8.4206,3.9581-13.487,8.9114-15.045,14.725-1.2004,4.4647,0.0534,8.0822,0.95926,9.9246,4.1073,28.56,7.1742,49.059,7.1742,49.059,0.14727,1.034,0.28779,5.392-1.7645,7.7422-0.41614,0.47973-1.699,1.9418-5.6171,1.9418-2.4022,0-5.3347-0.54021-8.7037-1.6213-19.066-6.1082-36.89-25.277-42.077-31.224-0.0399-0.0397-0.10066-0.1075-0.13444-0.14714-1.2882-1.4809-3.7519-3.2439-8.1531-3.2439-2.4624,0-4.5572,0.54759-4.9531,0.6551l-1.7503,0.49384-1.0606,1.4748c-0.0197,0.0329-1.2423,1.716-3.2811,4.071-2.0948,2.4235-5.0666,5.5599-8.5429,8.3839-6.167,5.0049-26.883,15.284-37.218,16.973-2.8852,0.46697-5.3219-0.2607-6.7919-2.3086-1.3355-1.8773-3.5702-7.3694-0.45531-20.198,0.63635-2.6164,1.4092-5.4195,2.5488-8.6836,1.6179-4.6589,3.1284-8.7897,4.4701-12.468,7.2073-19.73,10.188-28.353-0.54922-33.479,0,0-28.032-22.7-31.24-27.974-3.2075-5.273-6.4014-10.225-4.7984-14.123,1.349-3.2775,7.2546-4.419,10.657-4.8128,4.9727-0.57379,10.422-0.8607,16.207-0.8607,15.414,0,29.165,2.0627,33.185,2.7232,0.86536,0.4878,1.9044,0.80762,3.1122,0.80762,4.9733,0,1.2491-2.1427,5.9866-14.71,1.4294-3.7848,3.9722-12.275,5.5435-17.087,3.3946-10.359,17.783-33.413,23.526-33.413h0.0149c4.4944,1.2417,12.541,4.2652,17.26,19.744l3.8654,15.959c5.1726,17.32,2.9129,29.041,23.481,29.041,1.4092,0,2.6697-0.0262,4.0066-0.0403,4.012-0.0336,7.7971-0.10617,11.219-0.18679,3.7114-0.086,7.1074-0.16663,10.274-0.16663,6.906,0,11.644,0.42061,15.851,1.3948,9.6575,2.2361,14.173,6.6753,15.113,9.7841,0.20942,0.71221,0.85794,2.8488-2.0874,5.9463z"/>
		<path d="m212.28,239.77c-6.8723-22.213-0.55665-26.197,8.0328-38.159,8.5895-11.96,36.635-12.148,36.635-12.148,4.1938,13.582-2.5772,50.306-2.5772,50.306,4.3762-5.1393,10.705-6.7142,13.462-14.096,3.2007-8.564,2.457-23.228,1.9996-33.32-0.85794-18.798-24.049-41.865-24.049-41.865,3.8654,18.796-11.1,18.155-40.801,44.639-29.699,26.487,7.3026,44.642,7.3026,44.642z"/>
		<path d="m303.33,368.78c-7.3012,2.1366-6.8723-2.2764-6.8723-2.2764s3.3358-10.885,1.1471-15.378c-3.6499-4.4856-15.763-5.9073-17.748-3.9319-1.9868,1.976-1.1477,11.334-1.1477,11.334v7.1214s-0.71877,4.839-6.3014,2.277c-5.584-2.5633-12.166-12.529-16.031-3.985,1.241-1.9566-7.5836,6.7935-3.7256,12.114,2.5779,3.5503,6.7311,4.4318,11.456,4.6918,4.7241,0.26002,16.461,4.4647,6.1393,6.6007-10.32,2.1366-12.582,7.923-9.5758,14.758,3.0068,6.8352,13.704,5.9013,17.18,0.85465,3.7249-5.4121,2.382-4.4184,3.7249-5.4121,1.343-0.99508,4.5362-11.054,7.6978-1.4291,1.6834,5.1259,6.0393,10.54,9.4758,7.9761,3.4365-2.5619,11.025-7.2625,6.3014-11.961-4.7254-4.6992-7.0128-3.8439-5.7252-6.8352,1.2883-2.9899,14.032,0.28757,16.609-0.56707,2.5772-0.85466,3.8384-11.967,0.40398-15.384-3.4588-3.4065-5.7286-2.6943-13.024-0.55767z"/>
</svg>
