<?xml version="1.0" encoding="UTF-8" standalone="no"?>
<svg xmlns:rdf="http://www.w3.org/1999/02/22-rdf-syntax-ns#" xmlns="http://www.w3.org/2000/svg" xml:space="preserve" height="512" width="512" version="1.1" y="0px" x="0px" xmlns:cc="http://creativecommons.org/ns#" xmlns:dc="http://purl.org/dc/elements/1.1/" viewBox="0 0 512 512"><metadata><rdf:RDF><cc:Work rdf:about=""><dc:format>image/svg+xml</dc:format><dc:type rdf:resource="http://purl.org/dc/dcmitype/StillImage"/><dc:title/></cc:Work></rdf:RDF></metadata>
		<path d="m274.86,115.46c3.6526,21.661-2.3886,32.971-32.983,54.572-52.36,29.259-51.901,76.661-47.687,79.123,13.467-73.64,116.93-84.954,80.666-133.69z"/>
		<path d="m266.92,186.36c-41.411,19.058-44.661,54.576-41.684,56.637,15.649-54.404,93.969-57.216,70.501-95.701,1.0825,16.422-4.2729,24.57-28.821,39.062z"/>
		<path d="m401.47,296.86c-10.03-17.953-35.41-19.837-57.576-17.495-3.3251-22.258-17.138-19.501-70.941-19.501h-87.695c-77.262,0-71.764-5.4614-71.764,71.49v75.456c0,39.478,32.113,71.483,71.764,71.483h87.695c39.643,0,71.764-32.006,71.764-71.483v-1.7486c52.073-52.55,69.25-85.869,56.752-108.21zm-267.28,131.79c0,1.6046-1.3118,2.9106-2.922,2.9106s-2.922-1.306-2.922-2.9106v-153.4c0-1.6046,1.3111-2.9105,2.922-2.9105s2.922,1.3059,2.922,2.9105v153.39zm241.79-117.66c0.0748,0.13549,4.0735,11.297-31.261,51.409v-31.054c0-8.6153,0.094-16.045,0.15026-22.72,16.707-1.9224,29.398-0.70228,31.114,2.3622z"/>
</svg>
