<?xml version="1.0" encoding="UTF-8" standalone="no"?>
<svg xmlns:rdf="http://www.w3.org/1999/02/22-rdf-syntax-ns#" xmlns="http://www.w3.org/2000/svg" xml:space="preserve" height="512" width="512" version="1.1" y="0px" x="0px" xmlns:cc="http://creativecommons.org/ns#" xmlns:dc="http://purl.org/dc/elements/1.1/" viewBox="0 0 512 512"><metadata><rdf:RDF><cc:Work rdf:about=""><dc:format>image/svg+xml</dc:format><dc:type rdf:resource="http://purl.org/dc/dcmitype/StillImage"/><dc:title/></cc:Work></rdf:RDF></metadata>
	<path d="m122.61,322.97c6.1039-4.5477,16.466-7.8276,31.086-9.8415v11.567c0,7.7758-2.4966,14.234-7.4666,19.384-4.9821,5.1514-10.869,7.7257-17.661,7.7257-3.7998,0-6.8751-1.247-9.2405-3.7515-2.3637-2.5096-3.5338-5.9709-3.5338-10.404,0.003-6.3302,2.2704-11.218,6.8155-14.681zm-60.917-143.96h389.15v274.38h-389.14v-274.38zm296.29,230.61-97.62-52.49c-2.9924-1.6037-6.7438-0.49398-8.3605,2.5148-1.6149,3.0027-0.49313,6.7473,2.5226,8.3648l97.612,52.49c0.92923,0.50089,1.9284,0.73664,2.919,0.73664,2.1953,0,4.3318-1.1754,5.4415-3.2514,1.6149-3.0053,0.49226-6.7533-2.5217-8.3682zm-18.835-87.232c0,12.323,3.558,22.188,10.7,29.614,7.1411,7.4261,16.32,11.139,27.539,11.139,15.308,0,25.21-8.2568,29.699-24.776l-5.6091-1.64c-4.7766,12.66-12.087,18.994-21.931,18.994-7.129,0-13.004-2.9734-17.611-8.9278-4.609-5.9476-6.901-14.704-6.901-26.26,0-12.128,2.5822-21.899,7.7689-29.317,3.6185-5.1151,8.9495-7.6722,15.97-7.6722,3.8482,0,6.8993,0.79018,9.1438,2.3645,2.2557,1.5795,3.3784,3.1962,3.3784,4.8603,0,0.63301-0.47067,1.4958-1.3869,2.5813-1.9543,2.298-2.931,4.704-2.931,7.2317,0,2.5217,0.89209,4.6738,2.678,6.4545,1.7738,1.779,3.9691,2.6651,6.5616,2.6651,2.6426,0,4.9337-1.0493,6.8647-3.1487,1.9172-2.1046,2.8827-4.7645,2.8827-7.9917,0-5.3491-2.5821-10.211-7.768-14.59-5.1747-4.3724-11.737-6.5625-19.687-6.5625-10.593,0-19.795,3.9328-27.623,11.785-7.8155,7.8587-11.728,18.921-11.728,33.197zm-131.15-117.69h3.6185c3.6314,0,6.4286,0.80832,8.4201,2.4189,1.9906,1.6097,2.9803,3.8292,2.9803,6.6462v91.429c0,7.2015-0.80832,14.109-2.425,20.724l3.4621,1.2047c3.052-3.3283,6.2119-7.6169,9.4926-12.852,4.2593,4.6608,8.408,7.9684,12.438,9.921,4.0278,1.9535,8.5151,2.9302,13.462,2.9302,10.422,0,19.155-4.0408,26.213-12.127,7.0444-8.0824,10.566-18.722,10.566-31.9,0-12.141-3.2808-21.93-9.8415-29.354-6.5625-7.4252-14.585-11.14-24.091-11.14-4.8854,0-9.4097,1.1874-13.546,3.5641-4.1513,2.3706-7.914,5.9588-11.317,10.76v-60.16l-29.433,1.4716v6.4718zm-54.3,90.47v12.261c-16.405,1.8403-29.542,5.5374-39.421,11.092-9.8666,5.5555-14.8,12.533-14.8,20.934,0,5.5857,2.159,10.164,6.477,13.728,4.318,3.571,10.615,5.3552,18.902,5.3552,5.8146,0,10.797-0.96377,14.933-2.8965,4.1504-1.9241,8.9503-5.7654,14.427-11.526,2.0148,5.3552,4.3543,9.0945,7.0331,11.223,2.678,2.1305,5.9718,3.197,9.8795,3.197,5.1263,0,9.7932-2.1598,13.994-6.477l-3.1124-4.8335c-2.4724,1.8403-4.837,2.7626-7.0798,2.7626-2.0148,0-3.6556-0.95255-4.9216-2.8525-1.2669-1.8394-1.8947-4.717-1.8947-8.6308v-44.203c0-5.9899-2.5329-11.08-7.5988-15.284-5.0658-4.1435-12.401-6.2188-22.015-6.2188-10.423,0-18.842,2.3645-25.26,7.0806-6.4165,4.723-9.6256,9.9279-9.6256,15.628,0,3.0519,0.9655,5.5546,2.8948,7.515,1.9301,1.9543,4.3309,2.9319,7.2136,2.9319,2.7022,0,4.8854-0.82042,6.5625-2.4612,1.6642-1.6408,2.4975-3.7523,2.4975-6.3457,0-1.7842-0.8325-3.824-2.4975-6.1281-1.3869-1.8455-2.0752-3.1962-2.0752-4.058,0-1.4958,1.2911-3.0217,3.8845-4.5788,3.6314-2.0692,7.9503-3.1064,12.956-3.1064,5.4035,0,9.8675,1.5562,13.377,4.6626,3.5148,3.109,5.2766,6.857,5.2766,11.227zm322.71-108.51v259.71c0,17.648-14.367,32.007-32.014,32.007h-377.58c-17.648,0.009-32.014-14.353-32.014-32.005v-259.71c0-17.648,14.367-32.008,32.014-32.008h377.57c17.652,0,32.014,14.361,32.014,32.008zm-5.0866,0c0-14.843-12.075-26.918-26.925-26.918h-377.56c-14.85,0-26.924,12.075-26.924,26.918v259.71c0,14.842,12.075,26.917,26.924,26.917h377.57c14.849,0,26.925-12.076,26.925-26.917v-259.71zm-212.31,134.85c5.8759,0,10.592-2.6426,14.161-7.9321,4.4872-6.6713,6.7438-16.188,6.7438-28.547,0-12.183-1.9785-21.024-5.9225-26.513s-8.8778-8.2396-14.802-8.2396c-6.5012,0-11.797,2.8343-15.886,8.4986-4.09,5.6635-6.1281,15.018-6.1281,28.063,0,12.419,2.0139,21.303,6.0434,26.646,4.033,5.3543,9.2923,8.0228,15.795,8.0228z"/>
</svg>
