<?xml version="1.0" encoding="UTF-8" standalone="no"?>
<svg xmlns:rdf="http://www.w3.org/1999/02/22-rdf-syntax-ns#" xmlns="http://www.w3.org/2000/svg" xml:space="preserve" height="512" width="512" version="1.1" y="0px" x="0px" xmlns:cc="http://creativecommons.org/ns#" xmlns:dc="http://purl.org/dc/elements/1.1/" viewBox="0 0 511.99999 511.99999"><metadata><rdf:RDF><cc:Work rdf:about=""><dc:format>image/svg+xml</dc:format><dc:type rdf:resource="http://purl.org/dc/dcmitype/StillImage"/><dc:title/></cc:Work></rdf:RDF></metadata>
		<path d="m277.42,168.91-16.646,107.47h130.87c0.007-50.415-62.577-107.47-114.22-107.47z"/>
		<path d="m348.86,376.35c26.766-22.543,43.998-56.244,43.998-94.222h-206.37c-3.7902-30.879-28.316-55.299-58.967-58.33-3.1145-8.982-11.707-15.492-21.962-15.492-12.864,0.00067-23.28,10.185-23.28,22.741,0,12.553,10.416,22.737,23.28,22.737,7.9826,0,15.017-3.9336,19.209-9.9136,20.542,1.7221,37.229,17.651,40.825,38.255h-15.911c0,37.977,17.233,71.673,43.998,94.215-27.769,3.6719-49.257,26.918-49.257,55.029,0,30.651,25.528,55.592,56.911,55.592,31.381,0,56.91-24.942,56.91-55.592,0-10.322-2.9461-19.953-7.9813-28.244,6.8249,1.24,13.827,1.9372,21.007,1.9372,7.1788,0,14.174-0.69057,20.991-1.9285-5.0352,8.2828-7.982,17.921-7.982,28.235,0,30.651,25.528,55.592,56.918,55.592,31.382,0,56.911-24.942,56.911-55.592,0.007-28.102-21.484-51.343-49.247-55.019zm-147.52,100.5c-25.674,0-46.568-20.401-46.568-45.483s20.895-45.475,46.568-45.475c25.672,0,46.567,20.393,46.567,45.475,0,25.079-20.897,45.483-46.568,45.483zm139.87,0c-25.68,0-46.576-20.401-46.576-45.483,0-25.075,20.895-45.475,46.576-45.475,25.672,0,46.568,20.399,46.568,45.475,0,25.079-20.897,45.483-46.568,45.483z"/>
</svg>
