<?xml version="1.0" encoding="UTF-8" standalone="no"?>
<!-- Generator: Adobe Illustrator 17.1.0, SVG Export Plug-In . SVG Version: 6.00 Build 0)  -->
<svg id="Layer_1" xmlns:rdf="http://www.w3.org/1999/02/22-rdf-syntax-ns#" xmlns="http://www.w3.org/2000/svg" xml:space="preserve" viewBox="0 0 160.113 190.461" height="190.46" width="160.11" version="1.1" y="0px" x="0px" xmlns:cc="http://creativecommons.org/ns#" xmlns:dc="http://purl.org/dc/elements/1.1/"><metadata id="metadata1121"><rdf:RDF><cc:Work rdf:about=""><dc:format>image/svg+xml</dc:format><dc:type rdf:resource="http://purl.org/dc/dcmitype/StillImage"/><dc:title/></cc:Work></rdf:RDF></metadata>
<g id="g3" transform="matrix(0.26162255,0,0,0.26162578,-58.917398,-77.651809)">
	<path id="path5" d="m728.1,382c-26.9-26.9-57.2-47.9-90-62.4-34.2-15.1-70.1-22.8-106.9-22.8-41.8,0-82.2,9.8-120.3,29.2-36.5,18.5-69.2,45-97.2,78.7-57.1,68.6-88.5,159.5-88.5,256.1,0,107.8,39.8,209.4,109.1,278.8,26.9,26.9,57.2,47.9,90,62.4,34.2,15.1,70.1,22.8,106.9,22.8s72.7-7.7,106.9-22.8c32.8-14.5,63.1-35.5,90-62.4,69.4-69.4,109.1-171,109.1-278.8s-39.8-209.4-109.1-278.8z"/>
	<path id="path7" fill="#FFF" d="m531.2,1018.4c35.9,0,71-7.5,104.3-22.2,32.1-14.2,61.7-34.8,88-61.1,68.2-68.2,107.3-168.1,107.3-274.2s-39.1-206.1-107.3-274.2c-26.3-26.3-55.9-46.9-88-61.1-33.3-14.8-68.4-22.2-104.3-22.2-40.7,0-80.2,9.6-117.4,28.5-35.7,18.2-67.7,44.1-95.2,77.1-56.1,67.4-87,156.9-87,252,0,106.1,39.1,206.1,107.3,274.2,26.3,26.3,55.9,46.9,88,61.1,33.4,14.6,68.5,22.1,104.3,22.1z"/>
	<path id="path9" d="m717,393.1c-25.5-25.5-54.2-45.4-85.2-59.2-32.1-14.2-66-21.5-100.6-21.5-39.3,0-77.3,9.2-113.2,27.5-34.6,17.6-65.6,42.7-92.3,74.8-54.7,65.8-84.9,153.2-84.9,246.1,0,103.7,38.1,201.3,104.6,267.7,25.5,25.5,54.2,45.4,85.2,59.2,32.1,14.2,66,21.5,100.6,21.5s68.4-7.2,100.6-21.5c31-13.7,59.7-33.7,85.2-59.2,66.4-66.4,104.6-164,104.6-267.7s-38.1-201.3-104.6-267.7z"/>
	<path id="path11" fill="#FFF" d="m640.2,520.6c-32.3,0-110.9,24-114.2,25-0.4,0.1-0.7,0.3-1,0.5v-0.1c-0.4-2.3-4.7-23.1-16.1-46.4,15.7-6.6,95.1-38.4,157.9-34.3,31.4,27.3,38.1,60.6,38.1,66.1,0,1.3-0.1,2.5-0.2,3.6-11.4-7.1-33.9-14.4-64.5-14.4z"/>
	<path id="path13" fill="#FFF" d="m401.2,456.4c7.7-11.7,12.6-19.1,25.3-31.1,33.2-31.4,76.6-52.6,129.5-63.8,2.1-0.4,2.1,1.5,2.1,1.5l-1.5,40.4c-7.4,0-14.7,0.2-21.7,0.6,5.5-1.6,10.5-5,16.2-6.4-11.6,2.8-23.4,4.2-34.2,8-7.4,0.9-14.6,2-21.6,3.4,15.4-7,31.5-14.7,49.1-19.2-24.1,6.2-46.9,12.8-66.8,23.5-7.9,2.2-15.4,4.9-22.6,7.9,23.4-16.3,50.1-30.9,80.9-39.6-37.9,10.7-77.2,29.1-104.2,51.3,21.6-21.5,43.2-37.1,72.3-49.2-40.9,16.7-77.9,42.5-102.8,72.7z"/>
	<path id="path15" fill="#FFF" d="m432.7,440.7c0-1.7,0.4-2.8,1.1-3.4,1.1-0.8,3.1-0.6,4-0.4,2.4,1.1,22.9,11.1,37.5,25.1,33.6,32,44,84.6,44.1,85.2,0,0.1,0,0.2,0.1,0.3,7.1,24.1,9.1,38,6.2,42.6-1.1,1.7-3,2.2-6.2,2.7h-0.3c-6.1,1.1-13.6,3.7-21.5,6.4-4.1,1.4-8.3,2.8-12.6,4.2-7.9,2.5-9.7-1.1-11.8-7.3-0.3-0.8-0.5-1.6-0.8-2.3-30.2-75.1-39.8-141.1-39.8-153.1z"/>
	<path id="path17" fill="#FFF" d="m701.5,541.6c-0.2,0.1-0.3,0.3-0.5,0.4-3.8,2.7-9.7,1-11.2,0.6,0.5-2.7,1.4-4.8,2-6,3.9,1.6,7.1,3.3,9.7,5z"/>
	<path id="path19" fill="#FFF" d="m515.5,444.9c-13.1,3.9-23.2,10.2-24,10.5,0.2-0.1,11.4-2.5,24.6-6.4s37.4-10.1,46.9-11.4c-9.7,1.3-34.4,3.4-47.5,7.3z"/>
	<path id="path21" fill="#FFF" d="m520.6,450.7c-13.1,3.9-23.2,10.2-24.1,10.5,0.2-0.1,11.4-2.5,24.6-6.4,13.1-3.9,37.4-10.1,46.9-11.4-9.7,1.2-34.3,3.4-47.4,7.3z"/>
	<path id="path23" fill="#FFF" d="m523.3,457.1c-13.1,3.9-23.2,10.2-24,10.5,0.2-0.1,11.4-2.5,24.6-6.4s37.4-10.1,46.9-11.4c-9.8,1.2-34.4,3.4-47.5,7.3z"/>
	<path id="path25" fill="#FFF" d="m527,463.5c-13.1,3.9-23.2,10.2-24,10.5,0.2-0.1,11.4-2.5,24.6-6.4s37.4-10.1,46.9-11.4c-9.7,1.3-34.3,3.4-47.5,7.3z"/>
	<path id="path27" fill="#FFF" d="m535.1,467.8c-13.1,3.9-23.2,10.2-24,10.5,0.2-0.1,11.4-2.5,24.6-6.4s37.4-9.3,46.9-10.6c-9.7,1.2-34.4,2.6-47.5,6.5z"/>
	<path id="path29" fill="#FFF" d="m540.7,474.6c-11.8,3.6-20.8,9.3-21.6,9.6,0.2-0.1,10.3-2.3,22.1-5.9s33.6-8.3,42.1-9.5c-8.7,1.2-30.8,2.3-42.6,5.8z"/>
	<path id="path31" fill="#FFF" d="m505.8,440.9c-10.2,2.8-18,7.5-18.7,7.7,0.2-0.1,8.9-1.9,19.1-4.7,10.2-2.9,29.1-8.6,36.4-9.5-7.5,0.9-26.7,3.6-36.8,6.5z"/>
	<path id="path33" fill="#FFF" d="m417.4,528.1c-4.9,3.2-8.3,7-8.6,7.3,0.1-0.1,5.2,0.1,10.1-3.1s12.9-11.9,16.6-13.6c-3.7,1.6-13.2,6.2-18.1,9.4z"/>
	<path id="path35" fill="#FFF" d="m417.7,519.6c-4.9,3.2-8.2,7-8.6,7.3,0.1-0.1,5.2,0.1,10.1-3.1s12.9-11.9,16.6-13.6c-3.7,1.6-13.2,6.2-18.1,9.4z"/>
	<path id="path37" fill="#FFF" d="m416.6,510.8c-4.3,2.6-7.2,5.8-7.5,6,0.1,0,4.6,0.1,8.9-2.6,4.3-2.6,11.3-9.8,14.6-11.2-3.3,1.4-11.7,5.2-16,7.8z"/>
	<path id="path39" fill="#FFF" d="m414.9,503.3c-3.8,2.3-6.5,5-6.7,5.2,0.1,0,4.1,0.1,8-2.2,3.8-2.3,10.2-8.5,13.1-9.8-3.1,1.2-10.6,4.5-14.4,6.8z"/>
	<path id="path41" fill="#FFF" d="m416.4,493.9c-3.2,1.8-5.4,4-5.7,4.1,0.1,0,3.5,0.1,6.7-1.8,3.2-1.8,8.5-6.8,11-7.8-2.5,1-8.8,3.6-12,5.5z"/>
	<path id="path43" fill="#FFF" d="m416.1,485.3c-3.2,1.8-5.4,4-5.7,4.1,0.1,0,3.5,0.1,6.7-1.8,3.2-1.8,8.5-6.8,11-7.8-2.5,1.1-8.8,3.7-12,5.5z"/>
	<path id="path45" fill="#FFF" d="m421.8,472.6c-2.2,1.2-3.8,2.6-3.9,2.6l4.7-1.1c2.3-1.2,6-4.3,7.6-5-1.7,0.7-6.1,2.3-8.4,3.5z"/>
	<path id="path47" fill="#FFF" d="m475.3,424.2c-2.4,0.8-4.1,2-4.3,2.1,0,0,2.4,0.4,4.8-0.5s6.5-3.5,8.3-3.9c-1.8,0.4-6.4,1.5-8.8,2.3z"/>
	<path id="path49" fill="#FFF" d="m421.2,534.7c-4.9,3.2-8.2,7-8.6,7.3,0.1-0.1,5.2,0.1,10.1-3.1s12.9-11.9,16.6-13.6c-3.7,1.6-13.3,6.2-18.1,9.4z"/>
	<path id="path51" fill="#FFF" d="m424.8,540.3c-4.9,3.2-8.2,7-8.6,7.3,0.1-0.1,5.2,0.1,10.1-3.1s12.9-11.9,16.6-13.6c-3.7,1.6-13.3,6.2-18.1,9.4z"/>
	<path id="path53" fill="#FFF" d="m426.5,547.8c-3.8,2.5-6.5,5.6-6.7,5.8,0.1,0,4.1,0.1,7.9-2.5s10.1-9.5,13-10.8c-2.9,1.3-10.4,5-14.2,7.5z"/>
	<path id="path55" fill="#FFF" d="m426.7,557.4c-3.8,2.5-6.5,5.6-6.7,5.8,0.1,0,4.1,0.1,7.9-2.5s10.1-9.5,13-10.8c-2.9,1.3-10.3,4.9-14.2,7.5z"/>
	<path id="path57" fill="#FFF" d="m425.3,567.1c-3.5,2.9-5.8,6.2-6.1,6.5,0.1,0,4.1-0.4,7.6-3.3,3.5-3,9.1-10.5,11.8-12.2-2.8,1.6-9.8,6.1-13.3,9z"/>
	<path id="path59" fill="#FFF" d="m499.3,436c-8.4,2.3-14.9,6.1-15.4,6.3,0.1,0,7.3-1.5,15.8-3.9s24-7,30.1-7.8c-6.2,0.8-22.1,3-30.5,5.4z"/>
	<path id="path61" fill="#FFF" d="m496.2,431.2c-5.6,1.8-9.9,4.7-10.3,4.9,0.1,0,4.9-1.2,10.5-3s16-5.5,20-6.1c-4.1,0.7-14.6,2.4-20.2,4.2z"/>
	<path id="path63" fill="#FFF" d="m546.1,479.6c-11.8,3.6-20.8,9.3-21.6,9.6,0.1,0,2.6-0.6,6.6-1.6,12.7-4.6,29.2-10,47.3-14.6-10.3,1.6-23.9,4-32.3,6.6z"/>
	<path id="path65" fill="#FFF" d="m585.3,415.7c-3.9,1.1-6.4,2.1-6.8,2.1,0.1,0,4.7-0.2,11.5-0.7-1.5-0.5-3.1-1-4.7-1.4z"/>
	<path id="path67" fill="#FFF" d="m657.3,457.5c-8.9,0.6-15.5,2.1-16.2,2.1,0.2,0,9.1,1,20.6,1.6-1.5-1.3-3-2.5-4.4-3.7z"/>
	<path id="path69" fill="#FFF" d="m639,443.4c-9.4,1.3-16.2,3.5-16.9,3.5,0.2,0,9.6,0.2,21.5-0.2-1.5-1.1-3.1-2.2-4.6-3.3z"/>
	<path id="path71" fill="#FFF" d="m619.4,430.5c-8.1,1.8-13.8,4-14.4,4.1,0.2,0,8.4-0.3,19.1-1.3-1.6-1-3.1-1.9-4.7-2.8z"/>
	<path id="path73" fill="#FFF" d="m627.9,435.7c-8.3,1.8-14.2,4.1-14.9,4.2,0.2,0,8.5-0.3,19.3-1.3-1.5-0.9-2.9-1.9-4.4-2.9z"/>
	<path id="path75" fill="#FFF" d="m608.3,424.5c-5.8,1.5-9.7,3-10.3,3.1,0.2,0,6.2-0.2,14.6-0.9-1.4-0.7-2.9-1.4-4.3-2.2z"/>
	<path id="path77" fill="#FFF" d="m649.3,451.1c-9.1,0.6-15.7,2.1-16.5,2.1,0.2,0,9.4,1,21.1,1.6-1.5-1.3-3.1-2.5-4.6-3.7z"/>
	<path id="path79" fill="#FFF" d="m597.5,419.8c-5.7,1.5-9.5,3-10.1,3,0.2,0,6.4-0.2,15.1-0.9-1.6-0.7-3.3-1.4-5-2.1z"/>
	<path id="path81" fill="#FFF" d="m555.5,731.7s3.5-2.9,5.4-3.2c1.8-0.3-0.9,3.2-5.4,3.2z"/>
	<path id="path83" fill="#FFF" d="m690.9,607.5c-2.7-5-5.2-9.7-6.7-13.1-0.9-2-1.5-3.6-2-5h-0.1c-2.8-5.8-7.4-13.1-7-17.8s1.5-6.4-1.1-7.5c-2.5-1.1-4.3-2.9-4.9-2.3-0.7,0.7-4,1.7-4.7,0.7-0.7-1.1-2.5-2-3.6-1.6,0,0,2.1,2.5-0.8,4s-3.9,0.9-4,1.9c-0.1,0.9-4.1,0.7-3.6,1.9s1.9,3.3,0.8,3.5-6.7,2.5-10.2,4.5,2.3,0.1,5.4-1.1,0.9,3.5-1.2,4.3-9,4.4-13,6c0,0,0.4-4.7-0.8-4.4s0-2.4,0.8-3.2,0.8-2.5-2.4-2-2.5,1.6-7.2,1.6-12.2-1.5-17.5-5.6c0,0-0.8,0.1-4.3,0.1s-5.1,4.8-1.1,4.8c0,0,2.1,1.6-0.5,2.9-2.7,1.3-2.7-2.1-2.7-2.1l-12.3,2.9s3.2-2.7,5.4-5.6c0,0-5.4,0.3-9.9,2.7,0,0,13.6-11.5,38.8-17.4,0,0-4.5-2.1-16.6,0.8,0,0,9.1-7,23.8-5.9,0,0-7.8-5.9-8.3-9.4h-10.4s1.1-2.9-7.8-1.1c-8.8,1.9-13.6,2.4-13.6,2.4s16.6-1.1,7.5,2.1-37.2,12.6-56.7,23c0,0,9.1-2.9,14.4-2.9,0,0-10.7,7-15.5,10.4l8.6-0.5s-19.5,10.4-5.1,8.6c0,0-19,11.5-3.2,8.3,0,0-19.5,12,2.1,5.9,0,0-28.6,15.8,4,6.4,0,0-32.9,15.5,0.8,7.8,0,0-30,16.9-2.4,9.1,0,0-11,5.1-22.2,16.6,0,0,28.6-14.4,42-15,0,0-26,8.8-42.3,25.7,0,0,19.8-13.1,43.3-17.9,0,0-43.6,20.3-57,41.7h0.8s31.6-33.2,66.6-36.1c0,0-47.4,14.2-65.8,44.4l1.9,1.1s23-30.5,61.3-36.7c0,0-40.1,18.7-56.2,39.3l1.3,2.4s19.5-25.2,54-32.4c0,0-42.3,22.2-53.8,39.9l2.9,1.6s23.5-28.1,46.6-31.6c0,0-30.5,17.1-41.2,32.6l1.9,1.3s12.8-15,32.9-21.9c0,0-16.9,9.9-29.4,26l2.4,1.3s12.8-10.2,26.5-17.4c0,0-16.3,13-20.3,19.7l3.2,2.4s7.2-5.2,15.8-8.2c8.6-2.9-10.7,10.6-13.4,14l1.1,0.8s7.5-5.5,15.3-9.5,3.9,0.9-9.5,13l2.7,1.3s24.5-13.1,7.4,1.9c0,0,4.3,4.4,13.1-4.1,8.8-8.6,0,6.7-8.3,11.5s6.7,1.3,16.9-7.8,4.3,2.9,2.1,4.5c-2.1,1.6-7,5.6-7,5.6s10.7-2.4,19.8-10.7,2.7,2.1,0,4.3c-2.7,2.1-4.5,4.8-10.4,8.6,0,0,9.4-0.8,17.7-9.6s4.3,4.3-5.4,10.7c0,0,2.4,3.2,19.3-9.6s-8.8,11.8-8.8,11.8,1.2,3.6,13.1-7c9.6-8.6-2.1,7.8-2.1,7.8s2.7,2.7,11.5-3.5c8.4-5.9,3.2,2.4,1.6,3.7s8,1.3,11.8-3.2c3.7-4.5,4,1.9,2.1,3.7-1.9,1.9,3.2,1.9,8.6-2.7,5.4-4.5,1.3,3.7,0.5,4.5s2.4,1.9,6.4-1.3,3.2,2.4,1.3,3.5,1.9,2.8,4,0.8c4.7-4.5,0.5,4.6,2.8,6,8.9-4.4,10-8.5,11.1-15.6,1-6.6-3-17.5-5.6-23.6-3.4-1.2-7.9,0.5-7.9,0.5-10.2,3.7-1.6-2.7-3.7-2.1-2.1,0.5-8.3,1.3-5.1-1.1s5.9-5.6,5.9-5.6l0.4,0.1c0.5-0.2,1-0.3,1.6-0.3,7,0.9,11.6-0.1,13.7-3s1.7-7.7,0.6-11.9c-4.9-4.3-22.1-7.7-25.9-7.7-4,0-12.6,3.5-16.9,3.5s-4.3-2.4-2.1-3.2c2.1-0.8,9.1-2.7,12.3-4.5,3.2-1.9,13.6-4,17.1-4s7.5,2.1,9.9,2.1c2.3,0,5.4,0,6.8-2.7,0.3-1.6,0.4-3.6-0.2-6-0.1-0.5-0.2-1-0.3-1.6-1.1,0.7-2.6,2.1-5.8,3-4.8,1.3-4.5-2.9-4.5-2.9-4,1.6-2.4-4.3-2.4-4.3-5.1,1.9-1.9-4.8-1.9-4.8-7.5,1.9-1.9-5.4-1.9-5.4-11.2,5.1-5.6-2.9-5.6-2.9-9.4,2.1-7.8-1.9-7.8-1.9-5.4,1.6-4-2.9-4-2.9-1.6,0.5-6.7,0.5-4.8-3.7,1.9-4.3,6.2-3.7,6.2-3.7,0.3,3.7,3.2,2.4,6.7,2.1s6.2-2.1,5.4-1.1c-3.4,4.5,4.8,1.9,7,0,2.1-1.9,6.2-1.6,5.4-0.5-4.1,5.5,1.6,3.2,7.2,0.5s2.9,2.4,2.9,2.4-3.5,2.9,2.1,0.5c6.3-2.7,6.4,0.9,6.2,2.1,3.7-0.2,9-1.2,10.1-5.2,1-4.9-7.3-20.3-12.8-30.5z"/>
	<path id="path85" d="m651.5,709.9s6.4,1.1,11-3.2,0.3-3.2-1.9-2.4-6.5,2.4-9.1,5.6z"/>
	<path id="path87" d="m648.2,704.5s8.2,0.5,7.5-4c-0.2-1.6-4.8,1.6-7.5,4z"/>
	<path id="path89" d="m641.3,701.9l7.5-3.2c3.1-6.4-6.2,1.6-7.5,3.2z"/>
	<path id="path91" d="m636.7,698.6s6.7-0.8,5.6-3.7c-1-2.9-5,2.4-5.6,3.7z"/>
	<path id="path93" d="m677.6,694.1s0.3,4.5-0.8,6.7c0,0,4.5-1.4,0.8-6.7z"/>
	<path id="path95" d="m673.9,700.3s2.9-3.5,1.1-6.2c-1.9-2.7-1.1,6.2-1.1,6.2z"/>
	<path id="path97" d="m671.3,699.2s-1.1-2.4-1.1-4.3-2.7,1.6,1.1,4.3z"/>
	<path id="path99" fill="#FFF" d="m643.2,640.1s-0.3-3.2-2.4-3.2c0,0,1.3,1.6-0.8,4-2.2,2.4,3.2-0.8,3.2-0.8z"/>
	<path id="path101" d="m569.6,704.8s3.5-2.9,5.4-3.2c1.8-0.3-0.9,3.2-5.4,3.2z"/>
	<path id="path103" d="m558.9,701.7s3.5-2.9,5.4-3.2c1.8-0.3-0.9,3.2-5.4,3.2z"/>
	<path id="path105" d="m570.6,715.6s3.5-2.9,5.4-3.2-0.8,3.2-5.4,3.2z"/>
	<path id="path107" d="m580.3,717s3.5-2.9,5.4-3.2c1.8-0.3-0.9,3.2-5.4,3.2z"/>
	<path id="path109" d="m590.2,719.8s2.1-1.3,3.2-2.4,1.1,4-3.2,2.4z"/>
	<path id="path111" d="m578.7,708.5s2.1-1.3,3.2-2.4,1.1,4.1-3.2,2.4z"/>
	<path id="path113" d="m564.8,688.5s2.1-1.3,3.2-2.4,1.1,4-3.2,2.4z"/>
	<path id="path115" d="m564.5,678.8s2.1-1.3,3.2-2.4c1.1-1,1.1,4.1-3.2,2.4z"/>
	<path id="path117" d="m629.3,731.6s2.1-1.3,3.2-2.4c1-1.1,1,4-3.2,2.4z"/>
	<path id="path119" d="m638.3,735.3s2.1-1.3,3.2-2.4,1.1,4-3.2,2.4z"/>
	<polygon id="polygon121" points="578.4,682.3,576.3,682.3,575.2,683.7,578.1,683.9"/>
	<polygon id="polygon123" points="582.7,697.2,580.6,697.2,579.5,698.6,582.4,698.9"/>
	<polygon id="polygon125" points="622.3,717.9,620.2,717.9,619.1,719.3,622,719.5"/>
	<polygon id="polygon127" points="616.1,724.1,614,724.1,612.9,725.4,615.9,725.7"/>
	<path id="path129" fill="#9a9a9a" d="m731.7,417.4c-0.8-0.9-1.5-1.8-2.3-2.7h-129.7c2.1,0.8,4.3,1.7,6.4,2.7h125.6z"/>
	<path id="path131" fill="#9a9a9a" d="M710.8,394.9c-0.9-0.9-1.8-1.8-2.8-2.7h-125.8l-0.8,2.7h129.4z"/>
	<path id="path133" fill="#9a9a9a" d="m737.8,424.9c-0.7-0.9-1.4-1.8-2.2-2.7h-119.7c1.6,0.9,3.3,1.8,4.9,2.7h117z"/>
	<path id="path135" fill="#9a9a9a" d="m718.2,402.4c-0.9-0.9-1.7-1.8-2.6-2.7h-135.5l-0.8,2.7h138.9z"/>
	<path id="path137" fill="#9a9a9a" d="m685,372.3c-1.2-0.9-2.4-1.8-3.5-2.7h-92.8l-0.8,2.7h97.1z"/>
	<path id="path139" fill="#9a9a9a" d="m674.9,364.8c-1.3-0.9-2.6-1.8-3.9-2.7h-80.2l-0.8,2.7h84.9z"/>
	<path id="path141" fill="#9a9a9a" d="m694.3,379.8c-1.1-0.9-2.2-1.8-3.3-2.7h-104.5l-0.8,2.7h108.6z"/>
	<path id="path143" fill="#9a9a9a" d="m702.9,387.4c-1-0.9-2-1.8-3-2.7h-115.5l-0.8,2.7h119.3z"/>
	<path id="path145" fill="#9a9a9a" d="m775.7,485c-0.4-0.9-0.9-1.8-1.3-2.7h-84.4c0.7,0.9,1.3,1.8,1.9,2.7h83.8z"/>
	<path id="path147" fill="#9a9a9a" d="m763.5,462.5c-0.5-0.9-1.1-1.8-1.6-2.7h-93c1.1,0.9,2.1,1.8,3.1,2.7h91.5z"/>
	<path id="path149" fill="#9a9a9a" d="m782.8,500c-0.4-0.9-0.8-1.8-1.2-2.7h-82.2c0.5,0.9,0.9,1.8,1.4,2.7h82z"/>
	<path id="path151" fill="#9a9a9a" d="m779.3,492.5c-0.4-0.9-0.8-1.8-1.3-2.7h-83c0.6,0.9,1.1,1.8,1.6,2.7h82.7z"/>
	<path id="path153" fill="#9a9a9a" d="m749,440c-0.6-0.9-1.3-1.8-1.9-2.7h-107c1.2,0.9,2.5,1.8,3.7,2.7h105.2z"/>
	<path id="path155" fill="#9a9a9a" d="m743.6,432.4c-0.7-0.9-1.3-1.8-2-2.7h-112.8c1.4,0.9,2.8,1.8,4.2,2.7h110.6z"/>
	<path id="path157" fill="#9a9a9a" d="m758.9,455c-0.6-0.9-1.1-1.8-1.7-2.7h-97.4c1.1,0.9,2.2,1.8,3.3,2.7h95.8z"/>
	<path id="path159" fill="#9a9a9a" d="m754.1,447.5c-0.6-0.9-1.2-1.8-1.8-2.7h-102c1.2,0.9,2.3,1.8,3.5,2.7h100.3z"/>
	<path id="path161" fill="#9a9a9a" d="m771.9,477.5c-0.5-0.9-1-1.8-1.4-2.7h-86.5c0.8,0.9,1.5,1.8,2.2,2.7h85.7z"/>
	<path id="path163" fill="#9a9a9a" d="m805,755.5c0.2-0.9,0.4-1.8,0.6-2.7h-123.3c-0.9,0.9-1.9,1.8-3.1,2.7h125.8z"/>
	<path id="path165" fill="#9a9a9a" d="m808.3,740.4c0.2-0.9,0.4-1.8,0.5-2.7h-120.7c0,0.4-0.1,0.8-0.1,1.2-0.1,0.5-0.2,1-0.2,1.5h120.5z"/>
	<path id="path167" fill="#9a9a9a" d="m803.1,763c0.2-0.9,0.5-1.8,0.7-2.7h-133.4c-2,0.8-4.2,1.7-6.7,2.6-0.1,0-0.2,0.1-0.3,0.1h139.7z"/>
	<path id="path169" fill="#9a9a9a" d="m815.8,650.3c0-0.9,0-1.8-0.1-2.7h-114.6c-3.7,1.4-7.7,1.6-10.1,1.5-0.1,0.3-0.3,0.7-0.4,1.2h125.2z"/>
	<path id="path171" fill="#9a9a9a" d="M811.8,602.5h-117.2c0.4,0.7,0.8,1.5,1.2,2.3,0.1,0.1,0.2,0.3,0.2,0.4h116.1c0-0.9-0.1-1.8-0.3-2.7z"/>
	<path id="path173" fill="#9a9a9a" d="m663.6,357.3c-1.4-0.9-2.9-1.8-4.4-2.7h-66.2l-0.8,2.7h71.4z"/>
	<path id="path175" fill="#9a9a9a" d="m721.5,790.3h-71.3v1.2c0,0.4,0.1,1,0.2,1.5h68.9c0.7-0.9,1.4-1.8,2.2-2.7z"/>
	<path id="path177" fill="#9a9a9a" d="m734.9,784.7c2.4,0,4.4,0.3,6.2,0.8h55.4c0.3-0.9,0.6-1.8,0.9-2.7h-147.4v2.7h79.2c1.7-0.5,3.6-0.8,5.7-0.8z"/>
	<path id="path179" fill="#9a9a9a" d="m704.9,805.4h-47.1c0.3,0.4,0.7,0.7,1,1.1,0.5,0.5,1.1,1.1,1.7,1.6h40.6c1.3-1,2.5-1.9,3.8-2.7z"/>
	<path id="path181" fill="#9a9a9a" d="m636.5,342.3c-1.9-0.9-3.9-1.8-5.8-2.7h-33.3l-0.6,1.9c0,0.1-0.1,0.2-0.1,0.2l-0.2,0.6h40z"/>
	<path id="path183" fill="#9a9a9a" d="m748.7,790.3c0.8,1,1.4,1.9,1.8,2.7h43.5c0.3-0.9,0.6-1.8,0.9-2.7h-46.2z"/>
	<path id="path185" fill="#9a9a9a" d="m651,349.8c-1.6-0.9-3.3-1.8-4.9-2.7h-50.9l-0.8,2.7h56.6z"/>
	<path id="path187" fill="#9a9a9a" d="m766.3,467.3h-89.2c0.9,0.9,1.8,1.8,2.6,2.7h88.1c-0.5-0.9-1-1.8-1.5-2.7z"/>
	<path id="path189" fill="#9a9a9a" d="m807,575.2c-0.2-0.9-0.4-1.8-0.6-2.7h-111.8c-0.1,0.1-0.2,0.2-0.3,0.3-0.8,0.7-1.9,0.9-2.9,0.6-1.2-0.4-3.4-0.8-4.4-0.1-0.5,0.3-0.6,1.1-0.7,1.9h120.7z"/>
	<path id="path191" fill="#9a9a9a" d="M808,580h-121.8v0.1c-0.1,1-0.1,1.8-0.1,2.6h122.4c-0.2-0.9-0.3-1.8-0.5-2.7z"/>
	<path id="path193" fill="#9a9a9a" d="M722.7,407.2h-144.8l-0.2,0.8c2.6,0.6,5.1,1.2,7.7,1.9h139.8c-0.8-0.9-1.6-1.8-2.5-2.7z"/>
	<path id="path195" fill="#9a9a9a" d="m815.1,687.9c0.1-0.9,0.1-1.8,0.2-2.7h-129c0.3,0.8,0.6,1.7,0.9,2.7h127.9z"/>
	<path id="path197" fill="#9a9a9a" d="m813,710.4c0.1-0.9,0.2-1.8,0.3-2.7h-128.3c-1.1,1.1-2.4,2-3.9,2.7h131.9z"/>
	<path id="path199" fill="#9a9a9a" d="m813.8,702.9c0.1-0.9,0.2-1.8,0.3-2.7h-125.6c-0.1,0.9-0.3,1.8-0.6,2.7h125.9z"/>
	<path id="path201" fill="#9a9a9a" d="m812,717.9c0.1-0.9,0.2-1.8,0.4-2.7h-129.3c0.3,0.8,0.7,1.7,1,2.7h127.9z"/>
	<path id="path203" fill="#9a9a9a" d="m810.9,725.4c0.1-0.9,0.3-1.8,0.4-2.7h-125.5c0.3,0.9,0.5,1.8,0.8,2.7h124.3z"/>
	<path id="path205" fill="#9a9a9a" d="m814.5,695.4c0.1-0.9,0.1-1.8,0.2-2.7h-126.4c0.2,0.9,0.3,1.8,0.3,2.7h125.9z"/>
	<path id="path207" fill="#9a9a9a" d="m815.5,680.3c0-0.9,0.1-1.8,0.1-2.7h-127.2c-0.4,1-0.8,1.9-1.2,2.7h128.3z"/>
	<path id="path209" fill="#9a9a9a" d="m815.9,665.3v-2.7h-127.7c0,0.9,0.1,1.8,0.2,2.7h127.5z"/>
	<path id="path211" fill="#9a9a9a" d="m689.3,672.8h126.5c0-0.9,0-1.8,0.1-2.7h-126.7c0.1,1,0.1,1.9,0.1,2.7z"/>
	<path id="path213" fill="#9a9a9a" d="m801.1,770.5c0.3-0.9,0.5-1.8,0.7-2.7h-146.5c-0.8,0.9-1.6,1.8-2.2,2.7h148z"/>
	<path id="path215" fill="#9a9a9a" d="m690.7,815.6c1.2-0.9,2.5-1.8,3.8-2.7h-26.9c2.3,1.2,4.9,2.2,7.7,2.7h15.4z"/>
	<path id="path217" fill="#9a9a9a" d="m711.4,800.5c1.3-1,2.5-1.9,3.6-2.7h-62.7c0.5,0.9,1,1.8,1.6,2.7h57.5z"/>
	<path id="path219" fill="#9a9a9a" d="m809.7,732.9c0.2-0.9,0.3-1.8,0.5-2.7h-122.6c0.2,0.9,0.3,1.8,0.4,2.7h121.7z"/>
	<path id="path221" fill="#9a9a9a" d="m619.3,334.8c-6.1-2.4-12.2-4.5-18.4-6.4l-1.9,6.4h20.3z"/>
	<path id="path223" fill="#9a9a9a" d="m806.7,747.9c0.2-0.9,0.4-1.8,0.6-2.7h-120.7c-0.3,0.9-0.6,1.8-1,2.7h121.1z"/>
	<path id="path225" fill="#9a9a9a" d="m798.9,778c0.3-0.9,0.5-1.8,0.8-2.7h-148.7c-0.3,0.9-0.4,1.8-0.6,2.7h148.5z"/>
	<path id="path227" fill="#9a9a9a" d="m815.9,657.8v-2.7h-126.7c-0.2,0.9-0.4,1.8-0.5,2.7h127.2z"/>
	<path id="path229" fill="#9a9a9a" d="m809.9,590.2c-0.2-0.9-0.3-1.8-0.5-2.7h-122c0.3,0.8,0.7,1.7,1.1,2.7h121.4z"/>
	<path id="path231" fill="#9a9a9a" d="m803.5,560.1c-0.2-0.9-0.5-1.8-0.7-2.7h-111.8c0.3,0.9,0.7,1.8,1.2,2.7h111.3z"/>
	<path id="path233" fill="#9a9a9a" d="m799.3,545.1c-0.3-0.9-0.5-1.8-0.8-2.7h-90.5c-0.6,1-1.3,1.9-2,2.7h93.3z"/>
	<path id="path235" fill="#9a9a9a" d="m801.5,552.6c-0.2-0.9-0.5-1.8-0.7-2.7h-111.5c0.1,0.9,0.2,1.8,0.4,2.7h111.8z"/>
	<path id="path237" fill="#9a9a9a" d="m797,537.6c-0.3-0.9-0.6-1.8-0.9-2.7h-85.9c-0.1,0.9-0.2,1.8-0.4,2.7h87.2z"/>
	<path id="path239" fill="#9a9a9a" d="m789,515.1c-0.4-0.9-0.7-1.8-1.1-2.7h-81.9c0.3,0.9,0.6,1.8,0.9,2.7h82.1z"/>
	<path id="path241" fill="#9a9a9a" d="m794.5,530.1c-0.3-0.9-0.6-1.8-0.9-2.7h-83.5c0.2,1,0.3,1.9,0.3,2.7h84.1z"/>
	<path id="path243" fill="#9a9a9a" d="m791.8,522.6c-0.3-0.9-0.7-1.8-1-2.7h-82.4c0.3,0.9,0.5,1.8,0.7,2.7h82.7z"/>
	<path id="path245" fill="#9a9a9a" d="m786,507.6c-0.4-0.9-0.8-1.8-1.1-2.7h-81.9c0.4,0.9,0.8,1.8,1.2,2.7h81.8z"/>
	<path id="path247" fill="#9a9a9a" d="m805.3,567.7c-0.2-0.9-0.4-1.8-0.6-2.7h-111l0.7,2.7h110.9z"/>
	<path id="path249" fill="#9a9a9a" d="m815.2,635.3c-0.1-0.9-0.1-1.8-0.2-2.7h-106.5c0.2,0.9,0.4,1.8,0.5,2.7h106.2z"/>
	<path id="path251" fill="#9a9a9a" d="m814,620.2c-0.1-0.9-0.2-1.8-0.3-2.7h-111.2c0.5,0.9,0.9,1.8,1.3,2.7h110.2z"/>
	<path id="path253" fill="#9a9a9a" d="m814.6,627.8c-0.1-0.9-0.2-1.8-0.2-2.7h-108.4c0.4,0.9,0.7,1.8,1.1,2.7h107.5z"/>
	<path id="path255" fill="#9a9a9a" d="m815.6,642.8c0-0.9-0.1-1.8-0.1-2.7h-106.9c-0.3,1-0.7,1.9-1.2,2.7h108.2z"/>
	<path id="path257" fill="#9a9a9a" d="m813.2,612.7c-0.1-0.9-0.2-1.8-0.3-2.7h-114.3c0.5,0.9,1,1.8,1.4,2.7h113.2z"/>
	<path id="path259" fill="#9a9a9a" d="m811.1,597.7c-0.1-0.9-0.3-1.8-0.4-2.7h-120c0.4,0.9,0.9,1.8,1.4,2.7h119z"/>
	<path id="path261" fill="#9a9a9a" d="m392,732.9c0-0.9,0-1.8,0.1-2.7h-27.9c0,0.8,0.1,1.7,0.1,2.7h27.7z"/>
	<path id="path263" fill="#9a9a9a" d="m391.7,710.4c-0.1-0.9-0.1-1.8-0.2-2.7h-25.9c-0.1,0.9-0.2,1.8-0.3,2.7h26.4z"/>
	<path id="path265" fill="#9a9a9a" d="m392,717.9c0-0.9-0.1-1.8-0.1-2.7h-27.2c-0.1,0.9-0.2,1.8-0.3,2.7h27.6z"/>
	<path id="path267" fill="#9a9a9a" d="m390.6,763c0-0.9,0.1-1.8,0.1-2.7h-27.9c-0.1,0.9-0.2,1.8-0.3,2.7h28.1z"/>
	<path id="path269" fill="#9a9a9a" d="m391,755.5v-0.6c0-0.7,0.1-1.4,0.1-2.1h-27.6c-0.1,0.9-0.1,1.8-0.2,2.7h27.7z"/>
	<path id="path271" fill="#9a9a9a" d="m391.8,740.4c0-0.9,0.1-1.8,0.1-2.7h-27.6c0,0.9,0,1.8-0.1,2.7h27.6z"/>
	<path id="path273" fill="#9a9a9a" d="m391.4,747.9c0-0.9,0.1-1.8,0.1-2.7h-27.5c0,0.9-0.1,1.8-0.2,2.7h27.6z"/>
	<path id="path275" fill="#9a9a9a" d="m392.1,725.4v-2.7h-27.9c0,0.9-0.1,1.8-0.1,2.7h28z"/>
	<path id="path277" fill="#9a9a9a" d="m391.1,702.9c-0.1-0.9-0.2-1.8-0.3-2.7h-24.2c-0.1,0.9-0.3,1.8-0.4,2.7h24.9z"/>
	<path id="path279" fill="#9a9a9a" d="m380.9,665.3c-0.5-0.9-1-1.8-1.5-2.7h-6.4c-0.2,0.9-0.3,1.8-0.5,2.7h8.4z"/>
	<path id="path281" fill="#9a9a9a" d="m376.3,657.8c-0.6-0.9-1.2-1.8-1.8-2.7-0.1,0.7-0.3,1.6-0.5,2.7h2.3z"/>
	<path id="path283" fill="#9a9a9a" d="m384.3,672.8c-0.4-0.9-0.7-1.8-1.1-2.7h-11.5c-0.2,0.9-0.3,1.8-0.5,2.7h13.1z"/>
	<path id="path285" fill="#9a9a9a" d="m386.8,680.3c-0.3-0.9-0.5-1.8-0.8-2.7h-15.7c-0.2,0.9-0.3,1.8-0.5,2.7h17z"/>
	<path id="path287" fill="#9a9a9a" d="m390.1,695.4c-0.1-0.9-0.3-1.8-0.4-2.7h-21.9c-0.1,0.9-0.3,1.8-0.4,2.7h22.7z"/>
	<path id="path289" fill="#9a9a9a" d="m388.7,687.9c-0.2-0.9-0.4-1.8-0.6-2.7h-19.1c-0.1,0.9-0.3,1.8-0.4,2.7h20.1z"/>
	<path id="path291" fill="#9a9a9a" d="m445.2,823.1c0.3-0.9,0.6-1.8,0.8-2.7h-101.3c-0.6,0.9-1.2,1.8-1.9,2.7h102.4z"/>
	<path id="path293" fill="#9a9a9a" d="m424.5,838.1c0.7-1,1.6-1.9,2.5-2.7h-93.1c-0.7,0.9-1.3,1.8-2,2.7h92.6z"/>
	<path id="path295" fill="#9a9a9a" d="m422.5,845.6c-0.2-1-0.2-1.9-0.1-2.7h-94.1c-0.7,0.9-1.3,1.8-2,2.7h96.2z"/>
	<path id="path297" fill="#9a9a9a" d="m434.3,830.6c1.5-0.8,2.8-1.3,3.4-1.6,1.2-0.5,2.5-0.1,3.3,0.9,0.2,0.2,0.3,0.5,0.4,0.7h0.6c0.5-0.9,0.9-1.8,1.3-2.7h-103.9c-0.6,0.9-1.3,1.8-2,2.7h96.9z"/>
	<path id="path299" fill="#9a9a9a" d="m388.3,868.1c1.7-0.9,3.5-1.8,5.1-2.7h-81.3c-0.6,0.9-1.2,1.9-1.7,2.7h77.9z"/>
	<path id="path301" fill="#9a9a9a" d="m307.9,873c0,0.1-0.1,0.2-0.1,0.3,1.2,1.8,2.4,3.5,3.6,5.3h43.9c4-2.4,8.5-4.2,12.8-5.6h-60.2z"/>
	<path id="path303" fill="#9a9a9a" d="m402,860.6c1.6-0.9,3.1-1.8,4.6-2.7h-89.3c-0.6,0.9-1.3,1.8-1.9,2.7h86.6z"/>
	<path id="path305" fill="#9a9a9a" d="m414.3,853.1c1.6-1,2.9-1.9,4.1-2.7h-95.7c-0.7,0.9-1.3,1.8-2,2.7h93.6z"/>
	<path id="path307" fill="#9a9a9a" d="m390.7,785.5c-0.1-0.9-0.2-1.8-0.3-2.7h-30.9c-0.2,0.9-0.4,1.8-0.5,2.7h31.7z"/>
	<path id="path309" fill="#9a9a9a" d="m392.5,793c-0.3-0.9-0.6-1.8-0.8-2.7h-33.8c-0.2,0.9-0.4,1.8-0.7,2.7h35.3z"/>
	<path id="path311" fill="#9a9a9a" d="m416.7,815.6c-2.2-0.7-4.4-1.6-6.5-2.7h-60.5c-0.5,0.9-1.1,1.8-1.7,2.7h68.7z"/>
	<path id="path313" fill="#9a9a9a" d="m390.2,778v-0.2-2.5h-29.4c-0.1,0.9-0.3,1.8-0.4,2.7h29.8z"/>
	<path id="path315" fill="#9a9a9a" d="m390.3,770.5c0-0.9,0.1-1.8,0.1-2.7h-28.4c-0.1,0.9-0.2,1.8-0.4,2.7h28.7z"/>
	<path id="path317" fill="#9a9a9a" d="m402.8,808.1c-0.7-0.6-1.5-1.3-2.2-2l-0.7-0.7h-46.5c-0.4,0.9-0.8,1.8-1.2,2.7h50.6z"/>
	<path id="path319" fill="#9a9a9a" d="m396.2,800.5c-0.6-0.9-1.1-1.8-1.6-2.7h-38.7c-0.3,0.9-0.6,1.8-0.8,2.7h41.1z"/>
	<path id="path321" fill="#FFF" d="m405.7,801c11.1,11,31,11,39.5,11h2.7c0.1-0.5,0.2-1.1,0.2-1.6h-0.5c-10.8,0-30.4-1.5-40.4-11.6-4.3-4.3-6.5-9.7-6.5-16.1,0-10.9,5.6-21.7,12.7-35.4,8.1-15.7,18.3-35.1,23.4-62.3,3.5-18.6,5.6-66.6,6.2-81.7-2.2,2.1-4.4,4.1-6.5,6.1,2.5,3.3-2.5,5-2.5,5,3.2,0.4-2.8,5.6-2.8,5.6,5.2,3.6-2,4.8-2,4.8,4,3.6-4,5.6-4,5.6,14,9.2-1.6,6-1.6,6,11.2,8-1.6,5.2-1.6,5.2,8.4,5.2-2.4,6.8-2.4,6.8,16.1,8-0.8,6-0.8,6,16.1,10.8-2.4,6.4-2.4,6.4,24.9,12.8-2,6.8-2,6.8,25.7,12-3.2,6.8-3.2,6.8,30.5,17.3-4,5.6-4,5.6,33.1,22.5,2.4,8.8,2.4,8.8,22.9,19.7,2.4,8.8,2.4,8.8,16.9,20.1-6.4,3.6-6.4,3.6,22.9,22.9,1.6,10.4,1.6,10.4,18.1,20.9-2.8,6-2.8,6,16.9,16.9,2,10.4,2,10.4,6,12-3.2,8-3.2,8,8,10-1.6,9.2-1.6,9.2,8.4,10.8-2.4,8-2.4,8,4.1,8.4,0.6,9.3-1.2,9.3-0.3,5.3-0.4,10.3-0.4,14.8-0.2,10.4,2.6,18.2,8.1,23.7z"/>
	<path id="path323" fill="#FFF" d="m745.5,801c-0.3-0.3-0.6-0.7-0.7-1.1-0.1-0.2-2.1-6.1-11-6.1-4,0-4,4.8-0.8,4.8s14,4.4,1.2,4.4c-4.4,0-2,2.8,0.4,2.8l2.7,0.1c4.9,0.8,5.8-2.2,8.2-4.9z"/>
	<path id="path325" fill="#FFF" d="m739.9,839.5c13.3-0.9,25.4-7,36-18.1-4.9,1.5-10.5,1.8-10.5,1.8,4-1.6,2-6,2-6-5.2,2.4-10.8,1.6-10.8,1.6,3.2-1.6,4-4,4-4-3.6,2-9.2,1.6-9.2,1.6,3.2-2,2-5.6,2-5.6-2.8,0.8-7.6,0.4-7.6,0.4,4-2,1.6-5.2,1.6-5.2-6,5.2-18.5,4.4-18.5,4.4,3.6,4,8,4.4,8,4.4-2,0.8-4.8,2.4-4.8,2.4,1.6,0.8,6,2,6,2-6.8,2-11.6,1.6-11.6,1.6,7.6,3.6,18.5,2.4,18.5,2.4-7.2,4-17.7,2.8-17.7,2.8,7.6,4.4,13.6,2,13.6,2-6.8,3.2-8.8,3.2-8.8,3.2,4.8,2,10.8,3.2,10.8,3.2-17.3,4-32.9-1.6-32.9-1.6l1.2,1.2c8.3,3.5,18.2,6.2,28.7,5.5z"/>
	<path id="path327" fill="#FFF" d="m761.8,806.7s6.8-2.8,10.8-2.4c0.1,0-5.2-5.6-10.8,2.4z"/>
	<path id="path329" fill="#FFF" d="m770.7,808.3s2.4-1.6,4.8,0c2.4,1.7-4.8,0-4.8,0z"/>
	<path id="path331" fill="#FFF" d="m678.4,842.5s4.8-1.2,7.6-0.8c0,0-3.6-4.9-7.6,0.8z"/>
	<path id="path333" fill="#FFF" d="m686.3,850.9c-2.5-0.4-7.3,1.4-9.3,1.5-1.3-0.9-1-1.7-0.3-2,0.5-0.3,1.6-0.9,2.9-0.9,2.8-0.1,6.1,1.8,6.7,1.4z"/>
	<path id="path335" fill="#FFF" d="m686.7,860.1c-2.2-0.3-7,2-11,2.1-3.4-0.7-3.5-1.5-2.9-1.9,0.5-0.3,2-1.2,4.1-1.2,3.4,0,8.5,1.9,9.8,1z"/>
	<path id="path337" fill="#FFF" d="m687,869.3c-1.9-0.3-6.7,2.7-12.7,2.8-5.5-0.6-6-1.4-5.5-1.7,0.4-0.2,2.4-1.6,5.3-1.6,4,0,11.1,1.9,12.9,0.5z"/>
	<path id="path339" fill="#FFF" d="m687.4,878.6c-1.6-0.2-6.4,3.3-14.4,3.5-7.6-0.4-8.4-1.3-8-1.6,0.3-0.2,2.8-1.9,6.5-1.9,4.5-0.1,13.4,1.8,15.9,0z"/>
	<path id="path341" fill="#FFF" d="m687.8,887.8c-1.2-0.2-6.1,3.9-16.1,4.1-9.7-0.3-10.9-1.2-10.6-1.4s3.2-2.2,7.7-2.2c5.1,0,15.8,1.7,19-0.5z"/>
	<path id="path343" fill="#FFF" d="m688.1,897c-0.9-0.1-5.8,4.5-17.8,4.8-11.8-0.1-13.4-1.1-13.2-1.3,0.2-0.1,3.6-2.6,8.9-2.6,5.8,0.1,18.4,1.8,22.1-0.9z"/>
	<path id="path345" fill="#FFF" d="m688.5,906.3c-0.6-0.1-5.4,5.2-19.5,5.5-13.9,0.1-15.9-1-15.7-1.1,0.1-0.1,4-2.9,10.1-2.9,6.3-0.1,20.7,1.6,25.1-1.5z"/>
	<path id="path347" fill="#FFF" d="m688.8,915.5c-0.3,0-5.1,5.8-21.2,6.2-16,0.2-18.4-0.9-18.3-1,0.1,0,4.4-3.3,11.3-3.3,7,0,23.2,1.7,28.2-1.9z"/>
	<path id="path349" fill="#FFF" d="m645.4,930.8s4.8-3.6,12.4-3.6,25.7,1.6,31.3-2.4c0,0-4.8,6.4-22.9,6.8-18,0.4-20.8-0.8-20.8-0.8z"/>
	<path id="path351" fill="#FFF" d="m646.2,941.3s4.8-3.6,12.4-3.6,25.3-1.3,31.3-2.4c0,0-4.8,6.4-22.9,6.8-17.9,0.4-20.8-0.8-20.8-0.8z"/>
	<path id="path353" fill="#FFF" d="m639,952.5s4.5-3.3,11.5-3.3c7.1,0,23.4-1.2,29-2.2,0,0-4.5,5.8-21.2,6.2s-19.3-0.7-19.3-0.7z"/>
	<path id="path355" fill="#FFF" d="m621.6,853.8c-20.9,6.7-44.7,11.1-70.4,11.1-66.2,0-105.8-5.8-121.1-17.9-2.4-1.9-2.2-3.1-2.1-3.5,0.3-2.2,3.6-4.9,7.1-7,0.1,1,0.5,2,1,3.1,7,14.1,46,21.2,116,21.2,28.4,0.1,51.4-2.9,69.5-7z"/>
	<path id="path357" fill="#FFF" d="m468.5,599.1c-2.1,1.6-4.5,7.7,1.5,3.3-0.7-1.2-1.1-2.3-1.5-3.3z"/>
	<path id="path359" fill="#FFF" d="m469.3,611.2c1.6-2.9-0.3-4-1.9-1.9s-2.9,4-3.7,6.2c0,0.1-0.1,0.1-0.1,0.2,1.9-1,4.2-1.9,5.7-4.5z"/>
	<path id="path361" fill="#FFF" d="m498.4,651.6c-2.9-0.3,0.3-1.9,1.3-2.7,1.1-0.8-0.3-1.9-2.4-1.9s-1.9-2.1-0.5-3.7c1.3-1.6,0.5-3.7-2.1-2.1-2.7,1.6-5.6-0.8-2.4-4s-0.5-2.1-0.3-3.7c0.3-1.6-0.8-4.3-2.4-3.5s-3.5,4-3.2,6.2c0.3,2.1-3.2,4.8-10.7,8s-3.5-0.3-1.1-2.4,3.2-5.9,1.1-10.7-3.2-8-5.9-7.5-4,2.1-6.2,3.7-3.7,0.3-1.1-2.7c2.7-2.9,5.1-3.7,5.4-5.6s-1.1-1.9-2.7-0.3-4,5.1-4,2.9c0-1.4-0.2-2.9,0.2-4.1-0.8,0.2-1.6,0-1.8-0.8-0.5-1.6,0.3-2.7,0.8-4s-2.4-1.9-1.9-4.5c0.5-2.7,4-7.5,5.6-9.1,1.1-1.1,2.2-2.9,3.1-3.7-0.1-0.2-0.1-0.3-0.2-0.5-2.4,1.9-6.1,5-6.6,2.4-0.5-2.7,2.1-3.7,4-5.4,0.4-0.3,0.7-0.7,1-1-0.8-2.1-1.6-4.1-2.4-6.1-2,1.9-5.2,4.8-8.8,8.2,1,1,1.3,2.8-2.1,5.7,0,0,3.2,4.1-1,7.8v0.3c0,0.4,0.1,0.8,0.1,1.2,1.2,1.8,3.3,5.3,0.7,6.4v0.2c0.9,1,5.2,5.9,1.5,8.1,4.4,19.9,14.3,33.7,29.9,42,8.7,4.6,12.8,4.5,14.7,3.5,0.7-0.3,1.2-0.8,1.7-1.5l1.9-5.3c0-0.1,0-0.2,0.1-0.3,0.1-0.4,0.2-0.7,0.4-1,0-0.9-0.9-8.3-3.7-8.5z"/>
	<path id="path363" d="m574.9,574.2s17.1-2.4,25.2-10.7c0,0-20.3,6.5-25.2,10.7z"/>
	<path id="path365" d="m570.3,569.8s30.1-7.9,38.1-16.2c0,0-33.3,11.9-38.1,16.2z"/>
	<path id="path367" d="m567.3,564.7s24.5-4.9,32.5-13.2c0,0-27.7,8.9-32.5,13.2z"/>
	<path id="path369" fill="#FFF" d="m653.1,563.8s3.7-0.3,4.8-2.1c1.1-1.9-3.5,0.8-4.8,2.1z"/>
	<path id="path371" d="m641.3,586s4.8-4.5,8.3-4.3c3.5,0.3,3.5-1.9,3.5-1.9s2.3,3.1-4.5,5.6c-2.2,0.9-7.3,0.6-7.3,0.6z"/>
	<path id="path373" d="m591.5,583.1,4.8-2.4s0.8,2.6-4.8,2.4z"/>
	<path id="path375" fill="#FFF" d="m539.4,565s24.5-4.9,32.5-13.2c0.1,0-27.7,8.9-32.5,13.2z"/>
	<path id="path377" fill="#FFF" d="m541.8,556.9s11.2-2.1,14.9-5.7c0,0-12.7,3.9-14.9,5.7z"/>
	<path id="path379" fill="#FFF" d="m526.2,709.9s-2.5,1.2-1.7,2.3,2,1.6,3.2,0.8,1.3-1.7,0.8-2.4-1.6-1-2.3-0.7z"/>
	<path id="path381" fill="#FFF" d="m516.6,707.9c-0.7,0.8-0.1,1.1,0.1,1.6,0.3,0.5,0.8,0.9,1.6,0.7,0.8-0.3,2.1-1.2,1.7-1.9s-1.2-1.5-1.9-1.2c-0.6,0.2-1.5,0.8-1.5,0.8z"/>
	<path id="path383" fill="#FFF" d="m534.1,713.6c-0.6,0.2-1.3,1.3-1.1,2.1,0.3,0.8,0.9,3.1,1.6,2.8s2.3-1.6,2.8-2.3,0-2.5-0.4-2.8c-0.3-0.2-2.3,0.1-2.9,0.2z"/>
	<path id="path385" fill="#FFF" d="m537.6,722.5s-2,0.9-1.7,1.9c0.3,0.9,0.7,1.6,1.6,1.6s1.7-0.7,2.1-1.2c0.4-0.6-1.2-3.3-2-2.3z"/>
	<path id="path387" fill="#FFF" d="m545,726.3c-0.5,0.5,0.8,2,1.7,2.9s1.3,0.4,2-0.4,0.4-1.1-0.1-1.7c-0.5-0.7-0.9-2-1.9-1.6-0.9,0.4-1.3,0.4-1.7,0.8z"/>
	<path id="path389" fill="#FFF" d="m539.1,730.9c-0.4,0.5-0.9,0.8-0.4,1.6s1.6,1.5,2.4,1.3c0.8-0.1,0.8-0.7,0.8-1.3,0-0.7-1.9-2.9-2.7-2l-0.1,0.4z"/>
	<path id="path391" fill="#FFF" d="m549.5,735c-0.9,0.8-0.9,1.9,0.5,1.6,1.5-0.3,1.6-0.8,1.7-1.2,0.2-0.4-1.2-1.2-2.2-0.4z"/>
	<path id="path393" fill="#FFF" d="m534,735.3c-0.6,0.5-1.7,0.8-1.1,1.7,0.7,0.9,1.5,2.1,2,1.5,0.5-0.7,1.2-0.7,1.6-1.3,0.4-0.7-1.6-2.7-2.5-1.9z"/>
	<path id="path395" fill="#FFF" d="m520.5,716.7c-0.9,0.4-1.2,1.5-0.3,2.1,0.9,0.7,1.9,0.3,2.5-0.4,0.7-0.6-0.3-2.6-2.2-1.7z"/>
	<path id="path397" fill="#FFF" d="m510.1,705.2c-0.9,1.1-0.3,2.5,0.9,2.8s1.7-0.8,2.1-1.2,0.4-3.5-0.9-2.7-2.1,1.1-2.1,1.1z"/>
	<path id="path399" fill="#FFF" d="m583.8,739.9c-0.8,0.9-1.6,1.9-0.7,1.9s1.6-0.1,2.1-1.2c0.6-1.1-0.8-1.5-1.4-0.7z"/>
	<path id="path401" fill="#FFF" d="m558.6,750.4c-1.3,0.8-1.2,2-0.3,2.5s1.3,0.1,2-0.8,0.2-2.7-1.7-1.7z"/>
	<path id="path403" fill="#FFF" d="m602.6,745.6c-1.1,0.5-1.9,1.1-0.9,1.5,0.9,0.4,2,0.7,2.5-0.1,0.6-0.9-0.4-1.9-1.6-1.4z"/>
	<path id="path405" fill="#FFF" d="m611.6,749.8c-0.9,0.5-2.4,1.2-1.1,1.5s1.7,1.1,2.4,0.3c0.7-0.9-0.4-2.4-1.3-1.8z"/>
	<path id="path407" fill="#FFF" d="m583.4,788.1c-1.2,0.7-2.3,1.5-1.2,2.1,1.1,0.7,0.8,0.9,2.3-0.1,1.4-1,0.2-2.8-1.1-2z"/>
	<path id="path409" fill="#FFF" d="m643.8,752.7c-1.1,0.5-1.6,1.6-0.8,1.6s1.5-0.3,1.7-0.8c0.3-0.5-0.3-1.1-0.9-0.8z"/>
	<path id="path411" fill="#FFF" d="m553.1,850.4s2.4-2.3,5.8-4.1c3.3-1.9,3.9-0.9,0.7,1.3-3.3,2.2-9.3,4.9-6.5,2.8z"/>
	<path id="path413" fill="#FFF" d="m563.3,832.2c2.4-2.8,4.4-4.1,5.8-2.9s0.8,2.5-0.8,3.5c-1.7,0.8-7,1.6-5-0.6z"/>
	<path id="path415" fill="#FFF" d="m572,825.3c1.7-2.3,4.9-4.5,5.6-3.5,0.7,1.1,2.9,2,0.1,3.5s-8,3-5.7,0z"/>
	<path id="path417" fill="#FFF" d="m582.6,819.7c1.9-1.6,2.9-4.1,4-3.1s3.3,1.5,1.3,2.8c-2,1.4-7.3,2.1-5.3,0.3z"/>
	<path id="path419" fill="#FFF" d="m582.7,828.3c1.4-1.4,2.1-2.7,3.2-1.5s0,1.7-1.2,2.7c-1.2,0.9-3.2,0-2-1.2z"/>
	<path id="path421" fill="#FFF" d="m573.7,817c1.5-1.3,2.8-2.3,3.5-1.2s1.6,0.3-0.5,2c-2.2,1.8-4.7,0.7-3-0.8z"/>
	<path id="path423" fill="#FFF" d="m572.8,810.8c1.8-1.2,2.1-2,2.7-1.3,0.5,0.7,0.5,1.6-0.7,2.3-1.2,0.6-2.4-0.8-2-1z"/>
	<path id="path425" fill="#FFF" d="m593,821.3c1.2-1.2,1.5-1.6,2-1.2s0,1.5-0.5,1.9c-0.6,0.4-2.3,0.1-1.5-0.7z"/>
	<path id="path427" fill="#FFF" d="m591.5,829.1c1.2-1.2,2.5-0.8,2.7-0.1,0.1,0.7-1.6,1.6-2.5,2-1,0.4-1-1.1-0.2-1.9z"/>
	<path id="path429" fill="#FFF" d="m602.6,822.9c0.8-1,1.1-1.3,1.6-0.7,0.5,0.7-0.1,1.5-0.9,2-0.8,0.6-1.2-0.6-0.7-1.3z"/>
	<path id="path431" fill="#FFF" d="m602.8,815.7c0.9-0.7,1.6-1.5,1.9-0.8s-0.3,1.1-0.8,1.6c-0.6,0.5-1.9-0.1-1.1-0.8z"/>
	<path id="path433" fill="#FFF" d="m520,850.6c-1.7,1.3-3.1,2.5,0.7,2.7,3.7,0.1,7.1-1.7,9.5-3.7s4.4-0.4,2.5,0.5-2.4,3.6-0.5,3.3,3.9-0.9,8-3.7,4,0,2.1,1.6-2.4,2.5-0.8,2.1,11.1-6.2,15.1-8.7,0.9-1.7-1.1-1.5c-2,0.3-1.3-1.1,0-2.4s2.5-2,4.5-4.4-6-0.1-9.1,0.9-3.9,0.1-1.9-1.9,13.5-7.9,16.7-10.8,1.1-4.3-2.1-2-14.2,8.7-17.8,10.6-6.2,0.3-3.2-1.5c2.9-1.7,10.7-6.2,14-9.1s2.5-3.9-0.4-2.7-9.6,4.9-13.6,5.5c-4,0.5-3.1-0.9,0.4-2.7,3.5-1.7,18.2-10.4,25.6-14.7s2.9-4.1,1.1-3.1c-1.9,1.1-20.2,10.4-24.1,11.8-3.9,1.3-2.9-0.7-0.7-2.4,2.3-1.7,26.9-15.7,29.2-17.5,2.3-1.9,1.1-2.1-1.1-1.3-2.1,0.8-21.3,10.7-24.7,11.6-3.5,0.9-2.8-1.1-0.4-2.7s22.3-14.2,24.9-15.9c2.5-1.7,1.6-4.1-1.3-2.3-2.9,1.9-28.4,14.7-31.3,16.2s-4.3,0.3-2.3-1.2,31.2-18.6,34-20.9,0.4-2.9-2.5-1.9c-2.9,1.1-24.2,12.4-26.5,13.9s-2.7-0.1-1.1-2.1,23.7-14.4,25.8-16.6c2.1-2.1,2-3.3-1.9-1.7s-18.9,9.5-21.3,10.6-4.4,0.7-1.9-0.9,20.3-12.2,22.3-14.3,2.1-3.9-0.9-2.1c-3.1,1.7-21,9.8-23.9,10.3s-3.7,0.1-0.9-1.3c2.8-1.5,17.1-9.6,18.6-11.1s1.6-3.3-0.7-1.7-15.3,6.8-17.9,8-4-1.9-0.9-2.8,9.8-4.5,13.4-7c3.6-2.4-1.6-5.6-3.7-4.1s-9.2,4.3-13,6.3c-3.7,2-5.5,0.4-3.6-0.8s10.8-5.8,12.3-6.6-2.1-3.7-3.1-4.1c-0.9-0.4-6.2,2.9-8.2,3.7s-4.1-0.1-3.2-1.2,4-2.8,5.4-3.5c1.3-0.7,1.6-2.3,2.1-3.9s4-0.5,5.8-1.7c1.7-1.2,2.3-1.3,3.9-3.2s-2.7-1.7-3.7-0.8c-1.1,0.9-4,2.4-4.9,3.2s-3.7-0.5-5.5-1.2c-1.7-0.7-3.2-2.3-3.5-3.3-0.3-1.1,0.5-4,1.9-5.1,1.3-1.1,2.9-2.5,3.5-3.7s-1.1-1.7-2.4-1.3-3.5,2.8-4.3,4-4.7-1.6-5.5-2.9,0.9-1.5,2.5-1.7c1.6-0.3,4.5-2.5,5.9-3.9s2.1-1.6,1.3-3.1-2.4-1.5-3.7-0.5-4.7,4.3-5.2,5.1-1.9,2.4-3.2,2.3-0.5-2.8-0.9-3.9-1.3-2-2.7-2-2,0-2.1-1.3-0.4-2.9,0.9-2.9,1.6-1.1,1.9-2.8-4.8-1.7-6.3-1.7-0.7-1.1-0.3-2.5c0.4-1.5-1.6-0.7-1.9-1.7-0.3-1.1-0.7-7.6-0.3-8.7s1.3-0.7,2.3-1.1c0.9-0.4,1.6-1.6,1.9-2.3s-1.3-1.9-2.1-2-1.3,0.1-1.9,0.7c-0.5,0.5-1.2,2.4-1.2,2.4-1.7,1.1-3.5,0.4-3.5-0.7s0-1.6,1.2-2.4-0.1-1.6-0.5-2.7-1.2-1.5-3.1-1.5-2-2.3-3.9-3.7c-1.9-1.5,1.3-1.5,4.4-1.5s0.9-2.5-0.8-4.8c-0.8-1-2.9-3.5-5.8-5.8-3.7-0.2-8.3-1.8-13.8-4.7-0.1,0-0.1-0.1-0.2-0.1-9.2,1.4-29.9,17.3-34.1,20.7v3.2c5.4-2.9,21.2-11.6,24.3-12.5,3.6-1.1,5.6,0.7,1.5,1.7-3.7,1-20.1,12.7-25.8,16.4v4.1c3.7-2.8,17.3-11.9,19.2-13,2-1.2,8.6,1.5,2.9,2.3-5.6,0.8-18.3,12.3-22.1,14.6,0,1.5,0,2.9,0.1,4.3,3.5-1.9,12.6-8.7,16.4-9.9,4.1-1.3,3.6,0.5,1.2,1.9-2.1,1.2-13.3,9.7-17.5,13.2,0,1.1,0.1,2.1,0.1,3.1,3-1.9,9.3-6.1,11.2-7.2,2.1-1.2,3.7-0.3,1.7,1.1-2,1.3-10,10-12.6,11.9l-0.1,0.1c0.1,1.4,0.1,2.7,0.2,3.9,2-1.4,4.4-3.4,6.7-5.8,2.9-2.9,5.4-0.3,3.1,1.2-2,1.3-6.6,7.5-9.3,10.3,0,0.5,0.1,1,0.2,1.4,0.1,0.6,0.2,1.3,0.2,1.9,2.5-1.5,5.6-3.7,7.3-4.8,2.1-1.5,4.5-1.7,2.9-0.3-1.4,1.2-6.8,7.3-9.5,10.5,0.2,1.1,0.3,2.2,0.5,3.3,4-2.8,9.7-7,11.4-8.4,2.4-2.1,4-0.3,2,1.3-1.5,1.2-8.3,7.8-12.6,12,0.2,1.6,0.5,3.2,0.7,4.8,1.3-0.9,2.7-2,4-3.2,2.1-1.9,3.2,0.1,1.3,2-1.4,1.4-3.2,3.6-4.7,5.4,0.2,1.6,0.5,3.2,0.7,4.8,2.7-2.2,6.9-6.7,9.2-8.9,2.8-2.5,4.1-1.6,2.3,0.3-1.5,1.5-7.7,8.2-11.1,11.7,0.2,1.2,0.3,2.4,0.4,3.6,2.8-1.9,9.4-6.2,11.5-7.8,2.4-1.9,4.3-0.7,1.6,1.3-2.2,1.6-8.9,9.1-12.4,13,0.1,1.4,0.2,2.8,0.3,4.2,3.6-2.8,13.1-9.7,15.3-11.2,2.4-1.7,3.1-0.8,1.5,0.8-1.3,1.3-12.1,11.2-16.5,15,0.1,1.4,0.1,2.8,0.2,4.2,4-2.8,14.4-11.1,16.3-13.1,2.1-2.3,3.2-0.1,1.6,1.7-1.4,1.7-13.8,11.9-17.9,15.8,0,1.4,0,2.7-0.1,4,4.2-2.4,13.1-9.7,16.6-12.2,4.1-2.9,3.9-0.9,1.6,1.3-2,2-13.3,11.3-18.5,15.5-0.1,1.8-0.3,3.5-0.5,5.3,0.1-0.1,0.2-0.1,0.3-0.2,4.1-2.5,15.1-8.8,18.3-12.2,3.2-3.3,4.4-0.9,1.6,1.3-2.4,2-15.4,12.1-21.2,16.6-0.4,1.8-0.8,3.5-1.2,5.2,4.4-3.3,20.3-14.4,23.2-17.2,3.1-2.9,4.5-1.1,1.9,1.5-2.3,2.1-20.6,18.9-28.7,25.4-0.9,1.8-1.8,3.5-2.8,5.2l-0.6,0.9c4.2-2.8,19.6-15.4,23.5-18,4.3-2.8,4.4-1.1,2.3,0.7-2.1,1.7-21.3,19.5-24.1,22.2,0.8,0.5,1.6,0.9,2.6,1.4,4-3.4,24.5-20.1,27.6-22.4,3.3-2.4,3.5,0.4,1.5,1.7-1.9,1.2-21,17.8-25.7,22.1,1,0.4,2.2,0.8,3.4,1.2,2.4-2,18.2-14.2,20.5-16.1s3.3-0.7,2,0.9-16.7,13.6-19.3,15.7c-0.1,0.1-0.3,0.2-0.4,0.3,1.3,0.4,2.6,0.7,4,1.1,3.6-2.4,12.9-8.7,15.6-10.4,3.1-1.9,3.5-1.6,1.2,0.5-1.9,1.8-9.9,8.7-12.5,10.8,2.2,0.5,4.6,0.9,7.2,1.3,0.7-0.5,1.6-1,2.6-1.6,1.8-1,0.7,0.6-0.3,2,4.9,0.8,10.6,1.5,16.9,2.1,0.8-0.6,1.6-1.5,3.8-3.2,2.9-2.2,1.7,0.8,0.2,3.5,0.9,0.1,1.9,0.2,2.9,0.2,1.1-0.8,2.2-1.8,2.8-2.4,2-2.1,4-1.6,2.5,0.4-0.5,0.7-1,1.6-1.2,2.3,1.5,0.1,2.9,0.2,4.5,0.3,3.5-1.7,6.9-3.5,10.3-5.1,4-1.6,2.8,0.6,1.1,1.9z"/>
	<path id="path435" fill="#FFF" d="m472.3,664.1c-4.1,2.4-20.1,12.6-25.8,17.4v3.6c6.1-4.4,21.8-16,28.8-18.9-1.1-0.6-2.1-1.3-3-2.1z"/>
	<path id="path437" fill="#FFF" d="m466.1,658.8c-3.8,2.8-14.5,10-19.5,14v3c4.8-3.4,17.9-12.8,21.8-14.9-0.8-0.7-1.6-1.4-2.3-2.1z"/>
	<path id="path439" fill="#FFF" d="m461.7,653.9c-2.5,1.6-11.1,7-15,10.1,0,1,0,2-0.1,3,3-2.2,12-8.2,16.6-11.3-0.5-0.5-1-1.1-1.5-1.8z"/>
	<path id="path441" d="m530.3,744.1c-3.5,1.6-6.4,2.4-7.6,3.6s0,4,2.8,2.4,9.2-8,4.8-6z"/>
	<path id="path443" d="m521.4,741.3c-2,0.8-8.4,2-5.6,0.4s5.2-4.8,6-2.8-0.4,2.4-0.4,2.4z"/>
	<path id="path445" d="m467.6,628.2s-4,0.8-4,2.4,1.9,2.2,4-2.4z"/>
	<path id="path447" d="m469.3,635s-3.6,1.2-2.4,2.8,2,0.4,2.4-2.8z"/>
	<path id="path449" fill="#FFF" d="m560,995s3.6-4.4,16.9-6.8c13.2-2.4,22.9-5.6,22.9-5.6s-2.8,4-16.1,8-25.7,7.6-23.7,4.4z"/>
	<path id="path451" fill="#FFF" d="m582.6,978.3c11.1-2.1,21.4-5.6,21.7-5.4s-2.6,3.8-14.4,7.3-23,6.7-21.5,4c-0.3,0,2.7-3.8,14.2-5.9z"/>
	<path id="path453" fill="#FFF" d="m588.4,968.4c8.9-1.7,19.9-5.5,20.5-5.1s-2.3,3.5-12.8,6.5c-10.3,3-20.2,5.8-19.3,3.5-0.5,0.1,1.8-3.1,11.6-4.9z"/>
	<path id="path455" fill="#FFF" d="m594.1,958.5c6.8-1.4,18.4-5.5,19.3-4.9s-2.1,3.3-11.2,5.8c-8.8,2.5-17.5,4.9-17.1,3.1-0.6,0.1,1.1-2.5,9-4z"/>
	<path id="path457" fill="#FFF" d="m599.9,948.6c4.6-1,16.9-5.4,18.1-4.6s-1.8,3-9.6,5c-7.3,2-14.8,4-14.9,2.7-0.9,0.1,0.2-1.9,6.4-3.1z"/>
	<path id="path459" fill="#FFF" d="m605.7,938.7c2.5-0.7,15.4-5.4,16.9-4.4s-1.6,2.8-8,4.3c-5.8,1.5-12,3.2-12.7,2.2-1.1,0.2-0.7-1.2,3.8-2.1z"/>
	<path id="path461" fill="#FFF" d="m611.4,928.8c0.3-0.3,13.8-5.3,15.7-4.1s-1.3,2.5-6.4,3.5c-4.4,1-9.3,2.3-10.5,1.8-1.2,0.3-1.4-0.6,1.2-1.2z"/>
	<path id="path463" fill="#FFF" d="m617.2,919c-1.9,0,12.3-5.3,14.4-3.9s-1.1,2.3-4.8,2.8c-2.9,0.5-6.6,1.4-8.3,1.3-1.4,0.3-2.2,0-1.3-0.2z"/>
	<path id="path465" fill="#FFF" d="m623,909.1c-4,0.4,10.8-5.2,13.2-3.6s-0.8,2-3.2,2-8,1.4-10,1.6z"/>
	<path id="path467" fill="#FFF" d="m626.7,900.7c-3.4,0.3,10.5-4.8,13-3.6,2.3,1.2-0.6,1.9-3.1,2.2-2.3,0.1-7.6,1.4-9.9,1.4z"/>
	<path id="path469" fill="#FFF" d="m630.5,892.3c-2.9,0.3,10.3-4.3,12.7-3.6,2.1,0.9-0.4,1.9-2.9,2.3-2.3,0.4-7.2,1.6-9.8,1.3z"/>
	<path id="path471" fill="#FFF" d="m634.3,884c-2.3,0.2,10-3.8,12.4-3.6,2,0.5-0.2,1.8-2.8,2.5-2.3,0.4-6.8,1.5-9.6,1.1z"/>
	<path id="path473" fill="#FFF" d="m638.1,875.6c-1.7,0.2,9.7-3.4,12.1-3.6,1.8,0.1,0,1.8-2.7,2.7-2.2,0.6-6.3,1.6-9.4,0.9z"/>
	<path id="path475" fill="#FFF" d="m641.9,867.2c-1.1,0.1,9.4-2.9,11.8-3.6,1.7-0.2,0.2,1.7-2.6,2.9-2.1,0.8-5.8,1.6-9.2,0.7z"/>
	<path id="path477" fill="#FFF" d="m645.7,858.9c-0.6,0.1,9.1-2.5,11.5-3.6,1.6-0.6,0.4,1.7-2.4,3-2.1,0.9-5.5,1.7-9.1,0.6z"/>
	<path id="path479" fill="#FFF" d="m649.5,850.5s8.8-2,11.2-3.6-1.6,6.8-11.2,3.6z"/>
	<path id="path481" fill="#FFF" d="m490.9,999.8s10.4-4.4,20.1-5.2c9.6-0.8,34.1-4.4,39.3-9.2s2.8,2.4-1.6,4.4-28.9,8.8-37.7,8.8-20.1,1.2-20.1,1.2z"/>
	<path id="path483" fill="#FFF" d="m494.1,991.4s7.2-8,22.1-8.9c9.6-0.6,34.1-3.5,39.3-8.3s2.8,1.5-1.6,3.5-28.9,8.8-37.7,8.8c-8.8-0.1-22.1,4.9-22.1,4.9z"/>
	<path id="path485" fill="#FFF" d="m503.9,980.4s7.3-7.7,21.2-8.6c9.2-0.6,32.2-3.2,37.2-7.8,4.7-4.4,1.6,1.8-2.8,3.7-4.3,1.8-26.8,8.1-35.1,8.2-8.2-0.1-20.4,4.4-20.5,4.5z"/>
	<path id="path487" fill="#FFF" d="m518.2,967.5s7.3-7.3,20.3-8.3c8.8-0.7,30.2-2.9,35.1-7.3,4.3-3.9,0.4,2.1-4,3.8-4.1,1.7-24.8,7.4-32.6,7.5-7.5,0.1-18.6,4.3-18.8,4.3z"/>
	<path id="path489" fill="#FFF" d="m562.7,934.3c-11.2,1-18.6,7.6-18.6,7.6,0.4-0.2,9.4-3.5,15.6-3.6,6.7-0.2,23.6-4.8,27.4-6.2,4.4-1.4,9.7-7.2,6.4-4.1-4.5,4-23,5.5-30.8,6.3z"/>
	<path id="path491" fill="#FFF" d="m552.4,931c0.5-0.2,8.4-3.1,14-3.3,6.2-0.3,21.1-4.3,24.8-5.5,2-0.6,4.3-2,5.9-3.2-6,3-20.4,3.9-27.1,4.7-10.2,1.1-17.6,7.3-17.6,7.3z"/>
	<path id="path493" fill="#FFF" d="m563.6,920c0.6-0.2,7.4-2.7,12.4-2.9,5.6-0.4,18.7-3.8,22.2-4.8,1.9-0.5,4.1-1.7,6-2.8-6.1,2.3-17.9,2.9-23.8,3.7-9.3,1-16.8,6.8-16.8,6.8z"/>
	<path id="path495" fill="#FFF" d="m570.6,909.8c0.7-0.3,6.4-2.4,10.8-2.6,5.1-0.4,16.3-3.3,19.7-4.2,1.9-0.4,4.3-1.6,6.4-2.8-5.8,1.9-15.7,2.2-20.9,3-8.5,1.1-16,6.6-16,6.6z"/>
	<path id="path497" fill="#FFF" d="m583.9,896.8c0.8-0.3,5.5-2,9.2-2.3,4.6-0.5,13.9-2.8,17.1-3.5,2-0.4,4.8-1.7,7.1-2.8-5.4,1.5-13.7,1.6-18.3,2.4-7.6,1.1-15.1,6.2-15.1,6.2z"/>
	<path id="path499" fill="#FFF" d="m592.3,886.1c0.8-0.4,4.5-1.6,7.5-1.9,4-0.6,11.4-2.3,14.5-2.8,2.2-0.3,5.6-1.8,8.3-3.1-4.9,1.2-11.9,1.2-16.1,2-6.6,1.1-14.2,5.8-14.2,5.8z"/>
	<path id="path501" fill="#FFF" d="m599.8,878.2c0.9-0.4,3.5-1.3,5.9-1.6,3.5-0.6,9-1.8,11.9-2.2,2.5-0.3,6.6-2,9.7-3.4-4.3,1-10.4,0.8-14.2,1.6-5.7,1.2-13.3,5.6-13.3,5.6z"/>
	<path id="path503" fill="#FFF" d="m626.7,864c-3.8,0.8-9.1,0.4-12.6,1.3-4.8,1.2-12.4,5.2-12.4,5.2,2.8-1.2,9.2-2.4,13.6-2.8,2.8-0.2,8-2.2,11.4-3.7z"/>
	<path id="path505" fill="#FFF" d="m736,854.7c-8.5-0.7-25.1,3.9-26.1,5,0.3,2.7,7.7,1,28.8-1.5,18.9-2.2,17.9-8.3,17.8-9.3-0.9,1-12.6,6.5-20.5,5.8z"/>
	<path id="path507" fill="#FFF" d="m734.7,863.7c-7.8-0.7-22.5,2.9-24.5,5.2,0.3,2.1,6.9,0.4,24.7-1.8,13.1-1.6,14.9-5.3,15.3-6.9-2,1.4-9.4,4.1-15.5,3.5z"/>
	<path id="path509" fill="#FFF" d="m733.3,873.6c-7-0.6-19.9,2-22.9,5.4,0.2,1.6,6.2-0.2,20.6-2.2,7.8-1,10.7-2.9,12-4.2-2.2,0.7-5.9,1.3-9.7,1z"/>
	<path id="path511" fill="#FFF" d="m732,883.4c-6.3-0.5-17.3,1.1-21.3,5.6,0.1,1.1,5.4-0.8,16.4-2.5,5.4-0.7,7.8-2,9.2-2.9-1.2,0-2.7-0.1-4.3-0.2z"/>
	<path id="path513" fill="#FFF" d="m711,899.9c5-5.7,14.1-6.3,19.7-5.8,5.5,0.5,6.2,1.7,1.5,0.7-1.6-0.3-2.9,1.3-8.9,2.3-7.6,1.3-12.2,3.3-12.3,2.8z"/>
	<path id="path515" fill="#FFF" d="m559.3,909.1s9.5-13.6,17.4-23.3c8-9.6-8.6,16.1-17.4,23.3z"/>
	<path id="path517" fill="#FFF" d="m402,921.9s9.5-13.6,17.4-23.3c7.9-9.6-8.6,16.1-17.4,23.3z"/>
	<path id="path519" fill="#FFF" d="m397.4,920.7s9.5-13.6,17.4-23.3c7.9-9.6-8.6,16.1-17.4,23.3z"/>
	<path id="path521" fill="#FFF" d="m386.4,923.6s9.5-13.6,17.4-23.3c7.9-9.6-8.7,16.1-17.4,23.3z"/>
	<path id="path523" fill="#FFF" d="m384.8,916.6s9.5-13.6,17.4-23.3c8-9.6-8.6,16.1-17.4,23.3z"/>
	<path id="path525" fill="#FFF" d="m388,899.7s9.5-13.6,17.4-23.3c7.9-9.6-8.6,16.1-17.4,23.3z"/>
	<path id="path527" fill="#FFF" d="m411.6,896.8s6.9-9.4,12.7-16.1c5.8-6.6-6.2,11.2-12.7,16.1z"/>
	<path id="path529" fill="#FFF" d="m425.3,890.7s6.9-9.4,12.7-16.1c5.8-6.6-6.2,11.1-12.7,16.1z"/>
	<path id="path531" fill="#FFF" d="m552.3,909.4s17.8-24.4,25.7-34c7.9-9.7-16.9,26.8-25.7,34z"/>
	<path id="path533" fill="#FFF" d="m543,911.7s17.8-24.4,25.7-34c7.9-9.7-16.9,26.8-25.7,34z"/>
	<path id="path535" fill="#FFF" d="m448.4,908.8s17.8-24.4,25.7-34-16.9,26.8-25.7,34z"/>
	<path id="path537" fill="#FFF" d="m443.4,905.2s17.8-24.4,25.7-34-16.9,26.8-25.7,34z"/>
	<path id="path539" fill="#FFF" d="m516.4,927.5s31-41.6,38.9-51.2-30.2,44-38.9,51.2z"/>
	<path id="path541" fill="#FFF" d="m411.5,931.7s31-41.6,38.9-51.2-30.1,44-38.9,51.2z"/>
	<path id="path543" fill="#FFF" d="m405.3,929.5s31-41.6,38.9-51.2c7.9-9.7-30.2,44-38.9,51.2z"/>
	<path id="path545" fill="#FFF" d="m507.9,929.8s31-41.6,38.9-51.2-30.2,44-38.9,51.2z"/>
	<path id="path547" fill="#FFF" d="m499.4,930.2s31-41.6,38.9-51.2-30.2,44-38.9,51.2z"/>
	<path id="path549" fill="#FFF" d="m491.9,931.9s31-41.6,38.9-51.2c7.9-9.7-30.1,43.9-38.9,51.2z"/>
	<path id="path551" fill="#FFF" d="m486.2,929.4s31-41.6,38.9-51.2c7.9-9.7-30.1,44-38.9,51.2z"/>
	<path id="path553" fill="#FFF" d="m464.8,929.8s31-41.6,38.9-51.2-30.2,44-38.9,51.2z"/>
	<path id="path555" fill="#FFF" d="m457,930.7s31-41.6,38.9-51.2c7.9-9.7-30.1,43.9-38.9,51.2z"/>
	<path id="path557" fill="#FFF" d="m447.7,933.5s31-41.6,38.9-51.2c7.9-9.7-30.1,43.9-38.9,51.2z"/>
	<path id="path559" fill="#FFF" d="m446.4,927s31-41.6,38.9-51.2-30.2,44-38.9,51.2z"/>
	<path id="path561" fill="#FFF" d="m435,932.7s31-41.6,38.9-51.2c7.9-9.7-30.1,43.9-38.9,51.2z"/>
	<path id="path563" fill="#FFF" d="m476.1,932.6s21.4-28.9,35.1-45.6c7.9-9.6-26.3,38.4-35.1,45.6z"/>
	<path id="path565" fill="#FFF" d="m473.1,926.7s21.4-28.9,35.1-45.6c7.9-9.6-26.3,38.4-35.1,45.6z"/>
	<path id="path567" fill="#FFF" d="m540.4,905.5s10.9-15.7,18.8-25.3-10,18-18.8,25.3z"/>
	<path id="path569" fill="#FFF" d="m520,927.9s3.4-5.5,11.3-15.2c7.9-9.5-2.5,8-11.3,15.2z"/>
	<path id="path571" fill="#FFF" d="m491.8,931.9s28.3-38.3,38.9-51.2"/>
	<path id="path573" fill="#FFF" d="m638.6,962.4s2.6,1.1,19.3,0.7c3.4-0.1,6.3-0.4,8.7-0.8,2.3-1.5,4.6-3.1,6.9-4.7-7.3,0.8-18.1,1.5-23.5,1.5-6.9,0-11.4,3.3-11.4,3.3z"/>
	<path id="path575" fill="#FFF" d="m636.6,971.6s2,0.8,13.3,0.8c2.6-1.4,5.2-2.9,7.7-4.4-3.7,0.2-7.1,0.4-9.5,0.4-7-0.1-11.5,3.2-11.5,3.2z"/>
	<path id="path577" fill="#FFF" d="m545.9,995.9c-3.4,3.1-14.9,5.7-25.1,7.4,3.5,0.1,7,0.2,10.5,0.2h3.2c4.7-1.3,8.4-2.5,9.9-3.2,4.3-2,6.7-9.2,1.5-4.4z"/>
	<path id="path579" fill="#FFF" d="m742.6,847.7c16.6-1.9,19.9-6.4,20.3-9.1-7.1,3.8-14.7,6-22.6,6.5-4.2,0.3-8.3,0.1-12.2-0.5-8.8,1.3-18.4,4.2-18.4,4.2,0.4,3.3,8.4,1.7,32.9-1.1z"/>
	<path id="path581" fill="#FFF" d="m711.3,913.9s9.2-4.8,14.8-3.6h0.3c0.7-0.8,1.5-1.7,2.2-2.5-4.8-0.3-11.6-0.4-17.3,6.1z"/>
	<path id="path583" fill="#FFF" d="m338,886c-6.7-0.2-14.1,4.5-16.7,6.3,0.4,0.5,0.7,1,1.1,1.5,3.3-2,9.8-2.7,14-3.8,4.8-1.2,9.8-3.8,1.6-4z"/>
	<path id="path585" fill="#FFF" d="m374.5,881.6c5.8-1.3,4.7-4.8,1.7-5.1-3.9,0.9-8.3,2.2-12.5,4-14,7.2-27.2,21.3-31.2,25.8,1,1.1,2,2.3,2.9,3.4,14.4-17.9,32.7-26.7,39.1-28.1z"/>
	<path id="path587" fill="#FFF" d="m447.8,940.6-3.6,4.8s3.6-0.2,3.6-4.8z"/>
	<path id="path589" fill="#FFF" d="m434.2,946.7-3.6,4.8s3.6-0.2,3.6-4.8z"/>
	<path id="path591" fill="#FFF" d="m436.5,958.8-3.1,4.2s3.1-0.2,3.1-4.2z"/>
	<path id="path593" fill="#FFF" d="m425.3,960-3.6,4.8c0,0.1,3.6-0.1,3.6-4.8z"/>
	<path id="path595" fill="#FFF" d="m450.6,950.4-3.6,4.8s3.6-0.2,3.6-4.8z"/>
	<path id="path597" fill="#FFF" d="m460.6,938.6-3.6,4.8s3.6-0.2,3.6-4.8z"/>
	<path id="path599" fill="#FFF" d="m478.2,952.9-3.6,4.8s3.6-0.2,3.6-4.8z"/>
	<path id="path601" fill="#FFF" d="m443.5,974.2-2.9,3.9c-0.1,0.1,2.9-0.1,2.9-3.9z"/>
	<path id="path603" fill="#FFF" d="m422.3,950.4-3.6,4.8c-0.1,0,3.6-0.2,3.6-4.8z"/>
	<path id="path605" fill="#FFF" d="m411.6,954.3-4.8,6.5s4.8-0.3,4.8-6.5z"/>
	<path id="path607" fill="#FFF" d="m393,939-2.5,3.4c-0.1,0,2.5-0.1,2.5-3.4z"/>
	<path id="path609" fill="#FFF" d="m405.8,936.1-3.6,4.8s3.6-0.2,3.6-4.8z"/>
	<path id="path611" fill="#FFF" d="m483.3,961.6-3.6,4.8c-0.1,0,3.6-0.2,3.6-4.8z"/>
	<path id="path613" fill="#FFF" d="m486.7,969.6-3.6,4.8s3.6-0.2,3.6-4.8z"/>
	<path id="path615" fill="#FFF" d="m469.3,966.1-3.1,4.1s3.1-0.2,3.1-4.1z"/>
	<path id="path617" fill="#FFF" d="m473.3,973.3-2.9,3.9s2.9-0.2,2.9-3.9z"/>
	<path id="path619" fill="#FFF" d="m477,982-2.7,3.5s2.7-0.1,2.7-3.5z"/>
	<path id="path621" fill="#FFF" d="m464.2,986.2-2.5,3.4c0-0.1,2.5-0.2,2.5-3.4z"/>
	<path id="path623" fill="#FFF" d="m460.9,978.9-3.6,4.8s3.6-0.2,3.6-4.8z"/>
	<path id="path625" fill="#FFF" d="m457.9,967.5-3.6,4.8s3.6-0.2,3.6-4.8z"/>
	<path id="path627" fill="#FFF" d="m453.6,959.9-2.8,3.7c0,0.1,2.8-0.1,2.8-3.7z"/>
	<path id="path629" fill="#FFF" d="m476.7,942.2-3.6,4.8s3.6-0.2,3.6-4.8z"/>
	<path id="path631" fill="#FFF" d="m488.6,938.8-3.6,4.8s3.6-0.2,3.6-4.8z"/>
	<path id="path633" fill="#FFF" d="m492.5,948.2-2.7,3.5c0.1,0,2.7-0.1,2.7-3.5z"/>
	<path id="path635" fill="#FFF" d="m505.2,944.9-2.7,3.5c0.1,0,2.7-0.1,2.7-3.5z"/>
	<path id="path637" fill="#FFF" d="m517.7,941.3-2.7,3.5s2.7-0.1,2.7-3.5z"/>
	<path id="path639" fill="#FFF" d="m529.5,935.9-2.7,3.5s2.7-0.1,2.7-3.5z"/>
	<path id="path641" fill="#FFF" d="m552.8,912.7-2.7,3.5c0.1,0,2.2-0.1,2.7-3.5z"/>
	<path id="path643" fill="#FFF" d="m437.2,907.9-2.7,3.5c0.1,0,2.2-0.1,2.7-3.5z"/>
	<path id="path645" fill="#FFF" d="m411.6,883-2.7,3.5s2.1-0.1,2.7-3.5z"/>
	<path id="path647" fill="#FFF" d="m496.3,957.1-3.6,4.8c0,0.1,3.6-0.1,3.6-4.8z"/>
	<path id="path649" fill="#FFF" d="m449.3,981-3.6,4.8s3.6-0.2,3.6-4.8z"/>
	<path id="path651" fill="#FFF" d="m429.1,968.4-3.6,4.8s3.6-0.2,3.6-4.8z"/>
	<path id="path653" fill="#FFF" d="m420.9,940.5-4.4,5.9c0-0.1,4.4-0.3,4.4-5.9z"/>
	<path id="path655" fill="#FFF" d="m408.3,944.5-3.6,4.8c-0.1,0,3.6-0.2,3.6-4.8z"/>
	<path id="path657" fill="#FFF" d="m412.5,963.4-3.6,4.8s3.6-0.2,3.6-4.8z"/>
	<path id="path659" fill="#FFF" d="m399.4,954.9-3.6,4.8c0,0.1,3.6-0.2,3.6-4.8z"/>
	<path id="path661" fill="#FFF" d="m396.6,945.7-3.6,4.8s3.6-0.2,3.6-4.8z"/>
	<path id="path663" d="m689.2,516.2c0,2,1.2,4,1.6,5.6s3.6,2,3.2,0.4-1.2-3.6-1.6-4.8-3.2-3.2-3.2-1.2z"/>
	<path id="path665" d="m676.8,513c0,1.9,1.1,3.8,1.4,5.3,0.4,1.5,3.4,1.8,3.1,0.3s-1-3.4-1.4-4.6c-0.3-1.1-3.1-2.9-3.1-1z"/>
	<path id="path667" d="m665.7,511.9c0,1.7,0.9,3.7,1.2,5s3.2,1.7,3,0.2c-0.2-1.4-0.9-3.2-1.2-4.3-0.2-1.2-3.1-2.7-3-0.9z"/>
	<path id="path669" d="m661.6,498.1c0,1.7,0.9,2.9,1.2,4.2s3.2,1.7,3,0.2c-0.2-1.4-0.9-2.4-1.2-3.5-0.2-1.2-3-2.7-3-0.9z"/>
	<path id="path671" d="m655.9,510.7c0,1.6,0.8,3.5,1,4.7,0.3,1.2,3,1.5,2.9,0.2s-0.7-3-0.9-4c-0.2-1.3-3-2.6-3-0.9z"/>
	<path id="path673" d="m646.4,510.3c0.1,1.4,0.6,3.3,0.9,4.4,0.2,1.1,2.8,1.3,2.8,0.1,0-1.3-0.5-2.8-0.7-3.8-0.2-1.3-3.1-2.3-3-0.7z"/>
	<path id="path675" d="m637.2,510.7c0.1,1.3,0.5,3.2,0.7,4.1s2.6,1.2,2.7,0-0.4-2.6-0.5-3.5c-0.1-1.3-3-2.1-2.9-0.6z"/>
	<path id="path677" d="m628.7,511.1c0.1,1.1,0.3,3,0.5,3.8,0.1,0.8,2.5,1,2.6-0.1,0.2-1.1-0.2-2.5-0.3-3.3,0-1.3-2.9-1.8-2.8-0.4z"/>
	<path id="path679" d="m621.7,512.2c0.1,1,0.2,2.8,0.3,3.5s2.3,0.9,2.5-0.1c0.3-1,0-2.3,0-3-0.1-1.4-3-1.7-2.8-0.4z"/>
	<path id="path681" d="m652.8,498.2c0,1.5,0.8,2.7,1.1,3.9s2.9,1.5,2.8,0.2c-0.2-1.3-0.8-2.3-1-3.2-0.3-1.2-2.9-2.6-2.9-0.9z"/>
	<path id="path683" d="m667.4,487.7c0,1.5,0.8,2.7,1.1,3.9s2.9,1.5,2.8,0.2c-0.2-1.3-0.8-2.3-1-3.2-0.3-1.2-3-2.6-2.9-0.9z"/>
	<path id="path685" d="m644.1,498.8c0,1.4,0.7,2.5,0.9,3.5,0.2,1.1,2.7,1.3,2.5,0.1-0.1-1.2-0.6-2.1-0.8-3s-2.6-2-2.6-0.6z"/>
	<path id="path687" d="m635.3,499.9c0,1.2,0.6,2.3,0.8,3.2s2.4,1.2,2.3,0.1-0.5-1.9-0.7-2.7c-0.2-1-2.5-2-2.4-0.6z"/>
	<path id="path689" d="m627.7,500.7c0,1,0.5,2.1,0.6,2.9,0.2,0.8,2.1,1,2.1,0.1s-0.4-1.7-0.5-2.4c-0.1-1-2.3-1.8-2.2-0.6z"/>
	<path id="path691" d="m619.3,501.8c0.1,0.9,0.3,1.9,0.5,2.5,0.1,0.6,1.8,0.8,1.8,0s-0.3-1.6-0.4-2.2c0-0.7-2-1.3-1.9-0.3z"/>
	<path id="path693" d="m654.6,477.8c0.1,0.9,0.3,1.9,0.5,2.5,0.1,0.6,1.8,0.8,1.8,0s-0.3-1.6-0.4-2.2c0-0.8-2-1.3-1.9-0.3z"/>
	<path id="path695" d="m658.7,487.5c0,1.4,0.7,2.5,1,3.7s2.8,1.4,2.6,0.2c-0.1-1.2-0.7-2.1-0.9-3.1-0.2-1.1-2.8-2.3-2.7-0.8z"/>
	<path id="path697" d="m650.1,487.7c0,1.3,0.6,2.4,0.9,3.4,0.2,1,2.6,1.3,2.5,0.1s-0.6-2-0.8-2.9-2.6-2-2.6-0.6z"/>
	<path id="path699" d="m640.5,488.3c0,1.2,0.6,2.3,0.8,3.2s2.4,1.2,2.3,0.1-0.5-1.9-0.7-2.7c-0.2-1-2.5-2-2.4-0.6z"/>
	<path id="path701" d="m633.3,489.8c0,1.1,0.5,2.2,0.7,3s2.2,1,2.1,0.1-0.4-1.8-0.6-2.5c-0.1-1-2.3-1.8-2.2-0.6z"/>
	<path id="path703" d="m624.4,491.2c0,1,0.4,2,0.6,2.8,0.2,0.7,2,0.9,2,0s-0.4-1.7-0.5-2.3c-0.1-1-2.2-1.7-2.1-0.5z"/>
	<path id="path705" d="m616.6,492.5c0,0.9,0.3,1.9,0.5,2.5s1.8,0.8,1.8,0-0.3-1.6-0.4-2.2c0-0.8-1.9-1.3-1.9-0.3z"/>
	<path id="path707" d="m611.8,503.3c0.1,0.7,0.2,1.7,0.3,2.2s1.5,0.6,1.6,0-0.1-1.4-0.2-1.9c0-0.8-1.8-1.1-1.7-0.3z"/>
	<path id="path709" d="m647.3,478.4c0.1,0.7,0.2,1.7,0.3,2.2s1.5,0.6,1.6,0-0.1-1.4-0.2-1.9c0-0.8-1.8-1.2-1.7-0.3z"/>
	<path id="path711" d="m613.8,514c0.1,0.9,0.2,2.7,0.3,3.3s2.2,0.8,2.4-0.1c0.2-1,0-2.2,0-2.9-0.1-1.2-2.8-1.5-2.7-0.3z"/>
	<path id="path713" d="m606.6,514.6c0.1,0.9,0.2,2.6,0.3,3.1,0.1,0.6,2.1,0.8,2.3-0.1s0-2.1,0-2.7c-0.1-1.2-2.8-1.5-2.6-0.3z"/>
	<path id="path715" d="m597.9,515.8c0.1,0.8,0.2,2.4,0.3,3s1.9,0.7,2.2-0.1c0.2-0.9,0-1.9,0-2.6-0.1-1.2-2.6-1.5-2.5-0.3z"/>
	<path id="path717" d="m589.4,517.1c0.1,0.8,0.2,2.3,0.2,2.8,0.1,0.5,1.8,0.7,2.1-0.1,0.2-0.8,0-1.8,0-2.5-0.1-1-2.5-1.3-2.3-0.2z"/>
	<path id="path719" d="m581.3,519.2c0.1,0.7,0.2,2.2,0.2,2.7,0.1,0.5,1.7,0.7,1.9-0.1s0-1.7,0-2.3c0-1-2.3-1.3-2.1-0.3z"/>
	<path id="path721" d="m572.4,520.6c0.1,0.7,0.1,2,0.2,2.5s1.6,0.6,1.8-0.1,0-1.6,0-2.2c0-0.9-2.1-1.2-2-0.2z"/>
	<path id="path723" d="m564.8,523.1c0.1,0.7,0.1,1.9,0.2,2.4,0.1,0.4,1.5,0.6,1.7-0.1s0-1.5,0-2.1c0-0.9-2-1.1-1.9-0.2z"/>
	<path id="path725" d="m557.4,525.2c0.1,0.6,0.1,1.8,0.2,2.2s1.4,0.5,1.6-0.1,0-1.4,0-1.9c-0.1-0.8-1.9-1-1.8-0.2z"/>
	<path id="path727" d="m554.8,515.7c0.1,0.6,0.1,1.8,0.2,2.2s1.4,0.5,1.6-0.1,0-1.4,0-1.9c0-0.9-1.9-1.1-1.8-0.2z"/>
	<path id="path729" d="m550.3,527.8c0.1,0.6,0.1,1.7,0.2,2,0.1,0.4,1.3,0.5,1.5-0.1,0.1-0.6,0-1.3,0-1.8,0-0.7-1.7-0.9-1.7-0.1z"/>
	<path id="path731" d="m563.1,513.6c0.1,0.6,0.1,1.7,0.2,2,0.1,0.4,1.3,0.5,1.5-0.1,0.1-0.6,0-1.3,0-1.8,0-0.7-1.8-0.9-1.7-0.1z"/>
	<path id="path733" d="m547.9,518.9c0.1,0.6,0.1,1.7,0.2,2,0.1,0.4,1.3,0.5,1.5-0.1,0.1-0.6,0-1.3,0-1.8-0.1-0.6-1.8-0.8-1.7-0.1z"/>
	<path id="path735" d="m543,530.2c0.1,0.5,0.1,1.5,0.2,1.9s1.2,0.5,1.4-0.1c0.1-0.5,0-1.2,0-1.6-0.1-0.7-1.7-0.9-1.6-0.2z"/>
	<path id="path737" d="m571.9,512.2c0.1,0.5,0.1,1.5,0.2,1.9s1.2,0.5,1.4-0.1c0.1-0.5,0-1.2,0-1.6-0.1-0.7-1.6-0.9-1.6-0.2z"/>
	<path id="path739" d="m623.1,482.7c0.1,0.5,0.1,1.5,0.2,1.9s1.2,0.5,1.4-0.1c0.1-0.5,0-1.2,0-1.6-0.1-0.7-1.7-0.9-1.6-0.2z"/>
	<path id="path741" d="m603.5,504.2c0.1,0.5,0.1,1.5,0.2,1.9s1.2,0.5,1.4-0.1c0.1-0.5,0-1.2,0-1.6-0.1-0.7-1.7-0.9-1.6-0.2z"/>
	<path id="path743" d="m639.1,479.6c0.1,0.5,0.1,1.5,0.2,1.9s1.2,0.5,1.4-0.1c0.1-0.5,0-1.2,0-1.6-0.1-0.8-1.7-0.9-1.6-0.2z"/>
	<path id="path745" d="m540.9,521.1c0.1,0.5,0.1,1.5,0.2,1.9s1.2,0.5,1.4-0.1c0.1-0.5,0-1.2,0-1.6-0.1-0.8-1.7-0.9-1.6-0.2z"/>
	<path id="path747" d="m607.3,486c0.1,0.5,0.1,1.5,0.2,1.9s1.2,0.5,1.4-0.1c0.1-0.5,0-1.2,0-1.6-0.1-0.7-1.7-0.9-1.6-0.2z"/>
	<path id="path749" d="m591.7,489c0.1,0.5,0.1,1.5,0.2,1.9s1.2,0.5,1.4-0.1,0-1.2,0-1.6c-0.1-0.8-1.6-1-1.6-0.2z"/>
	<path id="path751" d="m535.3,532.9c0.1,0.5,0.1,1.4,0.1,1.7s1.1,0.4,1.3-0.1c0.1-0.5,0-1.1,0-1.5,0-0.6-1.5-0.8-1.4-0.1z"/>
	<path id="path753" d="m672.8,502c0.3,0.9,1.8,1.5,1.8,1.1,0-0.3,0.7-1.2,0.4-2.3-0.2-1-1.8-1.9-1.8-1.3-0.2,0.2-0.8,1.2-0.4,2.5z"/>
	<path id="path755" d="m684,503.7c0.3,0.6,0.4,1.3,0.7,2,0.3,0.8,2.2,0.8,2-0.4-0.1-0.8-0.5-1.1-0.6-1.6-0.5-1.1-2.6-1.1-2.1,0z"/>
	<path id="path757" d="m448.4,460.8c1.6-0.6,1.3-0.7,2.5-0.7s2.1,1.1,0.2,1.8c-1.5,0.5-2.6,0.6-2.6,0.6s-0.5-1.6-0.1-1.7z"/>
	<path id="path759" d="m445.6,455.2c1.6-0.6,1.3-0.7,2.5-0.7s2.1,1.1,0.2,1.8c-1.5,0.5-2.6,0.6-2.6,0.6s-0.5-1.6-0.1-1.7z"/>
	<path id="path761" d="m439.9,463.9c1.6-0.6,1.3-0.7,2.5-0.7s2.1,1.1,0.2,1.8c-1.5,0.5-2.6,0.6-2.6,0.6s-0.5-1.6-0.1-1.7z"/>
	<path id="path763" d="m458,459c1.6-0.6,1.3-0.7,2.5-0.7s2.1,1.1,0.2,1.8c-1.5,0.5-2.6,0.6-2.6,0.6s-0.5-1.5-0.1-1.7z"/>
	<path id="path765" d="m488.9,495.7c1.6-0.6,1.3-0.7,2.5-0.7s2.1,1.1,0.2,1.8c-1.5,0.5-2.6,0.6-2.6,0.6s-0.5-1.5-0.1-1.7z"/>
	<path id="path767" d="m486.1,570.6c1.6-0.6,1.3-0.7,2.5-0.7s2.1,1.1,0.2,1.8c-1.5,0.5-2.6,0.6-2.6,0.6s-0.5-1.5-0.1-1.7z"/>
	<path id="path769" d="m463.3,461.7c1.3,0,2.3,1.2,0.3,1.9-1.5,0.5-2.6,0.6-2.7,0.6s-0.7-1.6-0.2-1.8c1.6-0.6,1.4-0.6,2.6-0.7z"/>
	<path id="path771" d="m508.2,585.2c1.3,0,2.3,1.2,0.3,1.9-1.5,0.5-2.6,0.6-2.7,0.6s-0.6-1.6-0.2-1.8c1.6-0.6,1.4-0.7,2.6-0.7z"/>
	<path id="path773" d="m518.6,582.4c1.3,0,2.3,1.2,0.3,1.9-1.5,0.5-2.6,0.6-2.7,0.6s-0.7-1.6-0.2-1.8c1.6-0.6,1.4-0.7,2.6-0.7z"/>
	<path id="path775" d="m466,466.4c1.3-0.1,2.5,1.2,0.4,1.9-1.6,0.6-2.7,0.6-2.9,0.7s-0.8-1.7-0.3-1.9c1.8-0.6,1.6-0.6,2.8-0.7z"/>
	<path id="path777" d="m468.5,471.6c1.4-0.1,2.6,1.2,0.6,2-1.7,0.6-2.7,0.6-3,0.7s-1-1.7-0.4-2c1.6-0.6,1.5-0.6,2.8-0.7z"/>
	<path id="path779" d="m506.6,579.2c1.4-0.1,2.6,1.2,0.6,2-1.7,0.6-2.7,0.6-3,0.7s-1-1.7-0.4-2c1.6-0.6,1.6-0.6,2.8-0.7z"/>
	<path id="path781" d="m470.9,477.2c1.5-0.2,2.8,1.2,0.7,2-1.8,0.7-2.8,0.6-3.1,0.8-0.4,0.2-1.1-1.7-0.4-2,1.5-0.6,1.6-0.7,2.8-0.8z"/>
	<path id="path783" d="m503.4,566.3c1.5-0.2,2.8,1.2,0.7,2-1.8,0.7-2.8,0.6-3.1,0.8-0.4,0.2-1.1-1.7-0.4-2,1.5-0.6,1.6-0.7,2.8-0.8z"/>
	<path id="path785" d="m514.6,555.5c1.4-0.2,2.8,1.2,0.7,2-1.8,0.7-2.8,0.6-3.1,0.8-0.4,0.2-1.1-1.7-0.4-2,1.5-0.7,1.6-0.7,2.8-0.8z"/>
	<path id="path787" d="m513.1,548.3c1.5-0.2,2.8,1.2,0.7,2-1.8,0.7-2.8,0.6-3.1,0.8-0.4,0.2-1.1-1.7-0.4-2,1.5-0.7,1.6-0.7,2.8-0.8z"/>
	<path id="path789" d="m497.5,505.7c1.5-0.2,2.8,1.2,0.7,2-1.8,0.7-2.8,0.6-3.1,0.8-0.4,0.2-1.1-1.7-0.4-2,1.5-0.6,1.6-0.7,2.8-0.8z"/>
	<path id="path791" d="m494.2,499.7c1.4-0.2,2.8,1.2,0.7,2-1.8,0.7-2.8,0.6-3.1,0.8-0.4,0.2-1.1-1.7-0.4-2,1.6-0.7,1.6-0.7,2.8-0.8z"/>
	<path id="path793" d="m518.2,570c1.5-0.2,2.8,1.2,0.7,2-1.8,0.7-2.8,0.6-3.1,0.8-0.4,0.2-1.1-1.7-0.4-2,1.5-0.7,1.6-0.8,2.8-0.8z"/>
	<path id="path795" d="m473.3,481.7c1.5-0.2,3,1.3,0.8,2.1-1.8,0.7-2.9,0.6-3.3,0.8s-1.3-1.8-0.5-2.1c1.6-0.7,1.8-0.7,3-0.8z"/>
	<path id="path797" d="m475.7,487.7c1.6-0.3,3.2,1.3,0.9,2.1-1.9,0.7-2.9,0.6-3.4,0.9s-1.4-1.8-0.6-2.2c1.6-0.6,1.9-0.7,3.1-0.8z"/>
	<path id="path799" d="m501.1,558.9c1.6-0.3,3.2,1.3,0.9,2.1-1.9,0.7-2.9,0.6-3.4,0.9s-1.4-1.8-0.6-2.2c1.6-0.6,1.9-0.7,3.1-0.8z"/>
	<path id="path801" d="m516.9,562.2c1.6-0.3,3.2,1.3,0.9,2.1-1.9,0.7-2.9,0.6-3.4,0.9s-1.4-1.8-0.6-2.2c1.6-0.6,1.9-0.7,3.1-0.8z"/>
	<path id="path803" d="m477.7,492.1c1.6-0.3,3.3,1.3,1.1,2.2-2,0.8-3,0.6-3.6,1-0.6,0.3-1.6-1.9-0.7-2.3,1.6-0.7,2-0.7,3.2-0.9z"/>
	<path id="path805" d="m498.3,552.5c1.6-0.3,3.3,1.3,1.1,2.2-2,0.8-3,0.6-3.6,1s-1.6-1.9-0.7-2.3c1.6-0.7,2-0.7,3.2-0.9z"/>
	<path id="path807" d="m511,541.5c1.6-0.3,3.3,1.3,1.1,2.2-2,0.8-3,0.6-3.6,1-0.6,0.3-1.6-1.9-0.7-2.3,1.6-0.7,2-0.8,3.2-0.9z"/>
	<path id="path809" d="m508.6,536.2c1.6-0.3,3.3,1.3,1.1,2.2-2,0.8-3,0.6-3.6,1-0.6,0.3-1.6-1.9-0.7-2.3,1.6-0.7,2-0.7,3.2-0.9z"/>
	<path id="path811" d="m505.8,529.8c1.6-0.3,3.3,1.3,1.1,2.2-2,0.8-3,0.6-3.6,1-0.6,0.3-1.6-1.9-0.7-2.3,1.6-0.7,2-0.7,3.2-0.9z"/>
	<path id="path813" d="m480.1,498.1c1.7-0.3,3.5,1.3,1.2,2.3-2.1,0.8-3,0.7-3.7,1-0.7,0.4-1.7-1.9-0.8-2.4,1.6-0.7,2.1-0.7,3.3-0.9z"/>
	<path id="path815" d="m496.6,546.8c1.7-0.3,3.5,1.3,1.2,2.3-2.1,0.8-3,0.7-3.7,1-0.7,0.4-1.7-1.9-0.8-2.4,1.5-0.7,2.1-0.7,3.3-0.9z"/>
	<path id="path817" d="m482,503.4c1.8-0.4,3.7,1.4,1.3,2.3-2.1,0.9-3.1,0.7-3.9,1.1s-1.9-2-0.9-2.5c1.7-0.6,2.3-0.7,3.5-0.9z"/>
	<path id="path819" d="m494.8,539.6c1.8-0.4,3.7,1.4,1.3,2.3-2.1,0.9-3.1,0.7-3.9,1.1s-1.9-2-0.9-2.5c1.7-0.7,2.3-0.7,3.5-0.9z"/>
	<path id="path821" d="m503.3,523.5c1.8-0.4,3.7,1.4,1.3,2.3-2.1,0.9-3.1,0.7-3.9,1.1s-1.9-2-0.9-2.5c1.6-0.7,2.3-0.7,3.5-0.9z"/>
	<path id="path823" d="m484.3,508.6c1.8-0.4,3.8,1.4,1.4,2.4-2.2,0.9-3.1,0.7-4,1.1s-2-2-0.9-2.5c1.5-0.8,2.3-0.8,3.5-1z"/>
	<path id="path825" d="m493.1,533.1c1.8-0.4,3.8,1.4,1.4,2.4-2.2,0.9-3.1,0.7-4,1.1s-2-2-0.9-2.5c1.6-0.8,2.3-0.8,3.5-1z"/>
	<path id="path827" d="m486.1,515.7c1.9-0.5,4,1.4,1.5,2.4-2.3,0.9-3.2,0.7-4.2,1.2s-2.2-2.1-1-2.6c1.7-0.7,2.5-0.7,3.7-1z"/>
	<path id="path829" d="m490.6,527.4c1.9-0.5,4,1.4,1.5,2.4-2.3,0.9-3.2,0.7-4.2,1.2s-2.2-2.1-1-2.6c1.6-0.7,2.5-0.7,3.7-1z"/>
	<path id="path831" d="m501.1,517.3c1.9-0.5,4,1.4,1.5,2.4-2.3,0.9-3.2,0.7-4.2,1.2s-2.2-2.1-1-2.6c1.6-0.8,2.5-0.8,3.7-1z"/>
	<path id="path833" d="m443.2,467.6c1.3-0.1,2.4,1.2,0.4,1.9-1.6,0.6-2.6,0.6-2.7,0.6-0.1,0.1-0.7-1.6-0.2-1.8,1.5-0.6,1.3-0.7,2.5-0.7z"/>
	<path id="path835" d="m444.8,472.4c1.4-0.1,2.6,1.2,0.5,1.9-1.6,0.6-2.7,0.6-2.9,0.7s-0.9-1.7-0.3-1.9c1.5-0.6,1.5-0.6,2.7-0.7z"/>
	<path id="path837" d="m477.2,573.6c1.4-0.1,2.6,1.2,0.5,1.9-1.6,0.6-2.7,0.6-2.9,0.7s-0.9-1.7-0.3-1.9c1.5-0.6,1.5-0.6,2.7-0.7z"/>
	<path id="path839" d="m478,580.8c1.4-0.1,2.6,1.2,0.5,1.9-1.6,0.6-2.7,0.6-2.9,0.7s-0.9-1.7-0.3-1.9c1.5-0.5,1.5-0.6,2.7-0.7z"/>
	<path id="path841" d="m480.4,586.1c1.4-0.1,2.6,1.2,0.5,1.9-1.6,0.6-2.7,0.6-2.9,0.7s-0.9-1.7-0.3-1.9c1.5-0.6,1.5-0.7,2.7-0.7z"/>
	<path id="path843" d="m445.2,478.9c1.4-0.2,2.8,1.2,0.7,2-1.7,0.6-2.8,0.6-3.1,0.8s-1.1-1.7-0.4-2c1.5-0.7,1.6-0.8,2.8-0.8z"/>
	<path id="path845" d="m474.5,567.1c1.4-0.2,2.8,1.2,0.7,2-1.7,0.6-2.8,0.6-3.1,0.8s-1.1-1.7-0.4-2c1.5-0.6,1.6-0.7,2.8-0.8z"/>
	<path id="path847" d="m447.6,483.7c1.5-0.2,3,1.3,0.8,2.1-1.8,0.7-2.9,0.6-3.3,0.8-0.5,0.2-1.3-1.8-0.5-2.1,1.6-0.7,1.8-0.7,3-0.8z"/>
	<path id="path849" d="m449.6,488.9c1.6-0.3,3.2,1.3,1,2.2-1.9,0.7-2.9,0.6-3.5,0.9s-1.5-1.9-0.6-2.2c1.5-0.7,1.9-0.8,3.1-0.9z"/>
	<path id="path851" d="m472.3,560.2c1.6-0.3,3.2,1.3,1,2.2-1.9,0.7-2.9,0.6-3.5,0.9s-1.5-1.9-0.6-2.2c1.5-0.8,1.9-0.8,3.1-0.9z"/>
	<path id="path853" d="m449.7,494.7c1.7-0.3,3.4,1.3,1.1,2.2-2,0.8-3,0.7-3.7,1s-1.7-1.9-0.7-2.3c1.6-0.7,2.1-0.7,3.3-0.9z"/>
	<path id="path855" d="m470.1,554.7c1.7-0.3,3.4,1.3,1.1,2.2-2,0.8-3,0.7-3.7,1s-1.7-1.9-0.7-2.3c1.6-0.7,2.1-0.7,3.3-0.9z"/>
	<path id="path857" d="m452.2,499.1c1.8-0.4,3.7,1.4,1.3,2.3-2.1,0.8-3.1,0.7-3.9,1.1s-1.8-2-0.8-2.5c1.6-0.7,2.2-0.7,3.4-0.9z"/>
	<path id="path859" d="m467.2,547.6c1.8-0.4,3.7,1.4,1.3,2.3-2.1,0.8-3.1,0.7-3.9,1.1s-1.8-2-0.8-2.5c1.5-0.7,2.2-0.7,3.4-0.9z"/>
	<path id="path861" d="m454.6,505c1.8-0.4,3.9,1.4,1.4,2.4-2.2,0.9-3.2,0.7-4.1,1.1-0.9,0.5-2-2-1-2.6,1.7-0.7,2.5-0.7,3.7-0.9z"/>
	<path id="path863" d="m465.4,541.1c1.8-0.4,3.9,1.4,1.4,2.4-2.2,0.9-3.2,0.7-4.1,1.1-0.9,0.5-2-2-1-2.6,1.7-0.7,2.5-0.7,3.7-0.9z"/>
	<path id="path865" d="m456.4,510.9c1.9-0.5,4.1,1.4,1.6,2.4-2.3,0.9-3.2,0.7-4.3,1.2-1,0.5-2.2-2.1-1.1-2.7,1.7-0.6,2.6-0.6,3.8-0.9z"/>
	<path id="path867" d="m464,536.3c1.9-0.5,4.1,1.4,1.6,2.4-2.3,0.9-3.2,0.7-4.3,1.2s-2.2-2.1-1.1-2.7c1.7-0.6,2.6-0.6,3.8-0.9z"/>
	<path id="path869" d="m458.3,516.5c2-0.5,4.3,1.5,1.8,2.5-2.4,1-3.3,0.7-4.4,1.3s-2.4-2.2-1.2-2.8c1.5-0.7,2.6-0.7,3.8-1z"/>
	<path id="path871" d="m461.1,530.1c2-0.5,4.3,1.5,1.8,2.5-2.4,1-3.3,0.7-4.4,1.3s-2.4-2.2-1.2-2.8c1.5-0.7,2.6-0.7,3.8-1z"/>
	<path id="path873" d="m452.9,465.3c1.3-0.1,2.5,1.2,0.4,1.9-1.6,0.6-2.7,0.6-2.9,0.7s-0.8-1.7-0.3-1.9c1.7-0.6,1.6-0.6,2.8-0.7z"/>
	<path id="path875" d="m487.3,562.8c1.3-0.1,2.5,1.2,0.4,1.9-1.6,0.6-2.7,0.6-2.9,0.7s-0.8-1.7-0.3-1.9c1.7-0.6,1.6-0.6,2.8-0.7z"/>
	<path id="path877" d="m493.7,583.2c1.3-0.1,2.5,1.2,0.4,1.9-1.6,0.6-2.7,0.6-2.9,0.7s-0.8-1.7-0.3-1.9c1.8-0.6,1.6-0.7,2.8-0.7z"/>
	<path id="path879" d="m495.3,588.4c1.3-0.1,2.5,1.2,0.4,1.9-1.6,0.6-2.7,0.6-2.9,0.7s-0.8-1.7-0.3-1.9c1.8-0.6,1.6-0.6,2.8-0.7z"/>
	<path id="path881" d="m482.5,593.3c1.3-0.1,2.5,1.2,0.4,1.9-1.6,0.6-2.7,0.6-2.9,0.7s-0.8-1.7-0.3-1.9c1.7-0.6,1.5-0.6,2.8-0.7z"/>
	<path id="path883" d="m454.9,468.9c1.5-0.2,2.8,1.2,0.7,2-1.8,0.7-2.8,0.6-3.1,0.8-0.4,0.2-1.1-1.7-0.4-2,1.5-0.6,1.6-0.7,2.8-0.8z"/>
	<path id="path885" d="m482.6,550.7c1.5-0.2,2.8,1.2,0.7,2-1.8,0.7-2.8,0.6-3.1,0.8-0.4,0.2-1.1-1.7-0.4-2,1.5-0.7,1.6-0.7,2.8-0.8z"/>
	<path id="path887" d="m485.4,557.5c1.5-0.2,2.8,1.2,0.7,2-1.8,0.7-2.8,0.6-3.1,0.8-0.4,0.2-1.1-1.7-0.4-2,1.5-0.7,1.6-0.7,2.8-0.8z"/>
	<path id="path889" d="m457,474.9c1.6-0.3,3.2,1.3,0.9,2.1-1.9,0.7-2.9,0.6-3.4,0.9s-1.4-1.8-0.6-2.2c1.6-0.6,1.9-0.6,3.1-0.8z"/>
	<path id="path891" d="m481.4,544c1.6-0.3,3.2,1.3,0.9,2.1-1.9,0.7-2.9,0.6-3.4,0.9s-1.4-1.8-0.6-2.2c1.6-0.6,1.9-0.6,3.1-0.8z"/>
	<path id="path893" d="m459,480.1c1.7-0.3,3.5,1.3,1.2,2.3-2.1,0.8-3,0.7-3.7,1-0.7,0.4-1.7-1.9-0.8-2.4,1.6-0.7,2.1-0.7,3.3-0.9z"/>
	<path id="path895" d="m479.8,538.2c1.7-0.3,3.5,1.3,1.2,2.3-2.1,0.8-3,0.7-3.7,1-0.7,0.4-1.7-1.9-0.8-2.4,1.6-0.7,2.1-0.7,3.3-0.9z"/>
	<path id="path897" d="m461.1,485.3c1.8-0.4,3.8,1.4,1.4,2.4-2.2,0.9-3.1,0.7-4,1.1s-2-2-0.9-2.5c1.5-0.7,2.3-0.7,3.5-1z"/>
	<path id="path899" d="m477.1,532.3c1.8-0.4,3.8,1.4,1.4,2.4-2.2,0.9-3.1,0.7-4,1.1s-2-2-0.9-2.5c1.5-0.8,2.3-0.8,3.5-1z"/>
	<path id="path901" d="m463.1,490.5c1.9-0.5,4.2,1.4,1.7,2.5-2.4,1-3.3,0.7-4.3,1.3-1.1,0.5-2.3-2.1-1.1-2.7,1.6-0.8,2.5-0.8,3.7-1.1z"/>
	<path id="path903" d="m475.2,524.9c1.9-0.5,4.2,1.4,1.7,2.5-2.4,1-3.3,0.7-4.3,1.3-1.1,0.5-2.3-2.1-1.1-2.7,1.5-0.8,2.5-0.8,3.7-1.1z"/>
	<path id="path905" d="m488.5,520.9c1.9-0.5,4.2,1.4,1.7,2.5-2.4,1-3.3,0.7-4.3,1.3s-2.3-2.1-1.1-2.7c1.5-0.8,2.5-0.8,3.7-1.1z"/>
	<path id="path907" d="m499.7,510.9c1.9-0.5,4.2,1.4,1.7,2.5-2.4,1-3.3,0.7-4.3,1.3-1.1,0.5-2.3-2.1-1.1-2.7,1.5-0.8,2.5-0.8,3.7-1.1z"/>
	<path id="path909" d="m465.2,496.5c2.1-0.6,4.5,1.5,1.9,2.6-2.5,1-3.4,0.7-4.6,1.4-1.2,0.6-2.6-2.2-1.3-2.9,1.6-0.7,2.8-0.7,4-1.1z"/>
	<path id="path911" d="m473.2,520.2c2.1-0.6,4.5,1.5,1.9,2.6-2.5,1-3.4,0.7-4.6,1.4-1.2,0.6-2.6-2.2-1.3-2.9,1.6-0.7,2.8-0.7,4-1.1z"/>
	<path id="path913" d="m459.8,523.2c2.1-0.6,4.5,1.5,1.9,2.6-2.5,1-3.4,0.7-4.6,1.4-1.2,0.6-2.6-2.2-1.3-2.9,1.6-0.8,2.8-0.8,4-1.1z"/>
	<path id="path915" d="m467.2,501.7c2.2-0.7,4.9,1.6,2.2,2.7s-3.5,0.8-4.9,1.5-2.9-2.3-1.4-3c1.5-0.8,2.9-0.8,4.1-1.2z"/>
	<path id="path917" d="m471.1,513.5c2.2-0.7,4.9,1.6,2.2,2.7s-3.5,0.8-4.9,1.5-2.9-2.3-1.4-3c1.5-0.9,2.9-0.9,4.1-1.2z"/>
	<path id="path919" d="m469.3,506.9c2.3-0.8,5.2,1.6,2.4,2.8s-3.6,0.8-5.2,1.6-3.2-2.4-1.6-3.2c1.5-0.8,3.2-0.8,4.4-1.2z"/>
	<path id="path921" fill="#FFF" d="m450.6,548.9c-7.4,10.5-19,22.2-30.3,33.6l-1.9,2c4.2,1.5,11.8,4.7,12.2,7.5,0.4,3.4,0,9.8-2.8,12.4s-7.8,6.2-10.8,5.8-4.2-1.6-4.2-4.2,2.6-3.6,4.8-3.8,3.8-2.2,3.8-3.8-2-3.2-3.8-5.2c-1.4-1.6-2.4-3-3-4.8l-5,5.1c-8.7,9.1-6.7,17.3-2.3,21.6,3.7,3.7,10.1,5.2,14.4,0.9,6.2-6.2,17.9-17.2,27.1-25.7,3.5-6.8,9.1-10.3,12.1-11.8-3.9-10.1-7.3-20-10.3-29.6z"/>
	<path id="path923" d="m432.3,595c-0.3-1.8,3.6,4.2,1.6,4.2-2,0.1-1.2-1.8-1.6-4.2z"/>
	<path id="path925" d="m450.6,554.3s6.4,16.5,6.8,18.9-1.6,3.4-2.4,0.4-9.2-22.1-4.4-19.3z"/>
	<path id="path927" d="m447.8,559.9c1.2,2.9,4.4,11.6,4.8,14.4s-1.6,6-3,3-5.4-12.6-5.4-14.6,2.8-4.8,3.6-2.8z"/>
	<path id="path929" d="m443.2,568.2c1.3,2.2,3.6,9.6,4.2,12s-0.8,9.8-2.4,4.6-5-12.4-5.8-14,1.6-6.7,4-2.6z"/>
	<path id="path931" d="m437.8,574.6c2.6,3.2,4.6,10,5.4,12s-1.2,4.6-2.8,1.8-2.8-6.6-4.6-9.4c-1.9-2.8-0.1-6.8,2-4.4z"/>
	<path id="path933" d="m432.3,581.4c3,1.3,5,6,5.2,8.2s1,6.2-1.2,4.4-5.8-6.2-6.4-9,0.6-4.4,2.4-3.6z"/>
	<path id="path935" fill="#FFF" d="m392.8,667.6c0-0.1,0.5-3.5,1.3-8.3,0.7-4.8,1.6-11,3.4-16.3-1.9,5.3-3.4,11.3-4.2,16.2-0.8,4.8-0.5,8.4-0.5,8.4z"/>
	<path id="path937" fill="#FFF" d="m387.4,656.9s0.1-1.4,0.2-3.5-0.1-5.1,0.7-8.2c-0.8,3.2-1.5,6.1-1.5,8.2-0.1,2.1,0.6,3.5,0.6,3.5z"/>
	<path id="path939" fill="#FFF" d="m376.2,632.9c0-0.1,0.8-3.4,1.7-7.6s1.9-9.4,3.5-12.8c-1.6,3.5-3.3,8.4-4.2,12.6-1,4.2-1,7.7-1,7.8z"/>
	<path id="path941" fill="#FFF" d="m372.4,618.4s0.4-1.3,0.9-3.2c0.5-1.8,1.1-4.4,2.7-6.5-1.6,2.2-2.9,4.3-3.4,6.2-0.6,2-0.2,3.4-0.2,3.5z"/>
	<path id="path943" fill="#FFF" d="m370.3,607.7s0.1-1.1,0.3-2.5,0.4-3.5,1.7-5c-1.4,1.7-2.3,3.3-2.5,4.8s0.5,2.6,0.5,2.7z"/>
	<path id="path945" fill="#FFF" d="m376.5,573.4c-1.6,1.4-3.9,4.8-5.5,8.4-1.6,3.5-2.3,7-2.4,7.2,0-0.1,1.5-3.2,3-6.7,1.7-3.5,3.4-7.6,4.9-8.9z"/>
	<path id="path947" fill="#FFF" d="m372.1,568.1c1.2-1.8,2.4-4.1,3.4-4.8-1.1,0.8-2.8,2.5-4,4.3s-1.7,3.7-1.8,3.8c0-0.1,1.2-1.5,2.4-3.3z"/>
	<path id="path949" fill="#FFF" d="m374.9,551c-1.4,0.3-2.5,1-3.2,2-0.6,1-0.4,2.2-0.4,2.3,0,0,0.5-0.8,1.1-1.8,0.6-0.9,1.3-2.3,2.5-2.5z"/>
	<path id="path951" fill="#FFF" d="m371.6,543.2c-1.1,1.7-1.3,3.4-1.3,3.5,0,0,0.9-1.4,1.9-3s2.3-3.8,3.8-4.6c-1.6,0.9-3.3,2.4-4.4,4.1z"/>
	<polygon id="polygon953" points="505.6,329.3,503.9,323.5,504.9,329.5,506.6,335.3" fill="#FFF"/>
	<path id="path955" fill="#FFF" d="m588,324.9c-0.1,0-0.2,0-0.3-0.1l-1.3,3.4-0.9,3.9c0.1,0,0.1,0,0.2,0.1l1.4-3.7,0.9-3.6z"/>
	<path id="path957" fill="#FFF" d="m581,323.3c-0.1,0-0.2,0-0.3-0.1l-1.5,3.7-0.8,3.1c0.1,0,0.2,0.1,0.4,0.1l1.2-2.9,1-3.9z"/>
	<path id="path959" fill="#FFF" d="m573.7,321.9h-0.2l-1.2,3.2-0.7,3.4h0.2l1.2-3.3,0.7-3.3z"/>
	<path id="path961" fill="#FFF" d="m594.9,326.7c-0.1,0-0.1,0-0.2-0.1l-1.8,4-1.2,3.9c0.1,0,0.2,0.1,0.2,0.1l1.7-3.7,1.3-4.2z"/>
	<path id="path963" fill="#FFF" d="m559.1,319.7h-0.2l-0.3,3.6,0.3,4.4h0.1l0.3-4.4-0.2-3.6z"/>
	<path id="path965" fill="#FFF" d="m565.3,320.5c-0.1,0-0.2,0-0.4-0.1l-0.7,2.8-0.3,4h0.2l0.9-3.8,0.3-2.9z"/>
	<path id="path967" fill="#FFF" d="m552.8,319h-0.4l0.4,3.5,1.4,5.9h0.1l-0.6-6-0.9-3.4z"/>
	<path id="path969" fill="#FFF" d="m545.1,318.5h-0.2l0.9,5.4,1.6,5.7h0.2l-1-5.9-1.5-5.2z"/>
	<path id="path971" fill="#FFF" d="m540,318.2h-0.3l1,5.7,1.9,6.7h0.1l-1.2-6.9-1.5-5.5z"/>
	<path id="path973" fill="#FFF" d="m532.4,318.1h-0.2l1.6,7.2,2.2,6.9h0.2l-1.6-7.1-2.2-7z"/>
	<path id="path975" fill="#FFF" d="m529.1,329.4-1.5-6.3-1.9-5h-0.1l1.2,5.2,2.3,6.1z"/>
	<path id="path977" fill="#FFF" d="m523.7,331.6-1.5-7.6-1.7-5.7h-0.2l1.1,5.8,2.3,7.5z"/>
	<path id="path979" fill="#FFF" d="m517.8,330.5-2-7.1-1.9-4.7h-0.3l1.4,4.9,2.8,6.9z"/>
	<path id="path981" fill="#FFF" d="m494.3,332.1-2-6-2.1-4.4h-0.2l1.6,4.7,2.7,5.7z"/>
	<path id="path983" fill="#FFF" d="m485.7,326.8c0.1,0.2,0.3,2.7,1.3,5.7s2.7,6.3,4,8.7c-1.3-2.4-2.3-6.1-3.3-9.1-0.9-3-2-5.3-2-5.3z"/>
	<path id="path985" fill="#FFF" d="m479.3,328.4c0,0.2,0.2,3.2,1.1,6.3,0.9,3.2,2.4,6.5,3.7,8.1-1.3-1.5-2.2-5.3-3-8.5-0.9-3.2-1.8-5.9-1.8-5.9z"/>
	<path id="path987" fill="#FFF" d="m472.9,329.4c0,0.2,0.2,3.2,1.1,6.3,0.8,2.9,2.2,5.9,3.5,7.4-1.2-1.5-2-4.9-2.8-7.8-0.9-3.1-1.8-5.8-1.8-5.9z"/>
	<polygon id="polygon989" points="470.8,340,467.5,333.7,470.1,340.3,473.4,346.6" fill="#FFF"/>
	<polygon id="polygon991" points="464.1,339.9,460,333.2,463.4,340.3,467.5,347.1" fill="#FFF"/>
	<polygon id="polygon993" points="459.1,344.8,454.7,335.3,458.3,345.1,462.7,354.6" fill="#FFF"/>
	<polygon id="polygon995" points="452.4,345,448.3,337.5,451.6,345.4,455.7,353" fill="#FFF"/>
	<polygon id="polygon997" points="445.9,349.3,440.8,341.7,445.2,349.7,450.4,357.2" fill="#FFF"/>
	<polygon id="polygon999" points="441.6,353.8,435.4,344.4,441,354.2,447.2,363.7" fill="#FFF"/>
	<polygon id="polygon1001" points="437.1,357.6,429.5,345.5,436.4,358,444,370.1" fill="#FFF"/>
	<polygon id="polygon1003" points="430.1,357.6,423.1,348.2,429.5,358,436.5,367.4" fill="#FFF"/>
	<polygon id="polygon1005" points="428,364.8,421.5,356.2,427.3,365.2,433.8,373.8" fill="#FFF"/>
	<polygon id="polygon1007" points="422.4,367.2,413.5,355.6,421.7,367.7,430.6,379.2" fill="#FFF"/>
	<polygon id="polygon1009" points="414.8,370.4,406.5,361.5,414.2,370.9,422.6,379.7" fill="#FFF"/>
	<polygon id="polygon1011" points="411.6,376.3,402.8,366.3,411,376.8,419.9,386.7" fill="#FFF"/>
	<polygon id="polygon1013" points="406,379.7,394.2,366.9,405.4,380.3,417.2,393.1" fill="#FFF"/>
	<polygon id="polygon1015" points="400.1,382.7,389.9,372.2,399.5,383.2,409.7,393.6" fill="#FFF"/>
	<polygon id="polygon1017" points="392.9,384.8,383,375.4,392.3,385.4,402.2,394.7" fill="#FFF"/>
	<polygon id="polygon1019" points="390.5,390.7,383,383.5,389.9,391.2,397.4,398.5" fill="#FFF"/>
	<polygon id="polygon1021" points="384,393.3,375.5,386.1,383.5,393.9,392.1,401.1" fill="#FFF"/>
	<polygon id="polygon1023" points="383,400.8,376,395.8,382.5,401.4,389.4,406.5" fill="#FFF"/>
	<polygon id="polygon1025" points="379.2,407.1,387.3,413.4,379.8,406.4,371.7,400.1" fill="#FFF"/>
	<polygon id="polygon1027" points="371.2,407.3,379.8,414.5,371.7,406.7,363.2,399.5" fill="#FFF"/>
	<polygon id="polygon1029" points="368.3,413,376,418.3,368.8,412.3,361,407" fill="#FFF"/>
	<polygon id="polygon1031" points="364.8,419.4,374.9,426.3,365.3,418.7,355.1,411.8" fill="#FFF"/>
	<polygon id="polygon1033" points="360.8,423.1,375.5,431.1,361.2,422.5,346.6,414.5" fill="#FFF"/>
	<polygon id="polygon1035" points="356.7,428.3,349.8,424.7,356.3,429,363.2,432.7" fill="#FFF"/>
	<polygon id="polygon1037" points="338.4,454.2,347.7,458.4,338.7,453.5,329.5,449.3" fill="#FFF"/>
	<polygon id="polygon1039" points="334.1,459.8,346.6,464.3,334.4,459.1,322,454.6" fill="#FFF"/>
	<polygon id="polygon1041" points="324.2,461.7,329.5,463.2,324.5,461,319.3,459.5" fill="#FFF"/>
	<polygon id="polygon1043" points="326.1,471.3,341.8,477.1,326.4,470.6,310.7,464.8" fill="#FFF"/>
	<polygon id="polygon1045" points="320.3,481.3,339.1,482.5,320.4,480.5,301.6,479.3" fill="#FFF"/>
	<path id="path1047" fill="#FFF" d="m315,501.2c-5.3,0-12.1,0.7-17.6,1.7-5.5,1.1-9.5,2.7-9.6,2.7,0.1,0,4.3-0.9,9.8-1.9,5.4-1,12.1-2.5,17.4-2.5z"/>
	<path id="path1049" fill="#FFF" d="m302.7,511.9c-4.8,0.3-10.3,1.2-14.6,2.5s-7.2,3-7.3,3c0.1,0,3.2-1,7.5-2.3,4.3-1.2,9.7-2.9,14.4-3.2z"/>
	<polygon id="polygon1051" points="299,518.3,290,520.9,281.3,524.2,290.3,521.6" fill="#FFF"/>
	<path id="path1053" fill="#FFF" d="m315,519.4c-0.1,0-1.6-0.4-4.4,0.1s-6.6,1.8-11.7,3.7c5-1.8,9.1-2.4,11.8-2.9,2.8-0.5,4.3-0.9,4.3-0.9z"/>
	<path id="path1055" fill="#FFF" d="m305.4,527.4c-0.3,0.1-3.7,0.5-7.6,1.7-3.8,1.2-7.9,3.1-10.1,4.7,2.1-1.6,6.7-2.8,10.5-4,3.9-1.2,7.1-2.4,7.2-2.4z"/>
	<path id="path1057" fill="#FFF" d="m307.5,532.2c-0.1,0.1-6.3,2.4-13.3,5.7s-14.8,7.5-18.8,9.9c4-2.4,12.1-5.9,19.1-9.1,7-3.4,12.9-6.4,13-6.5z"/>
	<path id="path1059" fill="#FFF" d="m304.8,539.7c-0.6,0.3-8.3,3-16.3,6.6s-16.3,8.1-19,10.5c2.6-2.4,11.6-6.3,19.7-9.9s15.5-7.1,15.6-7.2z"/>
	<path id="path1061" fill="#FFF" d="m318.2,539.2c-0.2,0.1-8.7,3.6-19.5,9.3s-23.9,13.5-34,20.6c10-7.1,23.5-14.2,34.4-19.9,10.8-5.7,19-9.9,19.1-10z"/>
	<path id="path1063" fill="#FFF" d="m309.1,550.4c-0.1,0.1-6.9,3.1-15.8,8-8.9,5-19.9,11.8-29.1,18.2,9.2-6.3,20.6-12.5,29.5-17.5,8.9-4.9,15.3-8.6,15.4-8.7z"/>
	<path id="path1065" fill="#FFF" d="m324.6,548.3c-0.1,0.1-7.4,2.6-19.1,9.9s-27.9,19.4-46.7,37.1c18.7-17.7,35.4-29.1,47.1-36.4s18.6-10.6,18.7-10.6z"/>
	<path id="path1067" fill="#FFF" d="m294.9,575.8c13.2-10.7,22.6-16.2,22.8-16.3-0.2,0.1-10,5-23.3,15.7s-29.9,27.1-44.7,49.1c14.8-21.9,32-37.8,45.2-48.5z"/>
	<path id="path1069" fill="#FFF" d="m319.3,564.9c-0.2,0.2-12.5,9.6-27.3,24.6-14.8,14.9-32,35.3-43.4,56.2,11.4-20.9,29.2-40.7,44-55.6,14.8-15,26.5-25,26.7-25.2z"/>
	<path id="path1071" fill="#FFF" d="m310.2,582.5c-0.2,0.2-11.2,11.4-23.9,27-12.8,15.6-27.3,35.5-36.5,51.6,9.2-16.1,24.8-35.3,37.5-50.9,12.7-15.4,22.7-27.4,22.9-27.7z"/>
	<path id="path1073" fill="#FFF" d="m318.8,584.1c-0.3,0.3-13.9,15.2-28.8,35s-30.9,44.4-38.6,62.4c7.6-17.9,25.1-41.8,39.9-61.5s27.2-35.6,27.5-35.9z"/>
	<path id="path1075" fill="#FFF" d="m322,593.8c-0.3,0.4-14.3,17.9-29.6,40.3-15.2,22.4-31.5,49.5-38.9,67.2,7.4-17.7,25.1-44,40.3-66.4,15.1-22.3,27.9-40.8,28.2-41.1z"/>
	<path id="path1077" fill="#FFF" d="m316.1,617.8c-0.2,0.4-11.9,17.9-24.8,39.4s-27,46.7-34.1,61.2c7.1-14.5,22.3-39.2,35.1-60.6,12.9-21.4,23.6-39.6,23.8-40z"/>
	<polygon id="polygon1079" points="289.1,683.6,319.3,629.1,288.4,683.2,258.3,737.7" fill="#FFF"/>
	<path id="path1081" fill="#FFF" d="m295.5,696.4c10.8-19.3,19.7-37.1,19.9-37.5-0.2,0.4-9.8,17.8-20.6,37s-22.7,40.5-28.5,47.6c5.8-7.1,18.4-27.8,29.2-47.1z"/>
	<path id="path1083" fill="#FFF" d="m328.8,653.1c-0.2,0.4-9,19-21.3,42.3-12.2,23.3-27.7,51.4-42.3,70.2,14.6-18.8,30.7-46.5,43-69.8,12.3-23.4,20.4-42.3,20.6-42.7z"/>
	<path id="path1085" fill="#FFF" d="m333.2,664.4c-0.2,0.5-11.2,25-22.2,58-10.9,33.1-21.7,74.5-23.9,108.4,2.1-33.8,14.1-75.1,25-108.1,11-32.9,20.9-57.8,21.1-58.3z"/>
	<path id="path1087" fill="#FFF" d="m330.5,689.6c-0.1,0.5-8.2,23.8-16.2,50.8-7.9,27-15.7,57.7-17.5,72.2,1.8-14.5,10.8-45,18.7-71.9,8-27,14.9-50.7,15-51.1z"/>
	<polygon id="polygon1089" points="315.1,769.4,324.1,730.2,314.4,769.2,305.4,808.3" fill="#FFF"/>
	<path id="path1091" fill="#FFF" d="m334.7,708.3c-0.1,0.5-5.7,26.3-11.7,53.5s-12.3,56-14.9,62.1c2.7-6.1,9.5-33.8,15.4-60.7s10.7-52.8,11.2-54.9z"/>
	<path id="path1093" fill="#FFF" d="m344.8,695.9c-0.1,0.5-6,25.9-12.6,54s-13.8,58.8-17.8,69.7c4-10.9,11.9-41.4,18.5-69.5,6.7-28,11.8-53.7,11.9-54.2z"/>
	<path id="path1095" fill="#FFF" d="m341,745.8c-5.2,25.7-11.1,54.1-15.3,64.7,4.2-10.6,10.9-38.7,16.1-64.5,5.2-25.7,8.8-49.1,8.9-49.5-0.1,0.4-4.5,23.6-9.7,49.3z"/>
	<path id="path1097" fill="#FFF" d="m347.7,752.7c2.7-5.6,5.9-19.8,8.2-33s3.3-25.4,3.5-26.4c0,0.2-1.9,12.3-4.2,25.6-2.4,13.4-4.9,28.3-7.5,33.8z"/>
	<path id="path1099" fill="#FFF" d="m589.4,341.4c-5.6-2.7-12.1-4.6-22.1-6.4l-0.2,2.1c0.4,0,0.9,0.1,1.3,0.3,8.5,1.1,17.7,5.8,20.1,7.1l0.9-3.1z"/>
	<path id="path1101" fill="#FFF" d="m568.9,348.4,5.5,1.5c3.3-15-3.2-5.3-5.5-1.5z"/>
	<path id="path1103" fill="#FFF" d="m568,337.6c-0.5-0.1-0.9-0.1-1.3-0.1l-0.8,10.1,2.8,0.8c1.8-6.7,0.9-10.1-0.7-10.8z"/>
	<path id="path1105" fill="#FFF" d="m581.4,352,4.6,1.3,1-3.3c1.1-12.2-4.7-0.1-5.6,2z"/>
	<path id="path1107" fill="#FFF" d="m574.5,350,6.4,1.8c3.2-18.3-5.6-3.1-6.4-1.8z"/>
	<path id="path1109" fill="#FFF" d="m555,359.3c5.8-1.8,3.2-7.3-0.4-6.9-114.6,24.4-161.7,93.3-180.9,140.2,0.5-0.8,0.9-1.6,1.4-2.4,9.4-20.4,24.5-45,48.6-67.8,33.6-31.9,77.8-51.8,131.3-63.1z"/>
	<path id="path1111" fill="#FFF" d="m555.5,335.6c-26,4.3-104.8,23-160.5,96.1-26.8,35.2-43.2,73-48.7,112.1-4,28.2-1.8,56.7,5.9,78.8,0.2,0.3,0.4,0.6,0.5,0.9s1.7,0.9,3.6,0.4c1.6-0.5,2-1.3,2-2-6.7-20.6-6.7-38.2-6.7-49.5,0-2.2,0.2-19.5,6.6-42.1,2.5-13.9,9.7-42.9,29.1-73.8,15.8-25.2,36.5-46.9,61.5-64.4,29.7-20.7,65.6-35.6,106.8-44.2,6-1.1,3.8-12.6-0.1-12.3z"/>
	<path id="path1113" fill="#FFF" d="m566.8,352.7s-1.9-0.5-2.1,1.1c-0.3,1.6-3.7,49.8-3.7,49.8l5.8-50.9z"/>
	<path id="path1115" fill="#FFF" d="m569.5,353.2-5.6,48.2s8-44.4,8-47.1c0-0.8-1.4-1.1-2.4-1.1z"/>
</g>
</svg>
