<?xml version="1.0" encoding="UTF-8" standalone="no"?>
<svg xmlns:rdf="http://www.w3.org/1999/02/22-rdf-syntax-ns#" xmlns="http://www.w3.org/2000/svg" xml:space="preserve" version="1.1" y="0px" x="0px" width="512" height="512" xmlns:cc="http://creativecommons.org/ns#" xmlns:dc="http://purl.org/dc/elements/1.1/" viewBox="0 0 512 512"><metadata><rdf:RDF><cc:Work rdf:about=""><dc:format>image/svg+xml</dc:format><dc:type rdf:resource="http://purl.org/dc/dcmitype/StillImage"/><dc:title/></cc:Work></rdf:RDF></metadata>
		<path d="m349.83,408.67c4.212-8.3689,3.0011-9.1316,4.8456-19.673l-0.73619-94.569c0.53169-7.2246,0.45324-16.013,1.2344-21.972,3.7125-28.401-14.097-24.686-27.799,13.537-0.92661,2.5871-2.1724,2.3384-3.4523,0.77379l-29.756-97.214c-3.9498-12.929-15.444-20.977-25.667-17.998-10.213,2.9799-15.296,15.853-11.346,28.788l25.385,82.917c-0.95073,0.29328-1.9377,0.59178-2.9092,0.89555l-31.27-102.24c-4.5519-14.847-16.508-24.459-26.721-21.479-10.226,2.9956-14.822,17.423-10.281,32.276l31.601,103.26c-0.71272,0.24352-1.4375,0.49163-2.1623,0.74039l-23.98-78.33c-3.7936-12.376-15.15-20.005-25.363-17.02-10.224,2.9793-15.432,15.438-11.651,27.837l24.785,80.972c-0.62288,0.25988-1.2451,0.51454-1.8572,0.76855l-17.561-57.371c-3.0695-10.032-13.837-15.731-24.062-12.752-10.213,2.9963-16.021,13.526-12.942,23.547l20.926,68.384c0,0.0328-0.0229,0.0713-0.0229,0.10471-0.0128,18.897,46.23,88.848,54.371,100.47,8.1524,11.613,13.134,22.747,9.8058,28.987-4.3943,8.2242,4.4265,15.853,15.207,14.189,16.246-2.4968,60.756-8.7493,96.999-24.476,15.785-6.8429,35.452-12.343,23.53-22.83-4.7336-4.1832-24.815-9.2566-19.142-20.536z"/>
		<path d="m106.96,240.75c-12.308,0-22.283,9.7541-22.283,21.76,0,12.017,9.9754,21.756,22.283,21.756,12.307,0,22.282-9.7391,22.282-21.756,0-12.006-9.9754-21.76-22.282-21.76z"/>
		<path d="m106.96,297.75c-12.308,0-22.283,9.7411-22.283,21.754,0,12.007,9.9754,21.757,22.283,21.757,12.307,0,22.282-9.7509,22.282-21.757,0-12.013-9.9754-21.754-22.282-21.754z"/>
		<path d="m404.8,228.66c12.296,0,22.283-9.728,22.283-21.745,0-12.011-9.9875-21.751-22.283-21.751s-22.282,9.7397-22.282,21.751c-0.007,12.018,9.9835,21.745,22.28,21.745z"/>
		<path d="m404.8,251.74c-12.296,0-22.282,9.7345-22.282,21.751,0,12.017,9.9868,21.746,22.282,21.746,12.296,0,22.283-9.7286,22.283-21.746,0-12.019-9.9902-21.754-22.28-21.754z"/>
		<path d="m346.42,228.66c12.295,0,22.282-9.728,22.282-21.745,0-12.011-9.9875-21.751-22.282-21.751-12.297,0-22.283,9.7397-22.283,21.751,0,12.018,9.9835,21.745,22.28,21.745z"/>
</svg>
