<?xml version="1.0" encoding="UTF-8" standalone="no"?>
<svg xmlns:rdf="http://www.w3.org/1999/02/22-rdf-syntax-ns#" xmlns="http://www.w3.org/2000/svg" xml:space="preserve" height="512" width="512" version="1.1" xmlns:cc="http://creativecommons.org/ns#" xmlns:dc="http://purl.org/dc/elements/1.1/" viewBox="0 0 512.00099 512.00411"><metadata><rdf:RDF><cc:Work rdf:about=""><dc:format>image/svg+xml</dc:format><dc:type rdf:resource="http://purl.org/dc/dcmitype/StillImage"/><dc:title/></cc:Work></rdf:RDF></metadata>
			<path d="M424.48,250.22h-212.54v7.1537h5.0605c3.1571,40.374,47.388,72.493,101.31,72.493,53.918,0,98.146-32.118,101.31-72.493h4.861v-7.1537z"/>
			<path d="m334.96,245.36v-27.394c2.3155-1.7932,7.5036-5.1969,13.548-5.1969,5.1233,0,9.9733,2.5041,14.405,7.445l1.3054,1.4474,1.9579-0.0372c2.355-0.0449,5.9941-0.075,9.764-0.0943-0.44768,1.1305-1.1195,2.27-2.1257,3.0501-0.24101,0.21366-5.7194,5.2046-4.467,9.3531,0.69776,2.2815,3.2309,3.7706,7.5386,4.4276l0.10948,0.016,0.10625-0.016c4.4347-0.67431,7.0903-2.2282,7.8891-4.6169,1.3702-4.0985-3.3877-8.929-3.5367-9.0766l-0.20862-0.222c-0.96727-0.74295-1.621-1.8336-2.0654-2.9288,6.088-0.0231,11.653-0.0231,11.756-0.0231h4.4742l-0.23064-4.4238c-0.0518-0.99896-1.5776-24.498-29.716-33.822-7.9468-1.9235-15.807-2.8987-23.372-2.8987-0.42112,0-0.83251,0.0102-1.2478,0.016l0.49951-0.52996c3.205-3.3953,3.032-8.7237-0.39715-11.901-3.4395-3.1739-8.8097-3.0059-12.024,0.39907l-16.78,17.765c-5.6436,2.3918-8.7184,4.6656-8.982,4.8665l-1.6942,1.2697,0.1503,53.128h33.344v0.00093z"/>
			<path d="m181.59,461.27c-34.43,0-62.436-27.734-62.436-61.832,0-19.399,9.0656-36.74,23.222-48.084l0.0648-29.704c-28.782,14.333-48.793,43.776-48.793,77.793,0,48.025,39.455,87.089,87.942,87.089,44.966,0,82.137-32.996,87.307-76.176l-25.807-0.19825c-5.1376,29.008-30.756,51.117-61.498,51.117z"/>
			<path d="m346.46,423.88c-3.2465-4.1267-9.2418-4.8568-13.426-1.6515l-17.554,13.526-46.992-76.991c-1.4389-2.3482-3.7427-3.8483-6.2597-4.3634v-0.21173h-88.078v-19.824h45.34c7.0417,0,12.754-5.6492,12.754-12.63,0-6.9766-5.7116-12.63-12.754-12.63h-45.34v-38.192c13.916-4.4154,24.086-17.205,24.086-32.437,0-18.862-15.494-34.204-34.539-34.204-19.047,0-34.539,15.342-34.539,34.204,0,15.109,9.9966,27.807,23.737,32.33v104.43h0.83835v0.009h102.45l47.176,77.286c0.32393,1.169,0.8798,2.2796,1.6696,3.2907,1.3767,1.758,3.2633,2.8936,5.2963,3.3857,0.88823,0.26306,1.8192,0.39331,2.7482,0.39331,1.6858,0,3.3955-0.44142,4.94-1.3621,1.1623-0.69164,2.1166-1.595,2.8552-2.6331l23.913-18.427c4.1671-3.2144,4.9154-9.1664,1.6696-13.294z"/>
</svg>
