<?xml version="1.0" encoding="UTF-8" standalone="no"?>
<svg xmlns:rdf="http://www.w3.org/1999/02/22-rdf-syntax-ns#" xmlns="http://www.w3.org/2000/svg" xml:space="preserve" height="512" width="512" version="1.1" y="0px" x="0px" xmlns:cc="http://creativecommons.org/ns#" xmlns:dc="http://purl.org/dc/elements/1.1/" viewBox="0 0 512 512"><metadata><rdf:RDF><cc:Work rdf:about=""><dc:format>image/svg+xml</dc:format><dc:type rdf:resource="http://purl.org/dc/dcmitype/StillImage"/><dc:title/></cc:Work></rdf:RDF></metadata>
		<path d="m160.28,333.79-1.6396,31.163s40.105,7.7613,69.767-5.5447c0,0-2.1942-14.434-4.3891-21.651-2.1942-7.2012-4.9437-15.522-4.9437-15.522s36.263-0.5601,74.729,4.4325c38.467,4.9926-18.947-27.929-98.9-22.747-51.843,3.352-85.992,37.725-93.407,46.055-0.002,0,41.751-17.756,58.786-16.187z"/>
		<path d="m145.45,348.87s-5.2171,24.143,28.569,24.971c33.795,0.83618,80.433-2.9892,61.538-31.076,0,0,103.6-1.814,146.16,4.4411,45.331,6.6643,49.447,27.188,8.2393,38.292-28.538,7.6825-105.9,9.2211-156.17,9.2059-80.774-0.0245-134.49-19.94-131.19-29.003,3.2923-9.0702,29.675-17.664,42.858-16.836z"/>
		<path d="m209.96,266.84c0,17.155-13.778,31.069-30.756,31.069-17.002,0-30.78-13.914-30.78-31.069,0-17.17,13.778-31.076,30.78-31.076,16.979-0.003,30.753,13.903,30.753,31.073z"/>
		<path d="m96,381.05s-9.3485,7.7758-0.55462,24.419c0,0,29.944,21.083,170.88,20.256,111.03-0.66337,137.37-13.046,154.95-23.04,0,0,8.24-10.53,0-20.514,0,0,0.009,23.851-129.12,23.298-129.13-0.55613-162.64-4.7072-196.16-24.41z"/>
		<path d="m96.547,416.56s-12.637,16.09,0.5461,39.95c0,0,23.079,25.524,163.74,23.308,140.65-2.2179,153.3-17.755,162.08-21.644,0,0,8.24-22.202-2.7482-39.949,0,0-43.949,21.635-153.84,19.971-109.89-1.6684-148.36-9.9904-169.78-21.643z"/>
		<path d="m326.77,201.82s21.422,7.7692,20.876,23.867c-0.54676,16.083-4.3891,27.181-13.738,42.718-9.3407,15.538-13.183,19.979-8.2393,41.614l-2.1949,6.6649s-2.756-17.202-8.7939-24.411c0,0-1.1014-18.315,8.2386-30.524,9.3413-12.21,16.839-35.896,12.638-46.055-2.7469-6.657-8.7847-13.875-8.7847-13.875z"/>
		<path d="m365.22,235.12s17.59,8.8808,11.544,25.532c-6.0523,16.643-12.644,23.299-19.783,32.733-7.1392,9.425-9.8959,2.776-12.638,33.852,0,0-8.8326-23.804-0.54675-36.621,8.2406-12.778,22.151-21.186,24.173-36.629,1.1079-8.324-2.7469-18.87-2.7469-18.87z"/>
</svg>
