<?xml version="1.0" encoding="UTF-8" standalone="no"?>
<svg xmlns:rdf="http://www.w3.org/1999/02/22-rdf-syntax-ns#" xmlns="http://www.w3.org/2000/svg" xml:space="preserve" height="512" width="512" version="1.1" y="0px" x="0px" xmlns:cc="http://creativecommons.org/ns#" xmlns:dc="http://purl.org/dc/elements/1.1/" viewBox="0 0 512.00001 512"><metadata><rdf:RDF><cc:Work rdf:about=""><dc:format>image/svg+xml</dc:format><dc:type rdf:resource="http://purl.org/dc/dcmitype/StillImage"/><dc:title/></cc:Work></rdf:RDF></metadata>
		<path d="m229.25,424.01h50.7c2.1492,0,3.891-1.6322,3.891-3.6772v-14.646c0-2.0457-1.7411-3.6772-3.891-3.6772h-50.7c-2.1399,0-3.8996,1.6315-3.8996,3.6772v14.646c0,2.0444,1.7644,3.6759,3.9016,3.6759z"/>
		<path d="m248.66,384.49v-14.647c0-2.045-1.7404-3.6765-3.8996-3.6765h-50.69c-2.1406,0-3.8996,1.6315-3.8996,3.6765v14.647c0,2.045,1.7591,3.6765,3.8996,3.6765h50.69c2.1572-0.006,3.9016-1.6382,3.9016-3.6825z"/>
		<path d="m299.62,424.01h50.69c2.1499,0,3.8996-1.6322,3.8996-3.6772v-14.646c0-2.0457-1.7504-3.6772-3.8996-3.6772h-50.69c-2.1499,0-3.9003,1.6315-3.9003,3.6772v14.646c0,2.0444,1.7511,3.6759,3.9016,3.6759z"/>
		<path d="m319.03,384.49v-14.647c0-2.045-1.7597-3.6765-3.9003-3.6765h-50.688c-2.1499,0-3.8996,1.6315-3.8996,3.6765v14.647c0,2.045,1.7504,3.6765,3.8996,3.6765h50.69c2.1439-0.006,3.9016-1.6382,3.9016-3.6825z"/>
		<path d="m279.95,352.32c2.1492,0,3.891-1.6308,3.891-3.6765v-14.65c0-2.045-1.7411-3.6765-3.891-3.6765h-50.7c-2.1399,0-3.8996,1.6315-3.8996,3.6765v14.646c0,2.0457,1.7597,3.6765,3.8996,3.6765h50.699z"/>
		<path d="m158.89,424.01h50.69c2.1592,0,3.8903-1.6322,3.8903-3.6772v-14.646c0-2.0457-1.7311-3.6772-3.8903-3.6772h-50.69c-2.1499,0-3.9003,1.6315-3.9003,3.6772v14.646c0,2.0444,1.7511,3.6759,3.9016,3.6759z"/>
		<path d="m158.89,352.32h50.69c2.1592,0,3.8903-1.6308,3.8903-3.6765v-14.65c0-2.045-1.7311-3.6765-3.8903-3.6765h-50.69c-2.1499,0-3.9003,1.6315-3.9003,3.6765v14.646c0,2.051,1.7511,3.6825,3.9016,3.6825z"/>
		<path d="m119.81,369.84v14.647c0,2.045,1.7504,3.6765,3.9096,3.6765h50.682c2.1499,0,3.8903-1.6315,3.8903-3.6765v-14.647c0-2.045-1.7404-3.6765-3.8903-3.6765h-50.681c-2.1592,0.006-3.9096,1.6382-3.9096,3.6825z"/>
		<path d="M175.97,290.52h-83.079c0,12.24,8.266,22.162,18.463,22.162h46.164c10.187,0,18.456-9.9222,18.456-22.162z"/>
		<path d="m420.61,402.01h-50.691c-2.1492,0-3.8996,1.6315-3.8996,3.6772v14.646c0,2.045,1.7504,3.6772,3.8996,3.6772h50.691c2.1499,0,3.8996-1.6322,3.8996-3.6772v-14.646c-0.006-2.0444-1.7577-3.6759-3.9083-3.6759z"/>
		<rect y="444.28" x="92.594" width="324.14" height="31.629"/>
		<path d="m420.61,330.32h-50.691c-2.1492,0-3.8996,1.6315-3.8996,3.6765v14.646c0,2.0457,1.7504,3.6765,3.8996,3.6765h50.691c2.1499,0,3.8996-1.6308,3.8996-3.6765v-14.644c-0.006-2.0444-1.7577-3.6759-3.9083-3.6759z"/>
		<path d="m143.12,420.34v-14.646c0-2.0457-1.7504-3.6772-3.8996-3.6772h-50.678c-2.1592,0-3.9003,1.6315-3.9003,3.6772v14.646c0,2.045,1.7411,3.6772,3.9003,3.6772h50.682c2.1492,0,3.8996-1.6315,3.8996-3.6759z"/>
		<path d="m389.34,384.49v-14.647c0-2.045-1.7497-3.6765-3.8996-3.6765h-50.691c-2.1492,0-3.8996,1.6315-3.8996,3.6765v14.647c0,2.045,1.7504,3.6765,3.8996,3.6765h50.691c2.1506-0.006,3.9016-1.6382,3.9016-3.6825z"/>
		<path d="m350.31,330.32h-50.69c-2.1499,0-3.9003,1.6315-3.9003,3.6765v14.646c0,2.0457,1.7504,3.6765,3.9003,3.6765h50.69c2.1499,0,3.8996-1.6308,3.8996-3.6765v-14.644c-0.006-2.0444-1.7577-3.6759-3.9016-3.6759z"/>
		<path d="m417,290.52h-83.079c0,12.24,8.256,22.162,18.463,22.162h46.162c10.193,0,18.456-9.9222,18.456-22.162z"/>
		<path d="m254.66,219.04c78.878,0.052,78.884,65.241,78.884,65.241h83.119c0-96.984-77.573-100.02-111.51-100.02h-117.59c-33.953,0-94.897,3.0399-94.897,100.02h83.106s0.0133-65.186,78.884-65.238z"/>
		<path d="m88.542,352.32h50.682c2.1492,0,3.8996-1.6308,3.8996-3.6765v-14.65c0-2.045-1.7504-3.6765-3.8996-3.6765h-50.678c-2.1592,0-3.9003,1.6315-3.9003,3.6765v14.646c0,2.051,1.7411,3.6825,3.9003,3.6825z"/>
</svg>
