<?xml version="1.0" encoding="UTF-8" standalone="no"?>
<svg xmlns:rdf="http://www.w3.org/1999/02/22-rdf-syntax-ns#" xmlns="http://www.w3.org/2000/svg" xml:space="preserve" height="512" width="512" version="1.1" y="0px" x="0px" xmlns:cc="http://creativecommons.org/ns#" xmlns:dc="http://purl.org/dc/elements/1.1/" viewBox="0 0 512 511.99999"><metadata><rdf:RDF><cc:Work rdf:about=""><dc:format>image/svg+xml</dc:format><dc:type rdf:resource="http://purl.org/dc/dcmitype/StillImage"/><dc:title/></cc:Work></rdf:RDF></metadata>
		<path d="M442.13,374.35,419.59,477.25h-347.97l370.51-102.9zm-237.49,3.3974c-32.39,0-58.725-26.187-58.725-58.384,0-18.318,8.5163-34.689,21.837-45.398l0.0581-28.05c-27.064,13.532-45.894,41.324-45.894,73.449,0,45.347,37.119,82.231,82.727,82.231,42.289,0,77.265-31.158,82.13-71.929l-24.278-0.1865c-4.8286,27.389-28.935,48.265-57.856,48.265zm155.08-35.304c-3.0368-3.8925-8.6879-4.585-12.618-1.5614l-16.512,12.773-44.202-72.697c-1.3555-2.217-3.5175-3.6352-5.8824-4.1181v-0.19589h-82.858v-18.715h42.645c6.6321,0,12.004-5.3361,12.004-11.928,0-6.5924-5.3718-11.928-12.004-11.928h-42.645v-36.056c13.09-4.1701,22.652-16.246,22.652-30.629,0-17.807-14.573-32.295-32.484-32.295-17.915,0-32.495,14.487-32.495,32.296,0,14.268,9.4086,26.258,22.327,30.529v98.597h0.79774v0.005h96.369l44.385,72.979c0.29742,1.1024,0.8261,2.149,1.5671,3.1039,1.2973,1.6633,3.0754,2.7324,4.9777,3.2008,0.84574,0.24505,1.7111,0.37299,2.5954,0.37299,1.5758,0,3.1815-0.41564,4.6425-1.2831,1.0966-0.65417,1.9889-1.5115,2.6812-2.4888l22.49-17.398c3.9196-3.0432,4.625-8.6597,1.5562-12.563z"/>
</svg>
