<?xml version="1.0" encoding="UTF-8" standalone="no"?>
<svg xmlns:rdf="http://www.w3.org/1999/02/22-rdf-syntax-ns#" xmlns="http://www.w3.org/2000/svg" xml:space="preserve" height="512" width="512" version="1.1" y="0px" x="0px" xmlns:cc="http://creativecommons.org/ns#" xmlns:dc="http://purl.org/dc/elements/1.1/" viewBox="0 0 512 512"><metadata><rdf:RDF><cc:Work rdf:about=""><dc:format>image/svg+xml</dc:format><dc:type rdf:resource="http://purl.org/dc/dcmitype/StillImage"/><dc:title/></cc:Work></rdf:RDF></metadata>
	<path d="m468.67,357.57c-14.629-24.467-96.451-42.605-96.451-42.605l-102.54-83.73s-8.1969-3.6042-35.356-0.71875c-45.082,4.1218-90.536,23.37-125.74,42.343-21.994-0.18727-51.907-0.87827-66.715-3.2209,0.3401,3.4125,1.9528,17.623,1.9528,17.623s19.621,2.2039,20.9,11.97c-13.13,8.7637-20.816,14.738-20.816,14.738v61.437h-7.8542v51.802c0,17.268,34.298,23.743,34.298,23.743l5.805-0.0364c3.9503,24.644,25.156,43.547,50.721,43.547,25.758,0,47.076-19.164,50.813-44.052l197.75-0.99793c3.3003,25.376,24.858,45.05,50.951,45.05,28.364,0,51.453-23.235,51.453-51.801,0-0.64852-0.0835-1.2736-0.11108-1.9144,0.57688-18.545,0.85241-64.037-9.0665-83.172zm-341.8,128.26c-20.844,0-38.202-15.075-42.042-34.958-0.50972-2.6652-0.81624-5.3962-0.81624-8.2114,0-23.8,19.231-43.169,42.857-43.169,23.644,0,42.875,19.369,42.875,43.169,0,2.6617-0.3246,5.2558-0.77921,7.7927-3.6679,20.071-21.112,35.374-42.104,35.374zm9.6606-169.26-30.01-33.095,58.601-24.453,24.275,53.229-52.866,4.3186zm82.52-3.9536-42.866-58.277,87.875-11.872,78.231,70.149h-123.24zm207.34,173.21c-21.355,0-38.962-15.85-42.198-36.461v-0.004c-0.33494-2.1987-0.65954-4.4113-0.65954-6.7037,0-23.8,19.223-43.169,42.857-43.169,23.626,0,42.876,19.369,42.876,43.169,0,2.1424-0.33494,4.1885-0.63887,6.2416v0.0382c-3.048,20.799-20.733,36.882-42.233,36.882z"/>
</svg>
