<?xml version="1.0" encoding="UTF-8" standalone="no"?>
<svg xmlns:rdf="http://www.w3.org/1999/02/22-rdf-syntax-ns#" xmlns="http://www.w3.org/2000/svg" xml:space="preserve" height="512" width="512" version="1.1" y="0px" x="0px" xmlns:cc="http://creativecommons.org/ns#" xmlns:dc="http://purl.org/dc/elements/1.1/" viewBox="0 0 512 512"><metadata><rdf:RDF><cc:Work rdf:about=""><dc:format>image/svg+xml</dc:format><dc:type rdf:resource="http://purl.org/dc/dcmitype/StillImage"/><dc:title/></cc:Work></rdf:RDF></metadata>
		<path d="m332.55,260.38c0-10.718-8.9552-19.41-20.01-19.41h-78.297c0.35582-0.8522,0.58059-1.7286,0.58059-2.6298,0-8.374-15.966-15.163-35.64-15.163-19.684,0-35.64,6.7895-35.64,15.163,0,0.9021,0.21482,1.7784,0.56898,2.6298h-78.3c-11.048,0-20.003,8.6919-20.003,19.41v13.746h266.75v-13.746z"/>
		<path d="m459.32,283.49c-52.237,2.18-92.563,5.4681-126.66,24.229v-23.885h-266.74v135.06c0,10.718,8.9477,19.416,20.003,19.416h226.74c11.046,0,20-8.6983,20-19.416v-88.713c36.021-17.218,86.632-33.358,124.98-22.69,17.517-1.8187,18.139-26.083,1.692-24.002zm-352.9,143.02h-16.249c-8.6259,0-8.4186-4.6119-8.4186-4.6119v-102.71h15.005v92.761h9.6635c4.1487,0,7.5029,3.2583,7.5029,7.2755,0.00083,4.0156-3.3533,7.2828-7.5021,7.2828z"/>
		<path d="m339.43,459.95h-14.661v-2.7216h-7.8819s-0.0705-4.4324-1.6165-6.0676c-1.6696-1.2844-14.696-1.2457-16.303,0-1.5916,1.253-1.5916,6.0676-1.5916,6.0676h-7.8919v2.7216h-8.0221v-2.7216h-7.8819s-0.0622-4.4324-1.6091-6.0676c-1.6588-1.2844-14.694-1.2457-16.302,0-1.5974,1.253-1.5974,6.0676-1.5974,6.0676h-7.8935v2.7216h-8.0122v-2.7216h-7.8836s-0.068-4.4324-1.6074-6.0676c-1.6688-1.2844-14.704-1.2457-16.303,0-1.6074,1.253-1.6074,6.0676-1.6074,6.0676h-7.8844v2.7216h-8.0213v-2.7216h-7.8844s-0.068-4.4324-1.6074-6.0676c-1.6597-1.2844-14.696-1.2457-16.303,0-1.5991,1.253-1.5991,6.0676-1.5991,6.0676h-7.8919v2.7216h-8.0213v-2.7216h-7.8745s-0.0697-4.4324-1.6074-6.0676c-1.6688-1.2844-14.696-1.2457-16.303,0-1.5991,1.253-1.5991,6.0676-1.5991,6.0676h-7.8678v2.7216h-8.0213v-2.7216h-7.8836s-0.0697-4.4324-1.6074-6.0676c-1.6588-1.2844-14.696-1.2457-16.303,0-1.5991,1.253-1.5991,6.0676-1.5991,6.0676h-7.8919v2.7216h-18.643c-4.5817,0-8.3066,3.6132-8.3066,8.0553,0,4.4493,3.7249,8.0553,8.3066,8.0553h285.09c4.5808,0,8.2991-3.6052,8.2991-8.0553-0.008-4.4421-3.7241-8.0553-8.3024-8.0553z"/>
</svg>
