<?xml version="1.0" encoding="UTF-8" standalone="no"?>
<!-- Generator: Adobe Illustrator 17.1.0, SVG Export Plug-In . SVG Version: 6.00 Build 0)  -->
<svg xmlns:rdf="http://www.w3.org/1999/02/22-rdf-syntax-ns#" xmlns="http://www.w3.org/2000/svg" xml:space="preserve" viewBox="0 0 51 52" height="52" width="51" version="1.1" y="0px" x="0px" xmlns:cc="http://creativecommons.org/ns#" xmlns:dc="http://purl.org/dc/elements/1.1/"><metadata><rdf:RDF><cc:Work rdf:about=""><dc:format>image/svg+xml</dc:format><dc:type rdf:resource="http://purl.org/dc/dcmitype/StillImage"/><dc:title/></cc:Work></rdf:RDF></metadata>
<path style="fill:#4c556a;" d="M30,0l-30,29v23h21l30-29-21-23zm-21,41c1.314,0,2,0.685,2,2,0,1.314-0.686,2-2,2s-2-0.686-2-2c0-1.315,0.686-2,2-2z" fill="none"/>
<path style="fill:#ffffff;" d="M22.148,31.36c-0.536-0.006-1.075-0.279-1.616-0.82-0.552-0.552-0.851-1.152-0.895-1.798s0.287-1.323,0.994-2.03l-2.353-2.353-0.075,0.025c-1.204,1.16-1.771,2.386-1.699,3.679s0.591,2.516,1.558,3.671l-1.632,1.632,1.318,1.318,1.632-1.632c1.143,0.933,2.303,1.411,3.48,1.433s2.246-0.447,3.207-1.409c1.005-1.005,1.493-2.101,1.463-3.285-0.031-1.185-0.46-2.59-1.289-4.214-0.403-0.989-0.601-1.733-0.593-2.233s0.225-0.962,0.65-1.388c0.458-0.458,0.939-0.707,1.442-0.746s1.014,0.202,1.533,0.721c0.492,0.492,0.713,1.036,0.663,1.632-0.05,0.597-0.376,1.196-0.978,1.798l2.362,2.362,0.058-0.025c1.038-1.005,1.595-2.109,1.67-3.31s-0.316-2.369-1.172-3.501l1.798-1.798-1.317-1.317-1.773,1.773c-1.138-0.928-2.305-1.396-3.501-1.405-1.196-0.008-2.261,0.454-3.194,1.388-1.011,1.011-1.494,2.096-1.45,3.257,0.044,1.16,0.48,2.574,1.309,4.243,0.409,0.917,0.606,1.642,0.593,2.175-0.014,0.533-0.247,1.026-0.7,1.479-0.46,0.457-0.957,0.683-1.493,0.678z" fill="none"/>
</svg>
