<?xml version="1.0" encoding="UTF-8" standalone="no"?>
<svg width="108px" height="86px" viewBox="0 0 108 86" version="1.1" xmlns="http://www.w3.org/2000/svg" xmlns:xlink="http://www.w3.org/1999/xlink">
    <!-- Generator: Sketch 46.2 (44496) - http://www.bohemiancoding.com/sketch -->
    <title>EXP_US_Basic_s_lrg_4C_RGB</title>
    <desc>Created with Sketch.</desc>
    <defs></defs>
    <g id="Symbols" stroke="none" stroke-width="1" fill="none" fill-rule="evenodd">
        <g id="EXP_US_Basic_s_lrg_4C_RGB">
            <g id="Group" transform="translate(-0.000000, 50.849729)" fill="#1B2E4A">
                <path d="M32.4154172,24.8119383 L27.5887058,24.8119383 C27.5681974,24.8119383 27.5537209,24.8095242 27.5428635,24.7914187 L23.3820718,19.7146299 L19.2188674,24.7914187 C19.2092164,24.8095242 19.1911207,24.8119383 19.1718187,24.8119383 L15.3053828,24.8119383 C15.2812553,24.8119383 15.2631596,24.802282 15.2486831,24.7745202 C15.2390321,24.7612428 15.2414449,24.7346881 15.2571277,24.7141685 L21.3843127,17.1895128 L15.3258912,9.73365819 C15.3102083,9.71072452 15.3102083,9.68537679 15.3174466,9.66365016 C15.3258912,9.64916574 15.3500187,9.62743912 15.3717335,9.62743912 L20.1996513,9.62743912 C20.2153341,9.62743912 20.2370489,9.63709539 20.2466999,9.65640795 L23.8984008,14.1803748 L27.6092142,9.65399388 C27.621278,9.63709539 27.64058,9.62743912 27.6586756,9.62743912 L31.593875,9.62743912 C31.6155897,9.62743912 31.6409236,9.64916574 31.6505746,9.66365016 C31.6590193,9.68537679 31.6554001,9.71313859 31.6409236,9.73365819 L25.8913344,16.6391049 L32.4612595,24.7141685 C32.4733232,24.7346881 32.4793551,24.7612428 32.4672914,24.7745202 C32.4588467,24.802282 32.4359256,24.8119383 32.4154172,24.8119383" id="Fill-1"></path>
                <path d="M58.5479395,12.3034355 C56.4102408,12.3034355 54.9493192,13.6022051 54.5331194,15.8581533 L61.8075682,15.8581533 L61.8075682,15.7121021 C61.8075682,13.9063779 60.4781416,12.3034355 58.5479395,12.3034355 Z M65.5581919,18.1708322 C65.5461282,18.1853166 65.5268262,18.2010081 65.503905,18.2010081 L54.4534985,18.2010081 C54.6851228,20.7719925 56.3547475,22.2397469 59.0582367,22.2397469 C60.7254487,22.2397469 62.4952026,21.6700264 64.9924015,20.342288 C65.0370374,20.3145262 65.0852925,20.3519443 65.0852925,20.3990187 L65.0780542,23.8004431 C65.0732287,23.8294119 65.0611649,23.8463104 65.0418629,23.8499315 C62.7171759,24.8312509 60.3816315,25.4999482 58.5479395,25.4999482 C53.7924044,25.4999482 50.3397555,22.0309299 50.3397555,17.2546927 C50.3397555,12.4784556 53.7924044,9.01064427 58.5479395,9.01064427 C62.8884813,9.01064427 65.6788296,11.9328758 65.6788296,15.9571302 C65.6788296,16.606515 65.5630175,18.1213438 65.5581919,18.1708322 L65.5581919,18.1708322 Z" id="Fill-2"></path>
                <path d="M88.0076476,6.49397648 C86.6504743,6.49397648 85.5478464,5.40764506 85.5478464,4.07266445 C85.5478464,2.69664465 86.6504743,1.58255143 88.0076476,1.58255143 C89.3599954,1.58255143 90.4638297,2.69664465 90.4638297,4.07266445 C90.4638297,5.40764506 89.3599954,6.49397648 88.0076476,6.49397648 Z M86.0195396,24.8119383 C85.9809355,24.8119383 85.9580144,24.7902117 85.9580144,24.7527936 L85.9580144,9.69141197 C85.9580144,9.66123609 85.9797291,9.63709539 86.005063,9.62985318 L89.9969621,9.62985318 C90.0295342,9.63709539 90.0464235,9.66123609 90.0464235,9.69141197 L90.0464235,24.7527936 C90.0464235,24.7902117 90.0198832,24.8119383 89.9885174,24.8119383 L86.0195396,24.8119383 L86.0195396,24.8119383 Z" id="Fill-3"></path>
                <path d="M39.7164063,22.5463338 C38.997406,22.5463338 38.2591037,22.4449428 37.4122276,22.2192273 L37.4206722,12.5557058 C38.4135199,12.2394627 39.2772853,12.0909974 40.1301933,12.0909974 C42.8952077,12.0909974 44.7530271,14.1308864 44.7530271,17.1629581 C44.7530271,20.4328156 42.7757764,22.5463338 39.7164063,22.5463338 Z M40.8021449,9.01185131 C39.6778022,9.01185131 38.5377767,9.21584021 37.3470833,9.62743912 L33.3744863,9.62743912 C33.3395014,9.62743912 33.318993,9.65640795 33.318993,9.69141197 L33.318993,34.3885533 C34.5157182,34.2231895 35.9850845,33.7995203 37.413434,32.7807828 L37.4122276,25.2669905 C38.3918051,25.4070065 39.2012836,25.4999482 39.981809,25.4999482 C45.4189468,25.4999482 48.9403591,22.2397469 48.9403591,17.1895128 C48.9403591,12.3746506 45.5902522,9.01185131 40.8021449,9.01185131 L40.8021449,9.01185131 Z" id="Fill-4"></path>
                <path d="M78.7535354,21.2946386 C77.5085551,21.9476445 76.3986889,22.2590595 75.3527607,22.2590595 C72.8905468,22.2590595 71.4151487,20.5173081 71.4151487,17.6011117 C71.4151487,14.2274492 73.3007147,12.0463371 76.2153198,12.0463371 C77.0187663,12.0463371 77.8004982,12.2430838 78.7535354,12.6752023 L78.7535354,21.2946386 Z M78.7535354,1.65497352 L78.7535354,9.53811853 C77.5893823,9.20618393 76.5615497,9.05047643 75.5252725,9.05047643 C70.7914521,9.05047643 67.2181657,12.6220927 67.2181657,17.3597048 C67.2181657,22.0755902 70.3692204,25.4999482 74.7097622,25.4999482 C76.2104943,25.4999482 77.6183353,25.1209392 79.268658,24.2723937 L79.2662453,25.631515 C80.3580158,25.425112 81.6138535,24.9869584 82.8491828,24.110651 L82.8491828,0.0411678424 C81.6367746,0.20532459 80.1963614,0.609681286 78.7535354,1.65497352 L78.7535354,1.65497352 Z" id="Fill-5"></path>
                <path d="M103.875114,21.2632557 C102.671151,21.9597148 101.640906,22.2940635 100.721647,22.2940635 C98.0833021,22.2940635 96.5029492,20.5583473 96.5029492,17.6324947 C96.5029492,14.3095275 98.3631814,12.078927 101.129402,12.078927 C101.87253,12.078927 102.772487,12.3649943 103.875114,12.9443711 L103.875114,21.2632557 Z M107.976794,9.44638388 C107.976794,9.35223516 107.897173,9.27739899 107.804282,9.27739899 L104.579638,9.28343417 C104.485541,9.28343417 104.402301,9.36551254 104.402301,9.45604016 L104.402301,10.005241 L104.323886,10.005241 C102.832805,9.35223516 101.562491,9.05047643 100.310273,9.05047643 C95.8490933,9.05047643 92.3506021,12.7560736 92.3506021,17.4973067 C92.3506021,22.2856142 95.4823549,25.4999482 100.142586,25.4999482 C101.388773,25.4999482 102.986015,25.4130417 104.480715,23.6930169 L104.480715,25.630308 C105.538707,25.4070065 106.787307,24.9591966 107.970762,24.1046159 L107.976794,9.44638388 L107.976794,9.44638388 Z" id="Fill-6"></path>
                <path d="M4.27307198,20.996501 L14.270312,20.9904658 C14.1207213,22.1105942 13.7455383,23.416606 12.875741,24.7527936 L4.2971995,24.7527936 L2.59138348,24.7503795 C2.55398582,24.7503795 2.51779453,24.7527936 2.47798411,24.7527936 C1.20525717,24.7527936 0.156916205,23.763025 0.0326594509,22.518572 C0.0266275696,22.4992594 0.0205956883,22.4811539 0.0157701833,22.4642554 L0.0157701833,2.74130494 C0.0205956883,2.72682052 0.0266275696,2.70509389 0.0326594509,2.69060947 C0.156916205,1.44253538 1.20525717,0.452766747 2.47798411,0.452766747 C2.51779453,0.452766747 2.55398582,0.460008957 2.59138348,0.460008957 L14.2498036,0.456387852 C14.0990065,1.57048108 13.7214108,2.91149686 12.8552326,4.2404423 L4.27307198,4.2404423 L4.27307198,9.61174766 L12.7671672,9.61174766 C12.8033585,9.61174766 12.8286924,9.63709539 12.8286924,9.66968534 L12.8286924,13.392181 C12.8286924,13.425978 12.8033585,13.4513257 12.7671672,13.4513257 L4.27307198,13.4513257 L4.27307198,20.996501" id="Fill-7"></path>
            </g>
            <g id="Group-2" transform="translate(29.754372, 0.000000)">
                <path d="M28.2304621,18.5628819 L27.2584655,15.8150306 L19.0142551,4.80426322 L20.49324,4.43637709 L34.7099012,16.7153835 L43.0752075,14.3241237 C44.060121,14.0724121 45.1725888,14.0159383 46.0251041,14.0223925 C43.3965153,8.35565522 38.5849707,3.70544543 32.2330859,1.44326842 C19.6762461,-3.02783891 5.86969644,3.52795651 1.40206423,16.081264 C0.0183414931,19.9650443 -0.306195577,23.9698399 0.275064847,27.7810111 L20.3107888,20.8250589 L28.2304621,18.5628819" id="Fill-10" fill="#1B2E4A"></path>
                <path d="M46.9066824,16.1909844 C46.1688046,16.6653639 45.0918582,17.2946428 44.0197557,17.6350988 L35.6366886,20.0279722 L30.0436717,37.9721024 L28.5921352,38.4432548 L29.7740314,24.7394964 L29.113655,21.8932195 L21.2601808,24.1344205 L0.493037507,29.018593 C2.13994204,37.0023675 7.79431429,43.9583197 16.0417539,46.8949546 C28.6018229,51.3676755 42.4002995,44.808653 46.8695464,32.2634132 C48.7925496,26.8532281 48.6698391,21.2155345 46.9066824,16.1909844" id="Fill-11" fill="#1B2E4A"></path>
                <path d="M29.113655,21.8932195 L29.7740314,24.7394964 L28.5921352,38.4432548 L30.0436717,37.9721024 L35.6366886,20.0279722 L44.0197557,17.6350988 C45.0918582,17.2946428 46.1688046,16.6653639 46.9066824,16.1909844 C46.6451152,15.4535986 46.3528704,14.7307346 46.0251041,14.0223925 C45.1725888,14.0159383 44.060121,14.0724121 43.0752075,14.3241237 L34.7099012,16.7153835 L20.49324,4.43637709 L19.0142551,4.80426322 L27.2584655,15.8150306 L28.2304621,18.5628819 L20.3107888,20.8250589 L0.275064847,27.7810111 C0.338034727,28.1956898 0.409077668,28.6087549 0.493037507,29.018593 L21.2601808,24.1344205 L29.113655,21.8932195" id="Fill-12" fill="#FFFFFF"></path>
            </g>
        </g>
    </g>
</svg>