<?xml version="1.0" encoding="UTF-8" standalone="no"?>
<!-- Created with Inkscape (http://www.inkscape.org/) -->

<svg
   xmlns:dc="http://purl.org/dc/elements/1.1/"
   xmlns:cc="http://creativecommons.org/ns#"
   xmlns:rdf="http://www.w3.org/1999/02/22-rdf-syntax-ns#"
   xmlns:svg="http://www.w3.org/2000/svg"
   xmlns="http://www.w3.org/2000/svg"
   xmlns:sodipodi="http://sodipodi.sourceforge.net/DTD/sodipodi-0.dtd"
   xmlns:inkscape="http://www.inkscape.org/namespaces/inkscape"
   version="1.1"
   width="2433.9688"
   height="208.2187"
   id="svg2"
   xml:space="preserve"
   inkscape:version="0.48.2 r9819"
   sodipodi:docname="american_express_logo.svg"><sodipodi:namedview
     pagecolor="#ffffff"
     bordercolor="#666666"
     borderopacity="1"
     objecttolerance="10"
     gridtolerance="10"
     guidetolerance="10"
     inkscape:pageopacity="0"
     inkscape:pageshadow="2"
     inkscape:window-width="1608"
     inkscape:window-height="869"
     id="namedview4212"
     showgrid="false"
     fit-margin-top="0"
     fit-margin-left="0"
     fit-margin-right="0"
     fit-margin-bottom="0"
     inkscape:zoom="0.4489666"
     inkscape:cx="1147.0406"
     inkscape:cy="-101.23521"
     inkscape:window-x="0"
     inkscape:window-y="22"
     inkscape:window-maximized="0"
     inkscape:current-layer="g16" /><metadata
     id="metadata8"><rdf:RDF><cc:Work
         rdf:about=""><dc:format>image/svg+xml</dc:format><dc:type
           rdf:resource="http://purl.org/dc/dcmitype/StillImage" /><dc:title></dc:title></cc:Work></rdf:RDF></metadata><defs
     id="defs6"><clipPath
       id="clipPath18"><path
         d="m 0,8666.93 14669.8,0 L 14669.8,0 0,0 0,8666.93 z"
         inkscape:connector-curvature="0"
         id="path20" /></clipPath></defs><g
     id="g14"
     transform="matrix(0.18554875,0,0,-0.18554875,-140.8125,570.82501)"><g
       clip-path="url(#clipPath18)"
       id="g16"><path
         style="fill:#ffffff;fill-opacity:1;fill-rule:nonzero;stroke:none"
         d="m 1494.5625,1037.3125 0,207.5 183.6563,0 c 0,0 21.6323,-24.2149 34.875,-39.0625 12.9086,14.9107 34.125,39.4062 34.125,39.4062 l 110.6562,0 0,-53.4062 26.9375,0 c 10.7804,0 30.8758,0 48.7813,-10.875 0.8164,-0.4973 1.665,-1.0315 2.5,-1.5938 l 0,65.9063 88.7812,0 0,-55.5313 19.25,0 c 0.074,0.6736 0.1377,1.4095 0.1562,2.25 l 1.9376,53.2813 87.9687,0 -0.031,-0.375 114.375,0 0,0.7187 106.1876,0 c 14.6026,0 27.9998,-3.5901 39.2812,-9.9062 l 0,9.9062 106.1875,0 c 42.5278,0 74.5938,-30.2556 74.5937,-70.375 0,-11.9289 -0.1277,-35.6842 -16.4374,-53.625 l 9.0624,0 0,-83.875 -106.2187,0 c -14.8439,0 -28.2098,3.8903 -39.25,10.75 l 0,-10.75 -106.1875,0 c -13.6193,0 -25.9852,3.2951 -36.4688,9.125 l 0,-9.4687 -176.4062,0 0,11.0625 c -12.172,-7.2512 -26.7401,-10.7188 -41.25,-10.7188 l -125.5312,0 0,11.6876 c -12.2277,-7.9007 -26.8847,-11.6876 -41.4688,-11.6876 l -146.6875,0 c 0,0 -20.4141,22.5052 -32.8125,36.1876 -11.9364,-13.7084 -31.8125,-36.5313 -31.8125,-36.5313 l -188.75,0 z m -592.34375,0.4687 0,11.0938 c -12.22581,-7.3904 -26.91714,-10.9375 -41.5625,-10.9375 l -355.03125,0 c 0,0 -18.94314,42.1105 -31.1875,69.375 -12.19983,-27.2497 -31.0625,-69.375 -31.0625,-69.375 l -101.875,0 0,58.6875 c -8.01571,-18.0149 -26.125,-58.6875 -26.125,-58.6875 l -83.78125,0 -90.78125,207.5 95.59375,0 c 0,0 10.88365,-25.3243 15.09375,-35.125 l 44.1875,0 c 4.27875,9.8341 15.28125,35.125 15.28125,35.125 l 119.28125,0 0,-23.1875 c 0.48243,1.0892 10.28125,23.1875 10.28125,23.1875 l 67.5,0 c 0,0 10.87978,-23.6405 11.75,-25.5313 l 0,25.5313 304.09375,0 0,-55.5 19.28125,0 c 0.0761,0.6828 0.13213,1.4259 0.15625,2.2813 l 1.96875,53.2187 145.6875,0 0,-20.2813 c 14.66765,13.3373 33.70105,20.375 55.37505,20.375 l 67.4687,0 c 0,0 10.8855,-25.3555 15.0937,-35.1562 l 44.1876,0 c 4.2824,9.8341 15.2812,35.1562 15.2812,35.1562 l 117.7188,0 0,-50.2812 c 10.2088,16.9146 30.3437,50.2812 30.3437,50.2812 l 91.9063,0 0,-207.6562 -25.0626,0 -63.6874,0 0,43.2812 c -7.5816,-12.6804 -25.875,-43.2812 -25.875,-43.2812 l -96.375,0 0,55.0938 c -7.0936,-15.9127 -24.5313,-55.0313 -24.5313,-55.0313 l -74.8125,0 0,-0.062 -75.5,0 c -14.0405,0 -34.522,5.5202 -51.53125,21.5312 l 0,-21.625 -88.75,0 z m 617.40625,24.5938 152.3125,0 42.8437,49.1875 44.25,-48.8437 135.5938,0 c 18.9816,-1e-4 46.75,8.783 46.75,48.125 0,55.1803 -36.5232,55.875 -56.5625,55.875 l -52,0 0,53.4062 -74.125,0 -45.3125,-52.3438 -46.375,51.9688 -147.375,0 0,-157.375 z m 608.2812,0 126.3126,0 0,33.9062 -87.625,0 0,29.5 85.1562,0 0,29.8438 -85.1562,0 0,31.125 87.625,0 0,33 -126.3126,0 0,-157.375 z m -166.75,0.3438 100.4688,0 c 19.0002,0 46.375,8.4587 46.375,42.1562 0,18.9872 -5.6219,33.049 -26.7188,43.5938 18.2952,2.1004 25.3126,14.0293 25.3126,39.3437 l 1.4062,32.3125 -37.625,0 -1.0312,-28.8125 c -0.334,-13.3465 -5.6093,-26.7188 -18.9688,-26.7187 l -50.5625,0 0,55.5312 -38.6563,0 0,-157.4062 z m 354.5938,0 81.125,0 0,33.75 -59.3438,0 c -13.545,0.1595 -28.125,-1.5869 -28.125,13.6874 0,9.6709 7.1962,11.5745 16.3438,12.4688 3.1543,0 24.2109,1.1104 27.0312,1.0938 47.5005,2.4306 51.5,26.1267 51.5,51.4374 0,29.4986 -24.2722,45.3125 -49.5624,45.3126 l -81.1563,0 0,-33.7188 63.25,0 c 10.7247,0 26.7188,-0.01 26.7187,-15.125 0,-7.1974 -2.8201,-11.7608 -14.25,-12.9688 -5.084,-0.7162 -23.8857,-1.7843 -26.6874,-1.8437 -42.8989,-1.1263 -52.875,-22.4331 -52.875,-48.4063 0,-29.5152 20.7409,-45.6874 46.0312,-45.6874 z m 145.4375,0 81.1563,0 0,33.75 -59.375,0 c -13.5266,0.1595 -28.0938,-1.5869 -28.0938,13.6874 0,9.6709 7.2021,11.5745 16.3125,12.4688 3.1729,0 24.2422,1.1104 27.0625,1.0938 47.4819,2.4306 51.4688,26.1267 51.4688,51.4374 0,29.4986 -24.241,45.3125 -49.5313,45.3126 l -81.1563,0 0,-33.7188 63.25,0 c 10.7248,0 26.6875,-0.01 26.6876,-15.125 0,-7.1974 -2.789,-11.7608 -14.2188,-12.9688 -5.084,-0.7162 -23.8799,-1.7843 -26.7188,-1.8437 -42.8988,-1.1263 -52.875,-22.4331 -52.875,-48.4063 0,-29.5152 20.7225,-45.6874 46.0313,-45.6874 z m -1533.90625,0.094 38.625,0 0,157.5625 -38.625,0 0,-157.5625 z m 115.21875,0.125 50.4375,0 0,34.1875 -23.875,0 c -25.6632,0 -45.6563,2.7029 -45.6563,39.5938 l 0,11.4062 c 0.1745,27.7451 14.713,34.3259 24.0313,36.25 2.2767,0.527 24.75,0.5312 24.75,0.5312 L 1125.4062,1063 l 51.125,0 65.875,147.7188 0,-147.7813 57.0938,0 65.1562,108.9687 0,-108.9687 38.625,0 0,157.5313 -52.6874,0 -69.5626,-115.25 0,115.25 -76.2187,0 -15.2813,-35.1563 -77.125,0 -15.0937,35.1563 -50.9687,0 c -42.8451,0 -61.81148,-35.9369 -60.93755,-79.5 1.30626,-64.6322 39.52415,-78.0313 57.09375,-78.0313 z m -794.53125,0.062 51.15625,0 67.4375,151.5938 0,-151.5938 60.59375,0 47.25,105.5625 47.4375,-105.5625 61.625,0 0,157.375 -38.625,0 0,-114.875 -52.875,114.875 -35.125,0 -51.625,-116.8125 0,116.8125 -77.8125,0 -15.28125,-35.125 -77.15625,0 -15.09375,35.125 -40.75,0 L 247.96875,1063 z m 362.96875,0 126.28125,0 0,33.9062 -87.625,0 0,29.5 85.1875,0 0,29.875 -85.1875,0 0,31.0938 87.625,0 0,33 -126.28125,0 0,-157.375 z m 149.25,0 100.46875,0 c 18.9705,0 46.375,8.4383 46.375,42.1562 0,18.9891 -5.62742,33.0364 -26.71875,43.5626 18.26913,2.1189 25.3125,14.0497 25.3125,39.3437 l 1.40625,32.3125 -37.59375,0 -1.0625,-28.8125 c -0.34883,-13.3465 -5.60182,-26.6875 -18.96875,-26.6875 l -50.59375,0 0,55.5 -38.625,0 0,-157.375 z m 1034.3437,14.8125 -55.5312,61.5 55.5312,65.6875 0,-127.1875 z m -1521.9062,18.4687 -23.0625,55 47.0625,0 -24,-55 z m 1285.0938,0 0,29.5 85.2187,0 0,29.8438 -85.2187,0 0,31.125 89.0624,0 42.5313,-47.4375 -37.625,-42.8437 -93.9687,-0.1876 z m -407.4063,0.063 -23,55.0312 47.25,0 -24.25,-55.0312 z m 683.1875,0.1562 0,37.7812 48.125,0 c 15.8088,0 21.4375,-9.1409 21.4375,-19.6874 0,-7.7282 -5.0887,-18.0938 -21.25,-18.0938 l -48.3125,0 z m 166.3125,0 0,35.6562 48.0937,0 c 15.8274,0 21.4376,-7.0177 21.4376,-17.5624 0,-7.7226 -5.0888,-18.0938 -21.25,-18.0938 l -48.2813,0 z m -1201,0.25 0,35.6875 48.125,0 c 15.81618,0 21.4375,-7.0472 21.4375,-17.5937 0,-7.7244 -5.10169,-18.0938 -21.25,-18.0938 l -48.3125,0 z m 270.2813,25.4375 3.125,0 c -8.038,18.4101 -12.8069,29.3247 -16.375,37.5 -1.683,-0.032 -3.1045,-0.051 -4.125,-0.094 -1.3657,-0.5604 -3.1925,-2.5109 -3.25,-11.625 l 0,-11.2813 c 0,-8.7393 1.4874,-11.948 1.8437,-12.5937 1.4584,-0.8833 5.9134,-1.9063 18.7813,-1.9063 z"
         transform="matrix(5.3894192,0,0,-5.3894192,0,8666.9272)"
         id="path1134"
         inkscape:connector-curvature="0" /></g></g></svg>