<?xml version="1.0" encoding="UTF-8" standalone="no"?>
<svg xmlns:rdf="http://www.w3.org/1999/02/22-rdf-syntax-ns#" xmlns="http://www.w3.org/2000/svg" xml:space="preserve" version="1.1" y="0px" x="0px" width="512" height="512" xmlns:cc="http://creativecommons.org/ns#" xmlns:dc="http://purl.org/dc/elements/1.1/" viewBox="0 0 512 512"><metadata><rdf:RDF><cc:Work rdf:about=""><dc:format>image/svg+xml</dc:format><dc:type rdf:resource="http://purl.org/dc/dcmitype/StillImage"/><dc:title/></cc:Work></rdf:RDF></metadata>
		<path d="m152.42,329.27,2.3002,19.169s20.411,20.814,69.698-2.8869l-4.0313-19.076s19.008-10.986,38.016-4.0529c0,0-12.958-20.14-71.713-20.039-54.466,0.0942-74.308,30.445-82.08,39.114-0.005-0.006,32.826-17.346,47.804-12.236z"/>
		<path d="m229.89,376.18c52.696,0.0157,145.58-1.8629,163.72-9.5931,18.15-7.7303,22.042-21.618-25.479-28.559-44.603-6.5099-138.24-5.2039-138.24-5.2039,19.804,29.256-22.47,35.554-57.889,34.685-35.428-0.86765-31.108-26.016-31.108-26.016-13.823-0.86045-32.831,5.2032-36.285,14.648-3.4569,9.442,40.609,20.016,125.28,20.036z"/>
		<path d="m279.15,294.77,6.9072-0.18779c-0.0463-1.7916-0.53073-33.849,21.846-52.111,12.584-5.2032,40.603-13.846,62.277,0.38409,5.154,5.5553,9.9872,13.426,13.582,24.787,0.0463,0.17929,3.7353,18.504-5.5589,31.016-5.0601,6.8149-13.199,10.727-24.169,11.643-14.096,1.1575-21.494-4.4763-25.346-10.36-14.697-34.467,19.296-36.391,19.296-36.391,4.4055,0.75902,9.4402,4.6713,10.922,8.1837,3.142,7.4803,0.51443,12.222-1.3411,14.389-2.8075,3.2939-7.1413,4.7727-11.055,3.7945l-0.7185-0.0935c-0.0235-0.008-1.731-0.18779-3.1028-1.7994-1.8627-2.2143-2.4802-6.1972-1.793-11.549l-6.8603-0.89186c-0.96039,7.4489,0.18647,13.145,3.391,16.94,2.8773,3.3803,6.4169,4.0608,7.6948,4.1936,6.3459,1.4945,13.271-0.88399,17.691-6.0794,4.9186-5.7588,6.1816-13.294,3.2743-21.431-1.038-2.9033-3.346-5.6416-3.346-5.6416s-20.271-26.009-40.806,5.094c-0.68591,0.8526-1.2942,1.8459-1.8393,2.9497,0,0-0.45249,0.72695-0.82674,1.823-2.7286,7.1283-2.8153,17.707,1.6691,26.877,3.2267,6.58,11.226,17.081,29.439,17.073,1.3405,0,2.7592-0.055,4.2178-0.17209,13.044-1.0803,22.844-5.923,29.143-14.405,11.141-14.991,6.9776-35.719,6.7058-36.931-15.437-48.739-52.814-42.314-52.908-42.283-59.514,6.3202-58.399,70.524-58.386,71.165z"/>
		<path d="m259.53,247.1c1.0595-0.43055,2.0583-0.90756,2.9627-1.4546,0.0854-0.0478,0.15517-0.0628,0.23407-0.10993h-0.0157c3.6173-2.2064,6.104-5.1718,7.7809-8.0986,6.8688-12.057,3.9218-31.028-1.5837-36.54-5.1527-5.1764-14.813-9.8235-23.826-7.7427-5.184,1.1856-12.233,5.1214-16.427,17.132-2.5421,7.2886-2.1757,13.075,1.0908,17.186,4.725,5.9623,13.59,5.9387,18.455,5.4074,5.9801-0.67331,9.5817-4.35,11.04-6.9987,1.808-5.1836,1.4885-9.3268-0.97538-12.316-4.0456-4.9605-11.999-3.9554-12.887-3.822l0.99755,6.8574c1.6847-0.24603,5.3561-0.0975,6.5656,1.3656,0.96626,1.1928,0.42836,3.6185-0.0867,5.2032-0.4903,0.63798-2.1438,2.4524-5.4103,2.813-5.7688,0.65696-10.377-0.41484-12.295-2.8254-2.0968-2.6559-1.1384-7.214,0.0312-10.582,0,0,14.742-23.927,30.648-3.2782,2.0662,5.8608,3.0637,16.971-1.3418,24.694-4.3958,7.7113-13.136,9.9334-25.938,6.576-12.342-3.2232-19.444-10.176-21.121-20.688-2.417-15.211,7.391-33.304,13.613-37.315,7.9759-5.1483,28.722-14.659,48.962,8.0633,15.624,17.519,14.08,31.243,13.253,38.613-0.17082,1.5298-0.30382,2.8169-0.30382,3.8344h6.9157c0-0.814,0.11672-1.8348,0.24842-3.0557,0.88149-7.8513,2.713-24.185-14.961-44.02-24.465-27.436-50.466-14.029-57.85-9.2719,0,0-20.746,8.9827-21.175,40.347-0.26731,18.683,24.319,43.966,53.405,30.029z"/>
		<path d="m175.13,291.88c15.592,0,28.231-12.684,28.231-28.325s-12.639-28.324-28.231-28.324c-15.586,0-28.216,12.683-28.216,28.324,0.002,15.639,12.633,28.326,28.216,28.326z"/>
		<path d="m418.25,442.09,0.17212-72.84s-48.253,21.853-160.01,19.076c-108.1-2.6841-152.07-6.9405-160.71-19.076v71.1h-6.9111v15.609s39.746,23.411,161.15,23.411c121.39,0,155.95-12.144,172.37-18.207v-19.076h-6.0544zm-291.17,5.2085h-6.9157v18.487h6.9151v54.345zm35.707,5.5618h-6.9144v-54.325h6.9151v54.321zm32.267,2.0677h-6.9164v-56.398h6.9164v56.4zm32.248,2.336h-6.9072v-56.414h6.9072v56.416zm31.459,0h-6.9151v-56.414h6.9151v56.416zm34.21,0.68704h-6.915v-57.11h6.915v57.111zm34.36-2.3163h-6.9157v-57.103h6.9157v57.105zm32.222-4.2008h-6.9157v-54.317h6.9157v54.317zm31.883-6.0068h-6.9072v-54.317h6.9072v54.313z"/>
</svg>
