<?xml version="1.0" encoding="UTF-8" standalone="no"?>
<svg xmlns:rdf="http://www.w3.org/1999/02/22-rdf-syntax-ns#" xmlns="http://www.w3.org/2000/svg" xml:space="preserve" height="512" width="512" version="1.1" y="0px" x="0px" xmlns:cc="http://creativecommons.org/ns#" xmlns:dc="http://purl.org/dc/elements/1.1/" viewBox="0 0 512 512.00001"><metadata><rdf:RDF><cc:Work rdf:about=""><dc:format>image/svg+xml</dc:format><dc:type rdf:resource="http://purl.org/dc/dcmitype/StillImage"/><dc:title/></cc:Work></rdf:RDF></metadata>
	<path d="m411.16,235.92h-66.907v-28.516c-0.007-19.266-15.465-34.941-34.485-34.941h-98.282c-19.018,0-34.479,15.675-34.479,34.941v28.516h-66.91c-10.558,0-19.118,7.4116-19.118,16.556v97.803c50.76,10.781,105.31,16.664,162.13,16.664,62.478,0,122.21-7.0957,177.17-20.036v-94.432c0-9.1422-8.5629-16.554-19.129-16.554zm-200.7-28.52c0-1.0809,0.68476-1.6692,1.0381-1.6692h98.282c0.35336,0,1.0381,0.58824,1.0381,1.6692v28.516h-100.36v-28.516zm75.728,146.09c0,2.3127-1.635,4.1845-3.6674,4.1845h-46.54c-2.0323,0-3.6784-1.8718-3.6784-4.1845v-11.826c0-2.3065,1.646-4.1743,3.6784-4.1743h46.54c2.0323,0,3.6674,1.8678,3.6674,4.1743v11.825zm-33.065,33.158c-56.825,0-111.37-7.8818-162.13-22.342v90.733c0,12.253,8.5602,22.178,19.118,22.178h301.05c10.57,0,19.129-9.9243,19.129-22.178v-95.237c-54.973,17.322-114.7,26.849-177.17,26.849zm33.065,31.752c0,2.7467-1.635,4.9707-3.6674,4.9707h-46.54c-2.0323,0-3.6784-2.224-3.6784-4.9707v-14.082c0-2.7501,1.646-4.9748,3.6784-4.9748h46.54c2.0323,0,3.6674,2.2246,3.6674,4.9748v14.084z"/>
</svg>
