<?xml version="1.0" encoding="UTF-8" standalone="no"?>
<svg xmlns:rdf="http://www.w3.org/1999/02/22-rdf-syntax-ns#" xmlns="http://www.w3.org/2000/svg" xml:space="preserve" height="512" width="512" version="1.1" y="0px" x="0px" xmlns:cc="http://creativecommons.org/ns#" xmlns:dc="http://purl.org/dc/elements/1.1/" viewBox="0 0 512 512"><metadata><rdf:RDF><cc:Work rdf:about=""><dc:format>image/svg+xml</dc:format><dc:type rdf:resource="http://purl.org/dc/dcmitype/StillImage"/><dc:title/></cc:Work></rdf:RDF></metadata>
		<path d="m261.31,467.27c35.998,0,54.543,19.168,95.94,10.625,30.186-6.036,45.063-38.533,39.02-59.369-5.8622-20.194-31.683-29.792-43.547-37.291-13.35-8.4358-25.781-20.789-35.038-41.041-16.058-35.143-29.661-52.396-59.02-52.181-29.378-0.0589-45.962,20.798-54.492,43.853-6.5692,17.782-10.045,24.743-25.225,37.085-14.876,12.088-38.585,23.133-47.427,37.291-21.597,34.577,11.137,73.782,48.721,73.947,37.588,0.16476,45.078-12.921,81.072-12.921z"/>
		<path d="m170.74,280.06c7.4179,25.232-1.4147,49.761-19.747,54.799-18.333,5.0284-39.192-11.347-46.62-36.579-7.4284-25.232,1.4147-49.761,19.747-54.799,18.322-5.0316,39.191,11.35,46.62,36.577z"/>
		<path d="m240.6,204.24c7.4172,25.231-1.416,49.76-19.748,54.799-18.333,5.0291-39.192-11.346-46.62-36.578-7.431-25.233,1.4101-49.762,19.742-54.801,18.325-5.0284,39.195,11.346,46.626,36.579z"/>
		<path d="m344.42,223.67c-6.3777,25.495-26.559,42.651-45.084,38.336-18.515-4.3358-28.358-28.513-21.971-54.008,6.3882-25.494,26.57-42.651,45.094-38.326,18.515,4.3371,28.347,28.505,21.958,54z"/>
		<path d="m414.27,294.5c-6.377,25.486-26.558,42.651-45.083,38.336-18.515-4.3352-28.357-28.513-21.97-54.018,6.3862-25.486,26.568-42.651,45.094-38.316,18.522,4.3282,28.353,28.491,21.965,53.998z"/>
</svg>
