<?xml version="1.0" encoding="UTF-8" standalone="no"?>
<svg xmlns:rdf="http://www.w3.org/1999/02/22-rdf-syntax-ns#" xmlns="http://www.w3.org/2000/svg" xml:space="preserve" height="512" width="512" version="1.1" y="0px" x="0px" xmlns:cc="http://creativecommons.org/ns#" xmlns:dc="http://purl.org/dc/elements/1.1/" viewBox="0 0 512 512.00001"><metadata><rdf:RDF><cc:Work rdf:about=""><dc:format>image/svg+xml</dc:format><dc:type rdf:resource="http://purl.org/dc/dcmitype/StillImage"/><dc:title/></cc:Work></rdf:RDF></metadata>
		<path d="m337.6,377.79c-14.177,14.102-19.135,48.114-47.839,51.286-28.172,0.52837-31.553-12.103-42.855-27.493-17.732-24.14-26.054-31.195-34.742-31.543-13.289-0.52772-8.8528,21.15-2.824,25.549-24.102-7.7498-23.62-28.638-53.353-30.488-42.524-2.6431,64.848,82.484,115.35,113.68,49.965,0,76.9-0.17309,76.9-0.17309s-10.73-48.181,15.947-91.294c12.742-20.623-12.409-23.624-26.592-9.5236z"/>
		<path d="m281.71,417.18c8.0902,1.718,16.345,3.8957,8.1971-29.113-3.5214-14.259-8.828-23.583-20.057-22.714-10.382,0.8-10.124,14.853-6.8349,29.174,3.2653,14.328,10.806,20.986,18.692,22.658z"/>
		<path d="M413.79,329.3h-308.81c-6.8271,0-12.359,5.5041-12.359,12.285,0,6.7825,5.5314,12.284,12.359,12.284h308.8c6.82,0,12.351-5.5015,12.351-12.284,0.006-6.7813-5.5269-12.285-12.344-12.285z"/>
		<path d="m393.25,318.75v-26.792c-26.924-63.446-92.836-86.834-92.836-86.834h-10.649v-6.931c0-17.911-14.599-27.494-32.601-27.494-17.998,0-32.599,9.5832-32.599,27.494v6.931h-13.462s-65.912,23.388-92.849,86.834v26.792h275zm-167.28-94.47c-26.935,31.724-34.733,79.087-34.733,79.087h-41.093c8.5054-62.743,102.76-110.81,75.825-79.087z"/>
</svg>
