<?xml version="1.0" encoding="UTF-8" standalone="no"?>
<svg xmlns:rdf="http://www.w3.org/1999/02/22-rdf-syntax-ns#" xmlns="http://www.w3.org/2000/svg" xml:space="preserve" version="1.1" y="0px" x="0px" width="512" height="512" xmlns:cc="http://creativecommons.org/ns#" xmlns:dc="http://purl.org/dc/elements/1.1/" viewBox="0 0 512 512"><metadata><rdf:RDF><cc:Work rdf:about=""><dc:format>image/svg+xml</dc:format><dc:type rdf:resource="http://purl.org/dc/dcmitype/StillImage"/><dc:title/></cc:Work></rdf:RDF></metadata>
	<path d="m261.82,106.08c-103.69,0-187.74,84.051-187.74,187.74s84.051,187.74,187.74,187.74c4.0645,0,7.7308-0.39737,11.734-0.65161,0,0,0.32618-193.77,0.32618-196.37,0,0-15.156-2.1183-22.55-30.042-6.8751-29.329,11.795-96.254,11.795-96.254h9.9102v89.957h10.43v-89.957h10.43v89.957h10.43v-89.957h10.949s17.814,68.873,10.868,96.692c-6.9463,27.816-24.771,29.558-24.771,29.558v192.82c15.604-3.3417,30.424-8.7298,44.317-15.696-0.15175-47.534-0.4271-154.11-0.4271-304.02,55.407,20.207,43.023,209.25,43.023,209.25h-24.758v84.662c51.729-33.448,86.046-91.498,86.046-157.68,0-103.69-84.051-187.74-187.74-187.74z"/>
</svg>
