<?xml version="1.0" encoding="UTF-8" standalone="no"?>
<svg xmlns:rdf="http://www.w3.org/1999/02/22-rdf-syntax-ns#" xmlns="http://www.w3.org/2000/svg" xml:space="preserve" height="512" width="512" version="1.1" y="0px" x="0px" xmlns:cc="http://creativecommons.org/ns#" xmlns:dc="http://purl.org/dc/elements/1.1/" viewBox="0 0 512 512"><metadata><rdf:RDF><cc:Work rdf:about=""><dc:format>image/svg+xml</dc:format><dc:type rdf:resource="http://purl.org/dc/dcmitype/StillImage"/><dc:title/></cc:Work></rdf:RDF></metadata>
		<path d="m405.34,212.35h-3.3209l-18.542-46.986c-0.66121-1.6532-2.2432-2.7406-4.0167-2.7406h-107.88c-1.7698,0-3.3549,1.088-4.0111,2.7406l-18.544,46.986h-3.6577c-2.3847,0-4.3158,1.9468-4.3158,4.3515v60.696c0,2.4054,1.9311,4.3515,4.3158,4.3515h10.907v4.3185c0,7.2118,5.7983,13.055,12.946,13.055,7.1466,0,12.946-5.8434,12.946-13.055v-4.3185h85.568v4.6114c0,7.2118,5.7995,13.055,12.946,13.055,7.1473,0,12.947-5.8433,12.947-13.055v-4.6114h11.715c2.3859,0,4.3158-1.9468,4.3158-4.3515v-60.696c0-2.4048-1.928-4.3509-4.3133-4.3509zm-35.396,31.253c0-6.0091,4.8287-10.88,10.788-10.88,5.9596,0,10.789,4.8706,10.789,10.88,0,6.0097-4.8299,10.879-10.789,10.879-5.9571,0-10.789-4.8731-10.789-10.88zm-113.28,0c0-6.0091,4.8299-10.88,10.789-10.88,5.9589,0,10.789,4.8706,10.789,10.88,0,6.0097-4.8293,10.879-10.789,10.879-5.9632,0-10.789-4.8731-10.789-10.88zm17.834-72.274h102.04l16.19,41.024h-134.4l16.192-41.024z"/>
			<path d="m196.01,455.33c-35.088,0-63.625-28.787-63.625-64.173,0-20.14,9.2292-38.133,23.659-49.906l0.0674-30.832c-29.332,14.875-49.73,45.434-49.73,80.743,0,49.841,40.213,90.383,89.628,90.383,45.826,0,83.72-34.245,88.992-79.066l-26.305-0.19942c-5.2341,30.111-31.343,53.056-62.685,53.056z"/>
			<path d="m364.04,416.53c-3.2956-4.2798-9.4139-5.0407-13.68-1.7131l-17.885,14.036-47.898-79.908c-1.467-2.439-3.8097-3.9988-6.3723-4.5304v-0.21749h-89.781v-20.574h46.206c7.1806,0,13.005-5.8602,13.005-13.106,0-7.2461-5.8242-13.111-13.005-13.111h-46.211v-39.638c14.176-4.5815,24.545-17.853,24.545-33.663,0-19.578-15.779-35.503-35.198-35.503s-35.212,15.932-35.212,35.511c0,15.682,10.199,28.86,24.182,33.552v108.38h0.86823v0.008h104.42l48.086,80.213c0.32813,1.2114,0.9016,2.3636,1.7031,3.413,1.399,1.8284,3.3295,3.0043,5.3935,3.5196,0.91148,0.26796,1.8551,0.40817,2.8067,0.40817,1.7111,0,3.4562-0.45928,5.0326-1.4152,1.189-0.7185,2.1579-1.6582,2.9075-2.7332l24.368-19.124c4.2639-3.3277,5.0116-9.5032,1.6994-13.79z"/>
</svg>
