<?xml version="1.0" encoding="UTF-8" standalone="no"?>
<svg xmlns:rdf="http://www.w3.org/1999/02/22-rdf-syntax-ns#" xmlns="http://www.w3.org/2000/svg" xml:space="preserve" height="512" width="512" version="1.1" y="0px" x="0px" xmlns:cc="http://creativecommons.org/ns#" xmlns:dc="http://purl.org/dc/elements/1.1/" viewBox="0 0 511.99999 512.00001"><metadata><rdf:RDF><cc:Work rdf:about=""><dc:format>image/svg+xml</dc:format><dc:type rdf:resource="http://purl.org/dc/dcmitype/StillImage"/><dc:title/></cc:Work></rdf:RDF></metadata>
		<path d="m375.36,380.73,0.009-3.215c0.0561-78.912-0.18731-126.34-0.7128-137.16-0.0649-1.2074-0.48759-2.3676-1.2193-3.3277-13.731-17.909-71.745-26.062-119.84-26.062-25.277,0-107.77,2.7982-107.77,38.838l-0.0343,128.98c-0.29955,0.71282-0.53424,1.462-0.53424,2.2548v82.949c0,3.287,2.6639,5.9499,5.9553,5.9499h15.063v5.8953c0,9.8558,7.9997,17.839,17.875,17.839,9.875,0,17.875-7.985,17.875-17.839v-5.8953h118.16v6.2932c0,9.8558,8.0004,17.839,17.874,17.839,9.8743,0,17.875-7.9843,17.875-17.839v-6.2932h13.532c3.2936,0,5.9546-2.6629,5.9546-5.9499v-82.963c0-0.10911-0.0656-0.20366-0.0729-0.31277zm-12.11-103.41c0.15889,23.483,0.23323,58.098,0.19679,102.28-31.587,8.4622-65.433,12.865-100.81,12.865-51.31,0-91.564-9.1473-104.92-12.597l0.0197-102.73c85.121-16.06,174.99-4.626,205.5,0.18185zm-14.934,155.73h-26.56c-4.8766,0-8.8444-3.9489-8.8444-8.8353,0-4.8857,3.9656-8.8346,8.8444-8.8346h26.559c4.8868,0,8.8524,3.9503,8.8524,8.8346,0,4.8879-3.9722,8.8375-8.8554,8.8375zm-146.8,0h-26.57c-4.8956,0-8.8524-3.9489-8.8524-8.8353,0-4.8857,3.9576-8.8346,8.8524-8.8346h26.56c4.8854,0,8.8524,3.9503,8.8524,8.8346,0.00061,4.8879-3.9663,8.8375-8.8517,8.8375z"/>
		<path d="m325.23,152.67c-1.4351-5.021-6.706-7.9225-11.732-6.4859l-29.337,8.4098-14.058,0.15929-31.471-30.069c-3.0764-2.9291-7.9618-2.8316-10.888,0.23858-2.9452,3.0702-2.841,7.9326,0.23468,10.871l28.116,26.852-45.045,12.911,2.814-0.97832-15.729-2.6352-7.9334-8.2265c-2.1763-2.2701-5.7855-2.3254-8.0558-0.15929-2.2703,2.1814-2.3366,5.7796-0.15961,8.0403l20.875,21.654c1.1173,1.1601,2.618,1.745,4.1092,1.745,0.0838,0,0.15889-0.0414,0.24343-0.0466,0.74924,0.19203,1.508,0.37459,2.2966,0.37459,0.86294,0,1.7456-0.12146,2.6172-0.36949l63.474-18.2c0.67491-0.12148,1.3316-0.25749,1.9693-0.56663l41.161-11.802c5.0363-1.4453,7.9589-6.6903,6.5012-11.717zm-119.85,24.86c-0.42127,0.21093-0.86294,0.38404-1.2376,0.6459l-0.15888-0.15857,1.3964-0.48733z"/>
</svg>
