<?xml version="1.0" encoding="UTF-8" standalone="no"?>
<svg xmlns:rdf="http://www.w3.org/1999/02/22-rdf-syntax-ns#" xmlns="http://www.w3.org/2000/svg" xml:space="preserve" height="512" width="512" version="1.1" y="0px" x="0px" xmlns:cc="http://creativecommons.org/ns#" xmlns:dc="http://purl.org/dc/elements/1.1/" viewBox="0 0 512.00001 512"><metadata><rdf:RDF><cc:Work rdf:about=""><dc:format>image/svg+xml</dc:format><dc:type rdf:resource="http://purl.org/dc/dcmitype/StillImage"/><dc:title/></cc:Work></rdf:RDF></metadata>
	<path d="m259.25,230.1c-60.691-91.754-168.98-25.813-167.73,61.144,0.39604,70.849,155.73,180.64,167.69,189,0.0177,0.34057,0.0177,0.5735,0.0177,0.5735s0.18031-0.1207,0.40587-0.28251c0.21572,0.15659,0.39539,0.2786,0.39539,0.2786s0.01-0.22902,0.01-0.56046c11.94-8.38,166.92-118.66,167.09-189.52,0.99-86.97-107.51-152.56-167.89-60.63zm-112.9,81.934c0,4.7798-3.8889,8.6534-8.6873,8.6534-4.8076,0-8.688-3.8742-8.688-8.6534v-21.122c0-4.7746,3.8804-8.6488,8.688-8.6488,4.7984,0,8.6873,3.8742,8.6873,8.6488v21.12zm22.855,19.971c0,5.6391-4.5905,10.217-10.272,10.217-5.6619,0-10.271-4.5782-10.271-10.217v-61.071c0-5.6398,4.6096-10.217,10.271-10.217,5.6816,0,10.272,4.5776,10.272,10.217v61.07zm24.543,22.04c0,6.0775-4.9426,11.009-11.064,11.009-6.1131,0-11.064-4.9318-11.064-11.009v-105.13c0-6.0782,4.9512-11.009,11.064-11.009,6.1222,0,11.064,4.9312,11.064,11.009v105.14zm120.93-37.41h-116.28v-30.309h116.29v30.307zm26.772,37.424c0,6.0775-4.9689,11.009-11.073,11.009-6.1052,0-11.074-4.9318-11.074-11.009v-105.14c0-6.0782,4.9689-11.009,11.074-11.009,6.1039,0,11.073,4.9312,11.073,11.009v105.14zm22.943-22.04c0,5.6391-4.5912,10.217-10.272,10.217-5.6639,0-10.263-4.5782-10.263-10.217v-61.071c0-5.6398,4.5997-10.217,10.263-10.217,5.6803,0,10.272,4.5776,10.272,10.217v61.07zm19.704-19.971c0,4.7798-3.8889,8.6534-8.688,8.6534-4.8062,0-8.6958-3.8742-8.6958-8.6534v-21.122c0-4.7746,3.8896-8.6488,8.6958-8.6488,4.799,0,8.688,3.8742,8.688,8.6488v21.12z"/>
</svg>
