<?xml version="1.0" encoding="UTF-8" standalone="no"?>
<svg xmlns:rdf="http://www.w3.org/1999/02/22-rdf-syntax-ns#" xmlns="http://www.w3.org/2000/svg" xml:space="preserve" height="512" width="512" version="1.1" y="0px" x="0px" xmlns:cc="http://creativecommons.org/ns#" xmlns:dc="http://purl.org/dc/elements/1.1/" viewBox="0 0 512 512"><metadata><rdf:RDF><cc:Work rdf:about=""><dc:format>image/svg+xml</dc:format><dc:type rdf:resource="http://purl.org/dc/dcmitype/StillImage"/><dc:title/></cc:Work></rdf:RDF></metadata>
		<path d="m63.023,405.21c8.8187,32.153,15.421,42.126,15.421,42.126,4.4098,1.4753,17.252,8.864,9.9213,16.997-19.115,0.7434-7.3528,18.483-7.3528,18.483h15.422c13.217-6.656,12.479-26.616,12.479-26.616h278.32c-0.71572,19.227,11.025,25.873,11.025,25.873h18.365c2.1939-0.73099,5.8632-11.083,1.4535-14.778-4.3974-3.7064-9.5458-1.4868-13.216-4.4382-3.6597-2.9505,2.2053-10.351,2.2053-10.351,7.3529,0.74341,13.216-12.559,13.216-12.559l46.92-113.83-426.23-1.84c2.2044,1.1089,9.0117,33.489,22.025,80.94z"/>
		<path d="m136.82,272.9s-8.8063-31.044-63.881-15.522c0,0-19.831,4.4382-20.195,28.825h26.798c0.0018,0,2.2071-38.43,57.279-13.298z"/>
		<path d="m268.12,218c20.877,0,37.847-17.077,37.847-38.078,0-21-16.967-38.088-37.848-38.088-20.864,0-37.833,17.088-37.833,38.088,0,21.001,16.967,38.078,37.831,38.078zm0-64.723c14.604,0,26.493,11.953,26.493,26.645,0,14.699-11.888,26.651-26.493,26.651-14.603,0-26.479-11.953-26.479-26.651,0-14.692,11.873-26.645,26.478-26.645z"/>
		<path d="m280.14,247.66c0,12.045,9.7301,21.835,21.695,21.835,11.956,0,21.685-9.7902,21.685-21.835,0-12.032-9.7283-21.823-21.685-21.823-11.961,0-21.692,9.7937-21.692,21.823zm33.053,0c0,6.3145-5.0911,11.439-11.354,11.439-6.2731,0-11.364-5.1249-11.364-11.439,0-6.3021,5.0902-11.426,11.364-11.426,6.2581,0.009,11.353,5.1364,11.353,11.435z"/>
		<path d="m276.69,296.5c1.3768-3.5006,2.1718-7.2282,2.1718-11.027,0-16.596-13.411-30.093-29.901-30.093-16.491,0-29.901,13.497-29.901,30.093,0,3.8208,0.79504,7.5263,2.1595,11.027h-188.68v14.894h451.55v-14.892h-207.41zm-10.154,0h-35.127c-2.0467-3.3169-3.2163-7.0916-3.2163-11.027,0-11.529,9.307-20.908,20.774-20.908,11.444,0,20.774,9.3794,20.774,20.908-0.009,3.9654-1.137,7.7179-3.2084,11.027z"/>
</svg>
