<?xml version="1.0" encoding="UTF-8" standalone="no"?>
<svg xmlns:rdf="http://www.w3.org/1999/02/22-rdf-syntax-ns#" xmlns="http://www.w3.org/2000/svg" xml:space="preserve" height="512" width="512" version="1.1" y="0px" x="0px" xmlns:cc="http://creativecommons.org/ns#" xmlns:dc="http://purl.org/dc/elements/1.1/" viewBox="0 0 512 512"><metadata><rdf:RDF><cc:Work rdf:about=""><dc:format>image/svg+xml</dc:format><dc:type rdf:resource="http://purl.org/dc/dcmitype/StillImage"/><dc:title/></cc:Work></rdf:RDF></metadata>
<g style="fill:#000000;" transform="matrix(0.91721442,0,0,0.93737168,27.118561,203.57609)">
	<g style="fill:#000000;">
		<path style="fill:#000000;" d="m0,184.37s139.89-46.238,216.2-16.183c76.305,30.056,144.52,50.874,204.65,41.626,60.11-9.26,67.059-22.65,67.059-22.65s-48.564,76.988-205.8,28.424-106.37-39.303-145.68-39.303c-39.316-0.01-122.56,3.45-136.43,8.08z"/>
		<path style="fill:#000000;" d="m0,244.49s120.25-38.563,175.73-25.431c55.498,13.143,76.682,38.423,154.94,48.551,62.422,8.099,87.866,19.928,157.24-22.404,0,0-32.379,61.719-138.74,45.535-106.37-16.19-146.84-46.25-195.39-52.04-41.33-4.9-153.78,5.8-153.78,5.8z"/>
		<path style="fill:#000000;" d="m205.8,133.5s65.897-86.716,100.59-109.84c34.67-23.116,54.33-32.37,78.61-17.336,24.27,15.034,40.466,36.991,58.961,43.927,18.495,6.947,26.594-6.936,38.152-9.248,11.561-2.311,20.808,9.248,28.906,21.969,0,0-13.401,8.708-27.744,11.56-14.363,2.875-38.164,4.624-38.164,4.624l-61.28-31.217s-18.496-9.248-28.906,15.033c-10.397,24.282-19.645,41.627-11.559,47.401,8.098,5.786,84.403,71.683,84.403,71.683s-30.067,20.808-120.24-15.022c-71.05-28.23-94.8-33.53-101.74-33.53z"/>
		<path style="fill:#000000;" d="m188.45,128.87-105.21,4.635s-23.12-54.349,13.872-83.254c37.003-28.893,78.619-8.086,90.189,10.41,11.56,18.5,8.09,43.944,1.15,68.214z"/>
	</g>
</g>
</svg>
