<?xml version="1.0" encoding="UTF-8" standalone="no"?>
<svg xmlns:rdf="http://www.w3.org/1999/02/22-rdf-syntax-ns#" xmlns="http://www.w3.org/2000/svg" xml:space="preserve" height="512" width="512" version="1.1" y="0px" x="0px" xmlns:cc="http://creativecommons.org/ns#" xmlns:dc="http://purl.org/dc/elements/1.1/" viewBox="0 0 511.99999 511.99999"><metadata><rdf:RDF><cc:Work rdf:about=""><dc:format>image/svg+xml</dc:format><dc:type rdf:resource="http://purl.org/dc/dcmitype/StillImage"/><dc:title/></cc:Work></rdf:RDF></metadata>
		<path d="m366.43,220.91c-11.55,0-22.304,3.4356-31.441,9.2778l-50.624-40.286c-8.4054-6.6926-20.625-5.3013-27.315,3.1307-4.1987,5.292-5.1884,12.096-3.2694,18.086l1.6795,19.504,15.864-1.3687,0.23946,0.19268,1.5906,18.488,19.534-1.677,0.99164,0.79197,1.6344,18.922,14.042-1.2079c-1.5176,5.3551-2.3766,10.996-2.3766,16.843,0,33.465,26.672,60.694,59.452,60.694s59.45-27.229,59.45-60.694c-0.006-33.466-26.678-60.695-59.459-60.695zm14.865,93.907c-8.1985,0-14.861-6.6799-14.861-14.888,0-8.2087,6.6629-14.887,14.861-14.887,8.1992,0,14.863,6.6779,14.863,14.887,0,8.2054-6.6662,14.889-14.865,14.889z"/>
			<path d="m181.98,455.39c-37.068,0-67.213-30.194-67.213-67.318,0-21.128,9.7526-40.005,24.991-52.356l0.0703-32.342c-30.973,15.594-52.516,47.651-52.516,84.692,0,52.289,42.472,94.824,94.667,94.824,48.402,0,88.419-35.93,93.984-82.944l-27.779-0.21328c-5.5254,31.586-33.112,55.657-66.205,55.657z"/>
			<path d="m359.45,414.68c-3.485-4.4914-9.9509-5.288-14.451-1.7972l-18.891,14.726-50.592-83.835c-1.5442-2.5593-4.0203-4.1917-6.7266-4.7505v-0.22324h-94.82v-21.584h48.811c7.5843,0,13.73-6.1511,13.73-13.756,0-7.5962-6.1462-13.751-13.73-13.751h-48.811v-41.584c14.979-4.8096,25.929-18.731,25.929-35.318,0-20.52-16.676-37.229-37.178-37.229-20.506,0-37.191,16.708-37.191,37.241,0,16.457,10.771,30.28,25.555,35.204v113.69h0.91072v0.009h110.29l50.778,84.154c0.34823,1.2703,0.95582,2.4776,1.8042,3.5798,1.4752,1.9195,3.5122,3.148,5.6898,3.6914,0.96512,0.28038,1.9654,0.42854,2.9656,0.42854,1.8135,0,3.6535-0.47771,5.3244-1.4836,1.2503-0.75277,2.2685-1.7354,3.0632-2.8643l25.742-20.068c4.484-3.5014,5.2866-9.986,1.7909-14.477z"/>
</svg>
