<?xml version="1.0" encoding="UTF-8" standalone="no"?>
<svg xmlns:rdf="http://www.w3.org/1999/02/22-rdf-syntax-ns#" xmlns="http://www.w3.org/2000/svg" enable-background="new 0 0 74.484 59.203" xml:space="preserve" height="61.203" viewBox="0 0 76.484999 61.203" width="76.485" version="1.1" y="0px" x="0px" xmlns:cc="http://creativecommons.org/ns#" xmlns:dc="http://purl.org/dc/elements/1.1/"><metadata><rdf:RDF><cc:Work rdf:about=""><dc:format>image/svg+xml</dc:format><dc:type rdf:resource="http://purl.org/dc/dcmitype/StillImage"/><dc:title/></cc:Work></rdf:RDF></metadata>
<path connector-curvature="0" style="fill:#a6a9b8;" d="m38.266,1c-14.076,0-27.052,4.941-37.266,13.172l7.078,8.719c8.258-6.625,18.749-10.594,30.188-10.594s21.93,3.969,30.188,10.594l7.031-8.719c-10.211-8.217-23.158-13.172-37.219-13.172zm0,14.672c-10.596,0-20.343,3.712-28.031,9.891l7.031,8.766c5.739-4.597,13.018-7.359,21-7.359,7.939,0,15.244,2.713,21,7.266l7.031-8.672c-7.689-6.18-17.436-9.892-28.031-9.892zm-1.548,14.906c-6.467,0.33-12.396,2.748-17.155,6.562l7.03,8.672c3.193-2.527,7.24-4.031,11.673-4.031,4.419,0,8.437,1.518,11.625,4.031l7.031-8.719c-5.128-4.078-11.621-6.516-18.656-6.516-0.517,0.001-1.037-0.025-1.548,0.001zm1.548,15.328c-3.401,0-6.551,1.207-9.048,3.188l9,11.109,9.048-11.156c-2.498-1.957-5.622-3.141-9-3.141z"/>
</svg>
