<?xml version="1.0" encoding="UTF-8" standalone="no"?>
<svg xmlns:rdf="http://www.w3.org/1999/02/22-rdf-syntax-ns#" xmlns="http://www.w3.org/2000/svg" xml:space="preserve" viewBox="0 0 134.5511 117.73222" height="117.73222" width="134.5511" version="1.1" y="0px" x="0px" xmlns:cc="http://creativecommons.org/ns#" xmlns:dc="http://purl.org/dc/elements/1.1/"><metadata><rdf:RDF><cc:Work rdf:about=""><dc:format>image/svg+xml</dc:format><dc:type rdf:resource="http://purl.org/dc/dcmitype/StillImage"/><dc:title/></cc:Work></rdf:RDF></metadata>
<path style="fill-rule:evenodd;fill:#ededed;" d="m38.583,19.251h56.4-56.4z"/>
<g style="fill-opacity:0.50196081;fill:#170d0d;" transform="matrix(0.84382567,0,0,0.84382567,10.183053,14.050851)">
	<rect style="fill-opacity:0.50196081;fill:#170d0d;" height="0.006" width="4.781" y="19.194" x="21.606"/>
	<path style="fill-opacity:0.50196081;fill:#170d0d;" d="m127.2,19.2h-13.188v83.993h-4.81v-83.99h-16.246c-2.642-10.987-13.166-19.2-25.754-19.2-12.589,0-23.112,8.213-25.754,19.2h-15.059v83.993h-4.781v-83.99h-14.406c-3.976,0-7.2,3.224-7.2,7.2v69.6c0,3.977,3.224,7.2,7.2,7.2h120c3.977,0,7.2-3.224,7.2-7.2v-69.6c0-3.976-3.223-7.2-7.2-7.2zm-60-14.4c9.219,0,17.154,5.906,20.747,14.4h-41.494c3.593-8.494,11.528-14.4,20.747-14.4z"/>
	<rect style="fill-opacity:0.50196081;fill:#170d0d;" height="0.006" width="4.812" y="19.194" x="109.2"/>
</g>
</svg>
